<mxfile host="Electron" agent="Mozilla/5.0 (Windows NT 10.0; Win64; x64) AppleWebKit/537.36 (KHTML, like Gecko) draw.io/24.7.17 Chrome/128.0.6613.36 Electron/32.0.1 Safari/537.36" version="24.7.17">
  <diagram name="第 1 页" id="owrxnaAHJiJ0latOr4Y3">
    <mxGraphModel dx="2035" dy="1275" grid="1" gridSize="10" guides="1" tooltips="1" connect="1" arrows="1" fold="1" page="1" pageScale="1" pageWidth="827" pageHeight="1169" math="0" shadow="0">
      <root>
        <mxCell id="0" />
        <mxCell id="1" parent="0" />
        <mxCell id="O9XKlactTY2eh3zWxzKE-3" value="" style="shape=image;verticalLabelPosition=bottom;labelBackgroundColor=default;verticalAlign=top;aspect=fixed;imageAspect=0;image=data:image/png,iVBORw0KGgoAAAANSUhEUgAAA+IAAAOSCAIAAAB/Wv3dAAAgAElEQVR4nOzdd1hT1wPG8XNDmA4QhIKCSt2Kq1oFF7i3tVVoa7VqtVpHna3bgts6wK3Fba0jOOreAxc4a3HjVtQqgqKirCS/P2JTishPLXAv5Pt5ePok594kL6kPvh7OPZH0er0AAAAAoCQquQMAAAAASIuaDgAAACgONR0AAABQHGo6AAAAoDjUdAAAAEBxqOkAAACA4lDTAQAAAMWhpgMAAACKQ00HAAAAFIeaDgAAACgONR0AAABQHGo6AAAAoDjUdAAAAEBxqOkAAACA4lDTAQAAAMVR//enkCQpM5IAAAD8V76+vhqNRu4UQCbIhJouhOjTp0+NGjUy5amQK3Xs2JE/JMjYrFmzVNqXA7t/JXcQKFdg8G9CCP6QIAOGPyRA7pA5Nb1GjRqfffZZpjwVcqWOHTvyhwQZW79+vTr5mW+rhnIHgXKFbN4jhOAPCTJg+EMC5A6sTQcAAAAUh5oOAAAAKA41HQAAAFAcajoAAACgONR0AAAAQHGo6QAAAIDiUNMBAAAAxaGmAwAAAIpDTQcAAAAUh5oOAAAAKA41HQAAAFAcajoAAACgONR0AAAAQHGo6QAAAIDiUNMBAAAAxVHLHQAAIIQQj+OeHTl+xtrKsmrFsna2+eSOAwCQGbPpACC/bXsPu37UrFWnAQ0/73XyzwvpnuNRz8+5UpPEpORsTwc51WjRya6Mz7Pn8W86Yc+h41KhaqOnBWdvLgBZjtl0AJCZTqcbOn52YlJSwA/dixR2qVKhjNyJAADyo6YDgMwSEpPuPYguV+rDnwZ8K0mS3HEAAIrAohcAkJlWq03Raq2tLOnoAAAjajoAyKnH4An5S3nHPX1+/I/zUqFqPQZPMIyfOR/ZttuPdqV98pWo07bbj1dv3pE7KeT0MOZxt0FjHcrVt/mwVqMveu88EKbX69M9U6/Xz1u21qzwx9Wadox5HJftSQFkGha9AICcvvikceniRUf+PPcDR/sfen5drqS7EGL/0ZMtO/YXQnzZponLBwW37zta55NuySkpajU/tE1RYmJSky/66PT6bu3bvHiZsOr3nc2/6jtn4tDvvm77+slL12z+fuTkapXKbV85y94uvxx5AWQOfuIDgJzq1apWrVLZMUELnAra9+7sa+hkPYdMVKlUoeuDP6pQRggRMKh7r2GTglds+MDRQe68kEFCYlIh54LbVszMm8dGCPFjr69rt+n649gZvi0bONjbpT5z9e87vxsyoVrFctt+m0lHB3I6Fr0AgLKEnz57+dqtr31bfPT3li9mZmYThvbOny+P3NEgD0mSpo/5wdDRhRBFCjsP7dP5efyLA2GnU5/2+44DnfoFVKlQhnl0IHegpgOAsoSfOiuEqFOjSupBB3u78qU+lC8U5FTY2dGjdPHUI96eHwkhrty4bRzZffDYlz1HJCUn9+niV4CPxwJyBWo6ACiL4bK/gv9ezCCEKOLqIlMiyMw2f14LC/PUI4aZ9UexT4wjR0782apxHfcihfr/NO3cpWtyxASQyajpAKAshoL+8FFsmvFHMY9lSgSZPXv+IjklJfVI3LPnQgjnVNcqdPZrtWb+xGUzRsc9e96+94gXLxPkSAogM1HTAUBZalevbPgE+NSDz56/iLhwRb5QkNO9v6Jv3L6XemTPwWNCiDIlihlHirm5SJJUu3rlrl9+cvbi1Z9nL5UjKYDMRE0HAGWpXqV8tUplV23YYWzqOp0uYNov0alWOMCkpGi1P4wOSkpKNty9dPXmpNnLnAoW8Pb6KM2ZkiSNH9q7sLPT5LnL/zh7WY6wADINGzICgLKo1eoFU0c19OvZvENf31YNixd1DQ07FX7qrB3XBZoqF6eCl6/dqta0Q6vG3o9in6zeuDM5OWX9oqn58qaz+Y9DAdug0QP9egztMWT8oQ0LLS0t5IgMIBMwmw4AilO5fKkT25e3/7Tp7tBjP89eptPpt/w6o4pHablzQR72BfLv0cwrX7r47MVrVv++s17Nakc2LW5az+tN57dtUb9VozonzlwIDP4te5MCyEzMpgOAzPLlzfPk0oE0g+5FCi+dHpB6pFHdGtmbC4pwbOsyw41V8yake0LDOtX1906mHlGpVJuWBWVLOgBZiNl0AAAAQHGo6QAAAIDiUNMBAAAAxaGmAwAAAIpDTQcAAAAUh5oOAAAAKA41HQAAAFAcajoAAACgONR0AAAAQHGo6QAAAIDiUNMBAAAAxaGmAwAAAIpDTQcAAAAUh5oOAAAAKA41HQAAAFAcajoAAACgONR0AAAAQHEkvV7/X59CkqpXr164cOFMioRcaMOGDfwhQcaOHz8u6ZK9qlaUOwiUK+xUhBCCPyTIQNipCK/a3hqNRu4gQCbIhJru5+eXSWFyicTExPDwcG9vb7mDAMjBoqKiwsLCfH195Q4C5Xrw4MGRI0datmxpYWEhdxYF8fLyGjBggNwpgEyQCTUdacydO3fQoEFXrlxxdXWVOwuAnCokJMTPz48f0cjA1q1b27Rpc+/ePUdHR7mzAMh8rE3PZImJiZMmTUpISJg0aZLcWQAAuZler+cfckAuRk3PZIsWLbpz547hRlRUlNxxAAAAkCNR0zOTYSrdcJsJdQAAALw3anpmMk6lG+8yoQ4AAID3QE3PNKmn0g2YUAcAAMD7oaZnmjRT6cbB6OhomRIBAAAgp6KmZ47o6OjRo0e/Pp6QkDB37lw5EgEAACAHo6ZnjtGjRz98+FAI4eHh0bVrVyFEQECAnZ2dYRv1xMREuQMCAAAgJ6GmZ4KoqKhFixZ5eHhoNJqIiIgmTZoIIfz9/W/cuBEQEPDixYtFixbJnREAAAA5CTU9E2zZsmX58uURERG+vr6SJBnH7ezs/P39IyIirl27lpycLGtGAAAA5CRquQPkBt99910GR93d3adNm5aNcQAAAJDjMZsOAAAAKA41HQAAAFAcajoAAACgONR0AAAAQHGo6QAAAIDiUNMBAAAAxaGmAwAAAIpDTQcAAAAUh5oOAAAAKA41HQAAAFAcajoAAACgONR0AAAAQHHUcgcAAOCtLFiwYMeOHSoVE0yvREZGSpIkSZLcQQBkCWo6ACBnOHHixK5du+rWratW85eXEEIUK1ascuXKtra2cgcBkCX4SQcAyBlUKlW9evU2bdokdxAAyA786hAAkDOwwAOASaGmAwAAAIpDTQcAAAAUh5oOAAAAKA41HQAAAFAcajoAAACgONR0AAAAQHGo6QAAAIDiUNMBAAAAxaGmAwAAAIpDTQcAAAAUh5oOAAAAKA41HQAAAFAcajoAAACgONR0AAAAQHGo6QAAAIDiUNMBAAAAxaGmAwAAAIpDTQcAAAAUh5oOAAAAKA41HQAAAFAcajoAAACgONR0AAAAQHGo6QAAAIDiUNMBAAAAxaGmA4AiXLp06caNGxmccO7cuUuXLmVjIpklJydv3rxZr9e/6QS9Xn/w4MHsDQUA2YeaDgCK4O7u3rBhw9GjR8fFxaU5dO7cuc8//7xFixbu7u4ypZOBubn5zp07K1WqtHbt2jRlXa/Xr127tlKlSn/88Yd8AQEga1HTAUARLC0tW7duHRAQUKxYMWNZNxT0SpUqaTSaIUOGWFpayh0zWw0dOjQyMtLX19dQ1nU6nbGg+/r6RkZGtm/fXu6MAJBVpAx+n4j3ExIS4ufnxxsL4F39+eeflStXNtxWqVQ6nc7wXyGEm5vblStXTK2mCyH69OkzZ84cw20LC4uUlBTDGyKE6N279+zZs2VNBwBZiNl0AFAKwySx4bahjBor6bRp00ywowsh/P39nZycDLeTkpKMb4iTk5O/v7+s0QAga1HTAUBBAgMDX6/jPj4+xvpuahwdHdOt4/7+/o6OjnIkAoBsQk0HAAVxdXXt1q1bmsGAgAB50ihD165d3dzcUo+4ubl17dpVvkQAkB2o6QCgLEOHDk09oe7j4+Pt7S1rIplZWloOHTo09UiatwgAciVqOgAoS5oJdROfSjdIPaHOVDoAE0FNBwDFMc4WM5VukHpCnal0ACaCmg4AimOcUGcq3cgwoc5UOgDToZY7AAAoS0hIiNwRhBCiePHibm5uDx8+VEgeJfD09BRCbNq0Se4gQgjh5eXl6uoqdwoAuRkfb5T5+HgjIEeTJEnuCMgBNBqNye6SCSB7MJsOAGnNCF7drHU7uVNAuUo587cngCzH2nQAAABAcajpAAAAgOJQ0wEAAADFoaYDAAAAikNNBwAAABSHmg4AQCZLTtZeuiR3CAA5HDUdAIDMFBqa6OlplpKSLHcQADkbNR0AgEwQHf1yxowXVaoIHx/LIkWEh4e53IkA5Gx8QAMAAP9JVFTSpEkWixZZJyS8GunfP16IPDLHApDDUdMBAHhPfxd0C2NBF0J4eIi6dW3kjAUgV6CmAwDwzqKiCvfpI9IUdIMaNcTatY+ESJQnGWDC3NysPT0d5E6RaajpAAC8q/xBQQXv3En/2KJFYtEix+xOBEAIX1+h0cgdIvNQ0wEAeFdPp037y8mpaECA5YEDaY8FBAh/f1lSASbNz0/uBJmNnV4AAHgPD7y9LffvFwcOJPr4/OvA9Oni+XN2YwTwX1HTAQB4f6+X9SdPxLp1WpljAcj5qOkAAPxXacr60qVWcicCkONR0wEAWeLJ49jtm9ZeuhAhd5DsYyzrcXHi3DnWvQD4T6jpAIAscfvmtX7dv9i49je5g2Q3b2/LY8e0ajWfQgrgP6GmAwCyhK1dgaat2pUuV0HuILLQCXFJ7gwAcjZqOgAgSxR1LzFzweo27TrIHSS7hYaGenp6pqSkyB0EQM7GvukAoFx6vf7gvh3W1jbVa3o/exp3+kSYEKJy1eq2dvbGc27fvHY+4o869RprtdoT4YfciriXKushSZLhaPzzZ2fPnHwa96R4qTIflihjHD96aF/c49h6jVtYWVmnfsU/Tob9de+ud4OmNnnyvmXIR9EPzkecTk5OLl6ydLEPSxlf4snj2LBD+9xLlCpTrmJKSvL+3dtSktNZrm1paenTqLlKZWa4m5Dw8nzE6eiHfxVzL1GyjIeZmdl7vXPyCA0NDQgIOHDggI+Pj4eHh9xxAORs1HQAUC6dTjdmeL/CrkU+vXNr9PC+L+KfCyHMLSw6fdt3wNCx5ubmQojDB3YHDO0zedbS8aMGxj2JFULMWby2UfM2SUmJM6eMXrZgZuLfH2dfumyFMVPmVqnmJYQIP7Rv/sxJc5asa9TsE+PLJSYm9u/R3tzcvGHT1m8T79nTuOEDv9219Xe9XmcYKVGq7Nip86tWr2Vcm96116AyP1VMTEgY2u+bZ0/jXn+Sgk4fHDh53cLCTKfTLZ4XOG/6xGfPXp3mWqSY/8TZ3g2aZsZ7mbWMBd1wt3PnznInApDjsegFAJTuwrkzo4f37d5n8IGT19ftCPeqXX/hnKlTxg7V6/XGcwKG9vmyU/fN+88EzltRt35TnU43YlCP4FmT6zVquVSzc8v+M+MDg+OePO7i1/TGtUghRKu27VUq1dbf16R+oVPHDt+/e6dFmy/MLSzeJtjYkf33bN/Ye+CIDbuOb953euTYoHtRt3t3afs07kmaM62sbUK2Hd1x+Jzxa/uhc94Nmwkhenw/xMLCUgih+W3R5LFDK1SpFrxi07aDEdPm/mphYdmr82eH9u/MnPcxa4SGhtarV8/Hx8fY0e3s7Nq2bSt3LgA5HrPpAKB0T+OeTJv7a6vPvhRCFHItMm/Z+u++/nTF4rltv+hsvEDTq079AUPHSpJUuqyHEGLn1g0bQ1Z06dF/aMBkSVIJIUqV9ajt07hNw2oL50wdHxhcolSZ2j6N9u/e+tf9u84uhQ0LbFYt+8XaJs/nHbq9TarExITD+3eVKV+pz6BRKpVKCFG6XEXbAvZHD+559PCv/LZ2qU82MzP7sETpfx6bkBAwrM+hfTt/HDnx627fG0bmBU1o/onv1Dm/qtVqIUSJUuW8GzRt29Rr1I89t4ZG5HnrRTjZIzo6esaMGUuXLj1z5kyaQ23atDl16pRMuSAcHR3LlSsndwogE1DTAUDp3Ip+2Ky1r/GuubnFl193P7R/554dG401vVqN2sZF4UKIzetWCiFqeTc0zJ0bVahS7djRA3q9XpJUHb7pfXDfzg2a5T37DRNC3L93Z9+uLU1aflbItcjbpLKwsCz2YcmTxw736ty2xad+teo2tHdw/KTdV5+0+yrjB2q12hGDum9at7Lf4IBuvX8wxL5w9o/79+4MaDjm9s2rqU/+2LPO2lVLzv15qkZN77d7t7LJpEmT7ty5k+6hpUuXLl26NNsT4RVfX1+NRiN3CiATUNMBQOmcXQobJpiNChcpJoR4+Nc944i1tU3qE27fuiaE6Na+5evPZu/gmJKSYm5u7lWnvkshtx2b1/XoM1hlZrZzy/rk5KRP/b5+y1SSJI2ZMq9np0/37dq8b9dmSZLKVajSoEmrtl92cSnk+qZH6fX6+TMmblq3snlr3+/6DTP+0+LG9UghxODvu6T7qPt3b79lqmwzbdo0Jyen1OvRjQICAvz9/eWJZfL8/PzkjgBkGmo6ACidYUlJajqtVgihymAXFL0wt7AYO2WetXWeNEcsLC0M26dYWlo1+8R3yfygK5EXSpYuv/X3NYUKF6les+7bBytRquz2Q2ePHty7d+fm8MMHzkecPh9xetG8wMWrtlX52Cvdh+zcsm72tLGly1UYO3V+6l1cdDqdEGLU+OkFHZ1ff1TFKh+/faps4+3tvX///jQXjwohpk+fPmjQoLx5lbVKB0COQ00HAKV7FP1Ap9OlLus3r18RQhQq/MbVKU4uhS5diPCoVLVUmYy2BfzUt+OS+UHbN601b2t+7s9TXb4bYGlp9U7Z1GrzuvWb1q3fVK/X/3UvKnj25N+WzAueM2Xe0vWvn3z2zMmh/bra2Recu2Rdvvy2qQ+5uhUTQhQrXqqOT+N3CiC718v6kydP1q1b16lTJ7mjAcjZ2OkFAJTu5vWrly9EGO/q9fqtGzUqlarum3cqrO3dSAgRsnJJ6sGkxMTPmtQY1POfzxsqWaa8R6Wqe3ds2rF5nV6vf6ePIrp14+pnTWpM9P/BcFeSJJfCbt8P+kkIEfso+vXzH9y/+303P61OOyN4lVvRD9McLVehik2evCG/LU69fY1Oq+3WvmVz74q3b11/+2CyMJR1w47phuXpcicCkONR0wFA6bTalB/6dDJcDJqcnDw3aPzeHZsaNG2dwUz5p35fF3YrumLRnMXzg5KTk4UQz589HT2877k/T5UsU954mkqlat22/ZXL55cGz/CoVDX1of/LuZDr82dPVy0P3rtjk6FbJycnL54fJIQw7LSY2vNnT3t/0+7B/bvjpv5S3SuddTX5be2atmy7c8u6wAkjEl6+MOz9EjTpp4P7djg6ORd2Lfr2wWRkLOtxcXHnzp2TOw6AnI1FLwCgdPYFHR0KOjWvW6FIseIxj6Kfxj2uXtN7/LRfUm/tkoatXYF5Szf06eo7KeDH2dPGuhR2u33zWmJCQp16jTt92zf1mc1a+06bMPLJ49jeA0e+vgg+A5aWVhOCFvTs9FnPzp/ZOzgWdPrg7u2b8fHP6zVu2aV7vzQnr121JOKPExaWlr/M+vnn0YPTHA2a/1uNWj4/jJhw6ULEL7MmL1s4262o+707t+Ljn1es8vGU2cty1meRent7Hzt27Nq1a3IHAZCzUdMBQOny5Mm3cOWW7ZtCjh7ca5Mnr3f9ZnXrNzFeP1qkWPGmrdoVKVY8zaPKlK+49cCfu7dvPHnsUGzMI+/6TWt5N6pZp7707y7u6OT8be8frkZebNHm83cNVq1G7V1HL+zYvO5cxKnnz575NGhey6ehZ00fw0vY2hVo2qqdYctIQ8g3PY+dvYPh40jXbg8L3bMt/MiBB3/dq1mnQY1aPvUaNjdT57y/qlRClJE7A4CcTkq9ChCZIiQkxM/PjzcWyKEkSZoRvLpZ6zd2yuyk1Wob1ywrhNh19GLOmlHO3Uo5qzUaja+vb7pHE0NDLQcOTF62zNwjo+t3kRUMGzKyb7ppMuzGmZv+57M2HQCAzJEYGirq1bP08RH589PRAfxHOe83iQCArHb00L64x7EZn+NVp75dAfvsSqR0iaGhlgEBln/vnp7QufO7bWwJAK+hpgMA0gqcMDLij+MZn7N2exg1/fWCLoQQdnZmbdvKmQlArkBNBwDlMjMz23ssMvtfd+32o9n/ojnLB+kWdIP+/c35CFIA/xlr0wEAeDf5hXAeNMjSx0e83tGFEAEBQpJy6FdUSEj2v58A0sVsOgAA7+apEI8GDCh17ZpYuFAkJqY93K1bdOPGr40qnbUQDoadMgAoAzUdAIB3dtfVVQwY8NLfX79ypc3SpeLMmX+O7dtnN3OmubW1nPkA5HwsegEA4D1ZOzra9Osn/vgj8cAB4ePzavT6dW1u2roZgEyo6QAA/FeW3t5i/37xd1m3WrpU7kQAcjw+hRQAAABQHGbTAQAAAMXhElIAAADgbeniYxIv7dKnZLSfk9qptIW71zs9Z8rDSG3szdRPS00HAAAA3kqmd3RdfEzynVPauHvpPM/7hsQbhYSE+Pn5segfyKEkSZoRvLpZ63ZyB4FylXJWazQaX19f40h0aKhjQIDx046Sli616NRJvoDvS5KiNBrXVN9XjuPn5yeE0LDTjkky7Pufpf/z9QnPMrejJ987m3zn1JuOsjYdAID/ytHbW+zfH/X3Ti8W7PQC5EZ6bVJmdXR9SmLipV0ZdHRqOgAAmcbVWNbj4sS5c3LHAZDJVHkc1E6l33T07Tu6Lj4m4fzWdBe6/Ovl3j0hAAB4I1dv75Rjx56pWVYK5EIW7l5mtoVeH3+njp54aZc+4en/PZOaDgBAJlObm+crU0buFACyhEUJb1Ueh9Qj79zRM1w5Y0RNBwAAAN6WpLa08mhlXP3ybuvRr4a+TUc3sy1k7laVX8kBAAAA78bC3cvM1kWX8My8UIW3fEjS1dD/u9bFzLaQRTEvySofGzICAAAA78PMvpjZW5+cfO/s/71m1NytaurST00HAAAAspA+4VnGey9KakvLMo3TLnnP+mAAkMP8cSpc7ggAgNwj+X5GO7Sm29Gp6QCQjqW/TOfDaQAAmUKf8Czl4eUMTki3o1PTASAdgcHTmrRuIncKKFd5Zw+5IwDIMVKiIzM4auFeM92OzoaMAAAAQBbK4MpRM/tiaqdSbzpKTQcAAACyhD4lURcf86ajFm5VM3gsNR0AAADIErr42DcdUjuVNuyP/ibUdAAAACC7mdm6ZHwCNR0AAADIdmaWGR+npgMAAABZQmWZ9/0fm6lJAAAAALwiWeWTrPKne0if+Czjx1LTAQAAgKxilj/9NegZfzQpNR0AAADIQuYu6X8gmj7hafK9sxk8kJoOAAAAZBXJKp/aqXS6h5LvnEp5+MbPKKWmAwAAAFnI3MVDUqe/r0vSjaOJVw7oE9JZp67O+mAAAACA6ZKs8lm4eyVeOZDuUW3szZexN83si5nZFpIs8xn3U6emAwAAAFnLzL6YuVvV5Dun3nSCNvamNvam4bZkld+qdCMWvQAAAABZzrxQhTctUk8rJZG16QAAAEA2sXD3snCv+X9PM3erKlnlo6YDAAAA2UTtVMrKo5Uqj8ObTrBwr6l2KsXadADIGcIPhcc/j/du5K1WZ/fPbb1eH3kh8taN2yVKF3cv4S5J0ns/1fNn8Uf2Hy5bsVyRYm5pDiW8TPjz1J/Pnz0vXrp4Ufei6b5KbEzs2dNnVSpVxaoVbe1s3zsGAMhLlcfByqNVysPI5Pvn9AlPUx8ydnRqOgDkDNMnzLh57ebe03vUebP15/aD+w+G9B564ugJw91KVStOmj2piHuR93gqvV4/dczUkF9DRk0aVaTz58bxlJSU4OnBS+YuefHipWGkbIWyYwPHlK1Q1nhOUlLStDHTVi1ZrdVqhRBqc/XX3b/uN6xv9v+jBQAyi9qplNqplDb2pi4+RhcfI4RQu1QwbvNCTQeAnMGzTo0PS35opjbLzhdNeJnQq2PvG1euB0zxr1ytcujeg3OnzOnZodfq7avy5c/3rs+2d/vetSvWvj4+Y8KMxXOXVK9VvefA7/Llz3dw76HgGcFd2n2zdleIa1FXQ7+fNmbaioW/feL3yZedv0hKTlo8Z8niOYvV5up+Q/tm0vcKAPIwsy9mZl8s3UPUdADIAfoP75/9L7ph9e+Xzl360f8H346+QoiSZUs6ONiPHDBK82tI197fvNNTRT+MHjt0nLWN9Yv4F6nH/7r314qFv5X1KDN/5XxLSwvDVLpzoQ+G9x2xeO6Sn34eJYS4cfXGmmWa2vVrjw0aY2ZmJoSo9FGlrn7dlv+yvGO3DvYF7TP7+wYARaCmA4BSxD+PP3Pyz5cvXhR1L1q8dHGV6p+r/FOvTT//5/moW1GvP1xtrk69eF2v19+8fuva5at58uapUKVC3nx53ymMXq/fun6LTR6bNl+0MQ42+7TZ9Ikztqzb0qVn55SUlNDdB3VabU2fmqkn108cPRH7KLaqZ9WCTgUNI1qtdvSPY8wtzLt903XmpFmpX+VU+KmkpKSmbZoZOrpBvSb1rKyt/jx5xnB356adycnJX3T63NDRDd9p+2++HPjtoBNhJ5u0avxO3xcA5BTUdACQnzZFO3/6L0vnLbW2sba0tHxw/4FdAbuufb7p2L2joaynXpu+a+vuHRt3GB8rSVJKcsr9u/ednJ1q+tRSq9V6vX6jZmPw9OA7t6KcnJ1evHjxIv5Fo+YNB/00yKWwixBi+8Yda5ateVOYZp80/bzT50/jnl48d6lU2VKpL9a0srIqX6n84X2Hox9EOzk7Rd26M3XMtPpN6wUtCFKbq4UQOzbtHNJryMc1q9VrUs/wEL1eP2/avONHji8KWXj+zwtpXqte0/pbDm/OZ/uvJTSPYx4nJyXns7BAx70AACAASURBVM1vuHvs8DELC4tKVSulPqdytcoqlepCxAVqOoBcKelGGBsyAoD8dm7ZOXfq3EE/DQqNOLD75K7QswfcS7hPDphy5uSfr588YHj/ncd2GL9Cdmny2eaztLKcMm+ytbWVEGL9qg0j+o0sWrzYvj/27j295+jFIzMWTT+073A3v29frTnR6zMIo9frhRAx0bEJLxOKFk+76YpbMTetVnv/7n1Jkjp/17nFp8337di/fMGvQojIC5Ej+o1wLuQcGBxo8ffs+O6tu+cH/eI/+acKVSq8/lo2NtbuJdwLOhb859V1+hkTZ2q12ta+rYUQWq3uwf2HBRwKpKnytgVsbe1sH/718J3fawBQvKQbYSkPLzObDgDyu3b5mhDio+ofGTpxAfsCPwb8sHf7Xhsb64wfmJycPLjXkCsXr4wJHFPNq5phU5Tg6cGOHzhOmTfZsNBFkiSfxj59BveZNGrSjk07Pvvys2ZtmjVr0yzjZ45//twwfZ5m3NzcXAjx8sVLIYSkkoaOG3ry2Kn5gfO9G9YdNfAnbYp2/Ixx+e1eTYQ/uP9gzOCxzdo0a96m+du8D3q9fsm8JTs376xSvUqrti2FEFptSnx8vLWNdeolQEIIlUqlMlMlJSW9zdMCQA6S8jAy5eFlPoUUABShjEcZIcSwPsM2rNrw4P4DvV7vUdmj37B+hvEMrFy08uCeg517dv707xXkN6/djLodVa5iuegH0Teu3jB+FXF3E0IcO3w8c5PbO9gHTAl4+fLl1206nTtzrnu/bw3/Wni1JH3wGHML86Fjh0iq/7/bul6vXzxnceC4IPcS7oHB08wtzDM3KgDkCJLlq18eMpsOAPKr37T+V92+Wrlo5cgBo4QQxUsXr9fY59MvPi1WPP1dugyuXr46e8qcOg3q9B/Wz7g05e6de0KI0N2hobtDX3/I3Tt3hRA3rt2MPH/5TU9brESx0uVKG1at6LTaNEcNS2LMLf654rNO/dqt2rbcqNnkXsL9277fGsfXLNMc2nto9rJZDgXf+GF7qS37ZXnguKDS5UrP+22ek7OTYVClUllYWOh0unTX6bBvOoDcx8zWRe1UmkUvAKAIZmZmw8cN+/TzNptCNocfDr9y8cq1y9eWB/8aGBxYr4lPug95HPO43zf989vmnzhzguHyTQNDjW7YvGHz9Ja12NnbCSEO7DowdfTUN4Xp0qtL6Z9K29rZCSEeRcekfd3Yx4ZlOcaRF/EvIk5HCCHu3Lxz+sQfNWpVF0IkJibOC5xnk8fm9zUbN2o2Gs68ffOOEGLtb2uPHznWyrd1vcY+xsyL5yyePmGGV12vwAXT8v998ajhnclnm+/h/YfJyUlq9T9LgBJeJjx/9jxv3jxv8e4CQA5j4e6li39ETQcApShboazhozdjHsWuXrJqXuD8+YHzfBp7p7mIUwiRlJg0qMcPN6/dDFoYWMChQOpDTh84Giahm7Ru8qYX8qxdY+TEEW86Wrp8GSGEvUMBxw8co25F6XQ647pwvV5/7fK1PHnzOBf6wDgybWzgjas3u/TsrFkR4j/QX7NrTX7b/DqdPjkp+fmz57u27Erz/BfPXrx49mKFjyq+egadPnB84OI5S+o1qRe0IDDNWhdJkoqXLB55ITImOta1SGHj+IP7DxITEt2Kuf2/NxUAciTLMo2p6QAgvwkjJh7ef3jNjtWGDcgdCtp369tt9bI1T58+0+v1aWq6Xqef9NPPxw4f+7zT541aNErzVCVKlyjoVPBo6NH7d+8btl802Lx2y/QJ0zt/16lj947Gfw9kwMLSosrHlfft2B91O6pIsSKGwZjomGuXr1WqVskmj41h5Mj+IyErQmrUrjFgxADnQs4TR00KHBfkP/knKyvLg+fSrroJ+XXthBETho8f7tuxnXET9IWzFi6es6Rytco/z5mU7np0zzo1tm/cHnYwzLdDO+Pg0dAwIUQZj//zXQBADiWpLbmEFADk51bM9db1WwtnLdRpdUIInVanWR4S+yi2eq3qaXY40ev1S+cvXbNsTd0GdYaOGfL6RLuVtdU3vbs8f/a8b5d+N67eMDzk+JHjP/v//Dj2sWddr7dP1fardlqtNnBcUEpKimFz96Dx01++fPllly8Mr/s49knA4NFWVlY//TzKTG32RecvKn9cee2KtaG7QyVJsniNoZqbmZkZb0deiJw7bV5Bx4JjAkcnJiTGPoo1fj15/MQQo1GLRnb2dgtnLnxw/9X2i1G37y6Zu8S5sHPljytl+B0AQA7GbDoAyO/zrz8/fuTEwlmL1izTuBR2/uveg6dxTytXqzRgeP80Z8Y9iQscH2S4DLRZzebJScmpj46eGlCvSb0O3To8evhoydylreq0divmlpyUfP/u/bz58k6aPbFkmRJvn6qWd8227T9b+9u6rr7dqnlVOxp6NOJURGu/1vWb1H81qT9q0v2o+z/4/2C41FVtrv5p0qgvW7QfPXjMRzU+Sr3E/E1+XbAiKSnpUfSj1nU/SXOoROkSG0N/N2yRPnzcsGHfD2/XqF3Lz1pqddptG7bFP4+fuWTm6/tFAkCuQU0HAPlZWFrMXDxj7459R0OPPol97OVds3rNj+s0qGNcGeJZp8aHJT80U5sJIRo1b/im53FwdDBMVw8aNaiNX5s92/dei7xmbq4uW6Fc09ZNCjoVfNMD0yWppJ8m/1SqXOmVi1f+EvRL8VLFf/T/ocO3HVRmKiHE7Zu3U5KTP+/k16HrV8aHlC5fesjowccOHzt35lxN75ppntCtmFuTVo1TLyh3cLR/08eIOhdyNt5u8VkL+4IOi2Yv0vyqUalUH1X/qMeA7h9V/+idvh0AyFkkfYafRYf3EBIS4ufnxxsL5FCSJAUGT8vg+kugvLOHRqPx9fWVO0hmk6QojcY1J39ffn5+QgiNRiN3EMjAz08IIXLT/3zWpgMAAACKQ00HAAAAFIeaDgAAACgONR0AAABQHGo6AAAAoDjUdAAAAEBxqOkAAACA4lDTAQAAAMWhpgMAAACKQ00HAAAAFIeaDgAAACgONR0AAABQHGo6AAAAoDjUdAAAAEBxqOkAAACA4lDTAQAAAMWhpgMAAACKo5Y7AAAozsDug0T3QXKnAACYNGo6AKQ1oHt7r6oV5U4B5fLrMVTuCAByP2o6AKTlVbWib6uGcqeAgvWQOwAAE8DadAAAAEBxqOkAAACA4lDTAQAAAMWhpgMAAACKQ00HAAAAFIeaDgAAACgONR0AAABQHGo6AAAAoDjUdAAAAEBxqOkAAACA4lDTAQAAAMWhpgMAAACKQ00HAAAAFIeaDgAAACgONR0AAABQHLXcAQAACqLX66/djIq4eMU2X96qFcva2eaTOxEAmChm0wEAr+h0+r4jp5Ss9WnbboMbft7r5J8XXj/nQuR1qVC1HoMnyBEQAEwIs+kAgFcuRF6fszSkkLPj8O+72NhYV6lQRu5EAGC6qOkAgFduRt3T6/U9OnzWu4uf3FkAwNSx6AUAIHQ63dETf56OuCSEuP/w0YGjpy5fu2U8Gvsk7vDxM+cvX9dqdbLGBAATwmw6AEAkp2g/6zb4QXSMEGL+8nXzl6/r3uGzXyYP12p1P89ZOiZwQWJSshCibEn3gEHd5Q4LACaB2XQAgLAwV5/dt3pxkL8QImBQ9wcRuyeP6iuE+HnO0hGT5rZoWOfE9uWHfl9YoWyJTv0C5A4LACaB2XQAgJAkydGhQP68eYQQefJYOxUsIIR4FPvk59nLSn5YZMXssdZWlkIIr6oVfbsP2bB9v9x5ASD3o6ZnFT8/LsACkLPtPXT86fP4H3t1NHR0IYSZmWpA9/bUdADIBix6yXxubm6+vr5ypwCA/+rilRtCiDTbMpYt6W6uZooHALIcP2ozn6enp0ajkTsFgPckSZLcEZQi/mWCEMLSwiL1oKWFuY2NlXyhAMBUMJsOAEifo72dEOLho9jUgy8SEuPjX8oXCgBMBTUdAJC+2tUrCyH2HDqeevD4H+dTtFr5QgGAqaCmAwDSV71K+WqVyq7asONUxEXDSOyTuBGT5sidCwBMAmvTAQDpU6vVC6aOaujXs0n7Pl+3aylJYu2WvQmJSXLnAgCTwGw6AOCNKpcvdWL7cu8aH81bFrJ0zea6nh/tXDVb7lAAYBKYTQcAvNK2RX39vZNpBt2LFF63aErqkdfPAQBkOmbTAQAAAMWhpgMAAACKQ00HAAAAFIeaDgAAACgONR0AAABQHGo6AAAAoDjUdAAAAEBxqOkAAACA4lDTAQAAAMWhpgMAAACKQ00HAAAAFIeaDgAAACgONR0AAABQHGo6AAAAoDjUdAAAAEBxqOkAAACA4lDTAQAAAMVRyx0AABQnMPi3kM175E4BADBpzKYDAAAAisNsOgCkNbD7V76tGsqdAsolFaomdwQAuR+z6QAAAIDiUNMBAAAAxaGmAwAAAIpDTQcAAAAUh5oOAAAAKA41HQAAAFAcajoAAACgONR0AAAAQHGo6QAAAIDiUNMBAAAAxaGmAwAAAIpDTQcAAAAUh5oOAAAAKA41HQAAAFAcajoAAACgONR0AAAAQHGo6QBg6qJjHvt1Hzp9wcoMzglesd6v+9Coew+yMRcAmDRqOgCYuhcvE0K27Ak/fS6Dc05FXArZsufp8/hszAUAJo2aDgAAACiOWu4AAABAKVzDw423X3p5Wbu6yhrnfURFRYWEhBhuu7m5eXp6yp0IeE/MpgMAXjl8/Ez9dt9ZFvVyqdSk26Cxt6Luv+nMhMTEFh37SYWqDR0/S6fTZ29MZKXAQOHnZ/iKCQuTO837CAsL8/tbYGCg3HGA90dNBwAIIcSJM+cbfd5bpZKG9e3iVa3iUs3mj5t9HXnt1utnJiYldeg9atveIyP6fTNhWB+VSpIjL7KAXv/PV86k0Wj0f/P19ZU7DvCfsOgFACCEENdv3Z04vPeQ3p0lSRJCrN6466veI/v7T9v66wzDiEFyckq3QePWbds3sl/X0T9+R0cHgCxCTQfE34sYhRAi9eRLuuNRUS/DwqwNt93chHHR45vGw8PFnTuvbnt5vXR1tc54PDRUPHz4tmFSj79NmNTjbxMm9biPT7yjYx4TeMeShKkqW9J9UI+Oxkb+eetGwSvW7zl4/M69B0UKOxsGtVpdz6ETV6zbNmpAt9E/9Ehd301NeLib3BGykIVI+kSIsBz+PUZFuaT5UWA6bG1F48Zyh8B/Rk0HhJ/fP7dT/6Y33fGwsBg/v1fXVPn6Co3m/4wHBv7zl4RGE+Pr65rxeECAOHDgbcOkHn+bMKnH3yZM6vEDB6K9vfOYwDtmuhsO1q/9sbn5P38pSJJUt0aV/UdOnr141VjTBwYE7jl0vIBtvl6d2plyRxdCBAZGCJFrr00sIOJjhdgTGBGcs7/HC0KInLnA/r8qX16cy2iHVeQM1HTgjYsw0x339XV9p3FjERRCCOH6f8f378+2kP8/zL/Hi2VlmH/I/Y4VMNny6Whvl2Ykb14bIcTtu38ZR/YcOl7r40pHTvw5aPT0FbPHmnJT12gK5OqVzwWEJEZpCvySk79HP78Cr/3oMAmjR5vo7xByHy4hBQAIIcTLxMQ0I8nJKUIIF6eCxpHhfb/Zt3a+T82qq37fuXFnaLZnBAATwmw6AEAIIS5G3kgz8se5y0KIMiX/+UXKV581tTA3nzVucPXmX38/YnKdGlUcCthme1JkmZw/BxseHn7n76tYoqKiXHPgvu+AETUdpi4oSAghBgyQOwcgt90Hj529dLVCmRKGu2cvXd2y+1C1SuVKuqe9jtCjTPFB33UYN33R0PGzgqeMMOWlL7lN6ks6cqbAwMCQVP/YYE9G5GgseoGpCwsz0QuMgDRsrK1aduz/2/rtFyKvL12zuemXffR6ERQw0MzM7PWTh33fpVwp9yVrNu0KDU/vyZBTRWk0xq3TXXNmx/X19TVuna4xwZXpyEWYTQcACCHEd1+3i3n85Ovvf9Lp9UII9yKFtvwaVLtG5XRPtrG2mjn2xybt+/QaNun0rt9s8+XN9rwAkMtR0wHA1BW0t9P8MqlcqQ/Ll/5waJ/Op89eKuzs+FHFsupU8+jdO3zasE51Vxcn40j92h9v/XXG02fxT+KeUdMBINNR02Hq+I0okMfG2rdVQ8Ptoq4uRV1dXj+nasWyVSuWTT0iSVITH6/syggAJoe16QAAAIDiUNMBAAAAxaGmAwAAAIpDTYep8/PLBTsFAwCA3IaaDgAAACgONR0AAABQHGo6AAAAoDjsmw5Tx77pAABAgZhNBwAAABSHmg4AAAAoDjUdAAAAUBxqOkwd+6YDAAAFoqYDAAAAikNNBwAAABSHDRlh6sqXlzsBAADAa6jpMHX+/nInAAAAeA01HQDSCjsVIXcEAICpo6YDQFpBwSuDxEq5UwAATBo1HaYuPPypEMLTM7/cQaAgcwODWzRpJXcKKFfR8i5yRwCQ+1HTYeoCA/MLITQauXMAAACkwoaMAAAAgOJQ0wEAAADFYdELTJ2XV6QQQohScgcBAAD4BzUdpm7AAAo6AABQHBa9AAAAAIpDTQcAAAAUh5oOUxceLsLD5Q4BAADwb6xNh6kLDBTsmw4AAJSG2XQAAABAcajpAAAAgOKw6AWmjn3TAQCAAlHTYerYNx0AACgQi14AAAAAxaGmAwAAAIpDTYepCwoSQUFyhwAAAPg3ajpMXViYCAuTOwQghBBib+jungO+/aJL2x9HDkhMSnz9hJjYmKA5U/cc2CVHuozo9fqLly8kJSW9zck6nW7xrwsX/7pQp9NlfTQAyKmo6QCgCA8fPew1oPvhsIPWVjZCCAtzi9fPiX0cM33utL0HdssRMCOjJ/3k1/mzpOS3qul6vX7JioVLVizU6/VZHw0Acip2egEARbgceTEhMWHZLys9P/aSO8s7++PPU2/fuVUq1ZgR4w03sjgXAORg1HSYuoEDrwghhCgpdxCYuufxz4UQboXd5A6S5SRJqle3gdwpkD57uQMAMKKmw9R5elLQIbOUlJSRY4devnpZCDFy7FBra5u+3w0oU6qsECL60cP1m9eev3jOsaDTJy0+tbayfqdn1ul0ARNH2hdw6Ndz4OHwQ3v274p9HFOjmqdvmy8sLS1Tn5mQ8HLbri3HTx+Pj39eukSZ5k1aflisuOHQ/Qf3x08ZXbpkmT7d+0mSZBg8dDR01drfKpav5PvpF6PGDbt5+8bLly8GDuvr/IFzwLBxKpXq2bOnG7asjzh3JjkluYR7yUb1G5cpVS51KiGE4cxFyxecOnPi9fD58+UfN2qSWv3q76mLly/s3Lv92vWr+fPbelX3atKgubm5+fu83ciQjZ+f8XaURuPq6ytrHMCkUdMBQGZ6vT72cczz58+EEE/inrx4+SIpKVEIcfDIgd6Dejx99tTNtUhSYuKSFQvb+3V812fef3Cfi7PLXw/ur1r7W/58+ZOSkjZt+12zYc3qxSE2NnkMp128fKFHv6637tx0sC9oZ2u7defmoLlTf/h+yHdde0uS5OzkrNVqg2ZPreRRpW4tbyFE9KPoQcP7xb+I/6HvEJ1OGxP7KCUlRa/Xxz6OtbSw1Ov1L16+8O306aXIi26uRdRq9eZtG6fNnty358ABvQZJkmRIJYTwH6oXQtx/cO/ajavGzCpJFf8y/tbtmyU+fPVPaK1W+/P0CcFL5qlUKveiH8Y+jl2xZlmZkmUXzVnmagK/fMhOYRqN4YaDEKVS9XUAsqCmA4DMzM3Ng2cu2b5763f9u82eOr9wIVchxMPoB9//2FOtNtcs21C9ag0hxNadmwcO7/cez3/i9PFHMY82rtpWqULllJSUYaN/DNmwZv3mtR0+7ySEiIt70q1P57inTxbOXtrAp5FKUkU/ejh41MCfp09wLezWqtknkiT17zVw9/6do8YN27Zut5WV1fAxgx9EP5g6Lsgw475m6fpPvmh+7ea1pfNX5M2TVwjx25rld+7e2bF+r+F3Avf+ute5x1dzgme0bdWuaJFiaeKN/NE/9d3YxzFtO3xiY20TNHGmYSp9yYqFvyye27Jp6zEjJjjYO+h0um27tvw4ckCPfl03rNqS7rW2eD9ezJ0DSsLlOzB17JsOZdJsWP0k7snQgSNqVPOUJEmSpJZNW/f+9vv3eCqdTjd5bGDlilUkSTI3N+/euacQIuLcn4ajIb+vibp3Z+SP/o3qNVFJKiGEY0Gn6T/PsbO1m7NgplarFUKULln2287f3bx9Y3bwjPUb1+7au6N18zZtP3njbGvktctOBZ1KlShtuFvIudDIwf69v+0rqaSMo754+eK7/t/eun1z6vjpFT0qG0bmLZrj5lpk2vgZDvYOhgtPWzZt3bNbn3MXz54+c+o93hC8padyBwBMHLPpMHWGTdMHDJA7B/Bvh46GqtXqNJdatmjSKnD2lHd9qgJ29uXLehjv2hewN9Rfw929oXuEEMWKuqdeeSKEKP5hydNnTj6MfuDiXEgI0a/nwINHDixaFmymNnNzLTJ25IQM9mkpV7q8Zv3qb/t2ad2sTW2vug72DnVr+dSt5ZNxTp1ONzxg8LGTYQP7/Ni8cUvD4MVL5x/FRH/S/NO796P+Fc+9hBDi/MVzcm2M45fb14TohQjw8wuRO8Z78OV3AsgtqOkAoDg6ne7Bwwd2tna2+W1Tjzs5fvCuV5EKIfLlzfemlSE6ne7+X/eEEJ93bpvuCbGPYw013crSamLAlDZftkhMSpw5eYydbYEMXrG9X8dde3fs2b9rz/5dkiSVL+vRuH5Tv0+/MDzVm2zYvHbDlnUtm7ZOfa3q9VvXhRAbt23YuG3D6w95FBud4beehQYOHOjp6SnXq2c1ZyGEn98PAwf65sDv0c2NKxaQS1DTAUCh9Hoh/r0XuSRJZupM/rmt1+vz5sk7btQkC4t0qnzqazTDjx81rIFZtzGkgXejDGbTLS0sVyxcc+ho6O79O48eP3LuwtlzF84GL5m3PHhV1crV0n3IXw/uT5g2rmypchMDppiZmf0TT6cTQnzS4tMmDZq9/ijDnLosPD09c/2sbSFPz+q5/XsElIyaDlPHvulQIJVK5eJc6M7d20/iHn/g5GwcfxL32LAhTCa+UEGHgrejblWr8rGba5EMzrxw+fy0WZPLlCpX3L341p2b129e2+7Na9OFEGZmZj516vvUqa/X6+//dW/eojnLVy2Zv2jOgllLXj/5xcsXPfp3S05OCp65OH++/KkPuRYuIoSwsrJu0aTVf/hGASDn4RJSmDpPz5JsnQ4FauDdMCUlZduurakHd+3dkekvVLeWj06nW7tRk3rwxYv4Rp/4tO34SfyLeCFEUnLSkFGDtDrtxIDJY0ZMcCzoNPZn/7v3/lksbpFqF3adTtd3cK+Bw/sa7kqSVMilcP9eA4UQMbGPXg+g1WqHBww+E3F6cP9hRdyKpjnqUdYjf37b3ft2Por512OXr1pas9HHew/szqS3AUIIISTpny8AcqOmA4AStWvzucsHLpOnT9i9b6der9fr9fsP7Zs68+dMf6H2vh0dCzrNWTDzN82vKSkpQoi4p3FD/H+IvHq5bKlyeWzyCCE2bF4Xcf7PLh26fVSpakGHgj8NGf0k7skQ/x9StCmGJ7Gxsnn+/Nn5i2eTkpMkSXJy/GDz9k2G5EKI5OTkBUt/EUK8/uGjer1++txphiXpX7b76vV4+fPbdu34bezjmO/6d70dddvwkAOH902ePuFJ3JMK5Stm+hti4mI0GqHXG774bCNAXix6AQAlsrO1C565+Nu+33T7vrOLcyFJku7dv1u/boN9B/dm7gs5FnRcMGtJzwHfDh89+Oeg8R84Od+4dT05OblJg2YjfhhlmFmf9ct092If9u81yPCQlk1bb9y2Yc/+XStWL+/81TdCiOrVahw4vM+v02d2tnZhe071/W5A6OH93b7vbF/AwbGgY9TdO/Ev4hv4NOr6dfc0r37/wf1Zv0w37NlSs+HHKVpt6qOzp87zql6rT/e+MbGPfl29rG5Tz2JF3F8mvPzrwX3b/HazJs92cvwgc98NvJQ7AAAjajpMnWFTNY3m/58JZCnnD1xaNGllbf3PRi4VPSrv3nhg49YNp8+ctLK2blC3YY2PvYb8NKhCubedQpYkqV7d+oYbxkELC8sWTVpVqVjVOFKl4kf7thzauWfbidMn4p4+aeDTyKd2fcN+7UKIY6eOVSxfqVP7b/L8/amlKpVqzIjx1lbW5y+de/Ei3sYmT48uvQrY2YefOJqSkpKYlFDAzn79ik0bt204ez7iefzz+t4N69T09qpe07Ave+pUVpaWxr0XX1fAzl4IoVabjxkx4ct2HXbv33n1+hUrS6sK5Su1bNrasLMkAORWkuE3koDJoqYjDUmS5gYGc8EiMlC0vItGo8mFO71IUpRGw1qXnG70aBESIs6dkztHtst9f6GzNh0AAABQHBa9AEDOE/s4ZuTYYRmfU9ChYMCwcRnsbg4AUDJqOkxdbvrtGAAAyDWo6QCQ89gXcJgbGCx3CgBAFuKXoQAAAIDiUNMBAAAAxaGmw9T5+b3awgkAAEA5qOkAAACA4lDTAQAAAMWhpgMAAACKw4aMMHXsmw4AABSI2XQAAABAcajpAAAAgOJQ02HqwsNjwsNj5E4BAADwL6xNh6kLDHRghToAAFAaZtMBAAAAxWE2HQDSirx62b6Ag9wpAAAmjZoOU+flFSmEEKKU3EGgINPnThNimtwpAAAmjZoOUzdgAAUdac0NDG7RpJXcKaBcRcu7yB0BQO7H2nQAAABAcajpAAAAgOJQ02HqwsNFeLjcIQAAAP6NtekwdYGBgn3TAQCA0jCbDgAAACgONR0AAABQHBa9wNSxbzoAAFAgajpMHfumAwAABWLRCwAAAKA41HQAAABAcajpMHVBQSIoSO4QAAAA/0ZNh6kLCxNhYXKHAAAA+DdqOgAAAKA4w00WmwAAIABJREFU1HQAAABAcdiQEaZu4MAoIYQQrnIHAQAA+Ac1HabO05OCDgAAFIdFLwAgpydxj7fu3Hzx8oUMzgk/cXTrzs1JSUnZmOs96fX6p0/j3vLk6zeubd25+f6D+1kcCgByJGo6AMjp5u2bvQZ2X795bQbnTJ8b2Gtg9+fxz7Mx1/u4/9e9Hv27btz2+1uev+fArl4Du5+JOJ3FuQAgR6Kmw9SxbzqQWfYc2L1zz/a3P//DYsVbNGnl/IFLVoYCgJyKtekwdYZN0wcMkDsHYHoa1mvcsF5juVPgX6zlDgDAiJoOAEpx5VrktRtXy5Up71a4iCRJGZx5MfLC9RvX7AvYe35cM+MzDa7fuHYx8kLdWj558+S9ci3y6vUrpUqULu5e4vXHpqSkXLx84XbULRfnQh7lKliYWxjGn8Q9ORJ+SG2mru/d0Nzc3DCo0+kOHNr3MuFlLc/alyIvnrsQIYQ4dyFi687NtT3r2NraCSGSk5PPXzp3916Uk6OTR9kK1tY2aVJ9VLmaywcuj2Kij50MTze84QTj3djHsRHnzyQlJZUr41HYpfDbfPt4ew5BQSIkxHA7ZuBAB09PuRMBpouaDgDyS0pM/HHkAM2GNULohRC1PetMGRdUyKVwuiefOnPi6+7tra1tfg1e9ZYldc+BXeOnjglZ/vv8RbP3hu4xDFapVHX21PmuhV5tdqTX6zfv2Dhu8ugHD/8yjNgXsB/cb9gX7b6SJClv3ryr1608eOSA/7Cx33ToZjhh/ea1g4b3q1+3QdOGzafPDQw7fkQIsXrdytXrVm7R7Kxga/f7lvVjfv4pJjbGcL6lpVXXjt0GfT9ErVYbU82fvtClUYtLkRd7Deyebvhfpi9yaeQihIh7GhcwceTGLRu0Oq3h0Get2k0aM9XSwvJd3my8UZivr+GGgxClQkJe+voKajogH2o6TN3AgVeEEEKUlDsITNqqdSsL2jssmLX4f+zddVxT+xsH8GcBoxsFBASRkBYDsMDEvhbY3YnxU7GxG8G8KnYDxhUbCwvUa2OLomAiCEjH9vvjeOekBEV2YJ/3yz/Y2Tlnz6YPfvbd93ynX9XgUGjIjj1b+w7rGXrgpJKScr497z+8N2BEX2Ul5V2b91uaW5XqUSZMG6ujpfO3f6C8vPzu/TvPXzo7c97UbRt2M1n/4NHg/80Yb2luNWuKr5VFrdexr//ess7Hd3JmVubAPkP4PP4S3+Vtu7VcuXppC7eWxkbV38S9nrt4VhWdKkvmruTxeBsDtuwL2bN45fxpk2Z5dvJSU1W/F3X3fzPH29ay81u02sjQOO5t7NpNq9cHrtWratC/18B8tTnaO50/dllyy83bN6b5Tra3dWzSyJ2IMrMy+w3v9SDqXp8e/f5q21lBQfFKxCW/dStEJPJbtJrLxaVWZcA1KOj7DXxMASBtiOkg61xcENBB+vg83p4tQabVaxCRrbWdooLCus1rgo8c6N9rkORuj54+7D+8t6Ki4u7N+y1qWpb2UdTV1IN2HBIIFIiokUuTFh3dIm5GfE39qqaqlvI1ZeHyeUaGxsE7DqupqRORuZlFY9cmXXp3WLF6aZeOnupq6tUMDGdPnTtxuvfcJbM2rAqcMmtSWlraqsVrqlapypxcWUmZiJSVlLW1dIjofPjZnJyceTMX2ds4EJGZaU1rK9tOvdq9jIkuWJuKsoqKaU3xzafPnyxcPk+/qsFG/0AlRSUiOnBw3937tyeP8xk9bBzzvsKmlq1QJFrit8Crc48Gzo1+9bX/Rarl/HjSgHnqANKFmA4AIH1tWrZjMjoRcTicvj0Hbty24WTYccmYHv3qxeiJwzgczp7AA+ZmFr/wKO08OjIZnYgEAoG1lc2bs6+/fk1RU1W7EnEp8UvCwN6DmYwu3qdzh67zl/nej7rbuIEbEXXu0O3sxbATZ44NHz844sbVgX2GNHdvWdTDaahrEtGGwLVTx0+vbmzC4XB0dXSvnrnx0zo/fHw/cGTf3Nycv/03M+vAiESioycOKygo9vLqIznPp2XTVkv8Fpw+e7L8Y7q8xBzuykq7Ej1HzLOHiggxHQBA+mpZ2kje1NXWraJbNTbuTW5uLjONm4gGj+6XnJKsqKjE4/F+7VGMqhlJ3hRfCcqMXhPR7qCdx8+ESu7zNfUrEX34+G22OpfLnT9z0b93bp4PP2ttZTPFe1oxk+M7d+iy+8D2E2eOnThzrLpR9UauTZo2ad6kgbtAUNxU8vSM9OHjh3z4+H7Nig32to7Mxuzs7NexMbk5OT0GdpN8xNzcXObS29K/GL8rolIPNmsTWRB9JHop7Up+H+bZQ8WFmA6ybu5cIqI5c6RdB8i2fMmVw+HwefysrEyRSCjeqCBQGDpuxMo1y6bPnbp7835xfC85yVyeT3pGOhGZGJvoaOvmu8vRrrbk0uYqKqo62jqf4j9yOVwur7gZ4Rrqmof3HNsbsvv46dAHD+/vCdq1J2iXlqbWYt/lrVu0LfSQvLy86b5T7t6/PXzgyLat2ou35+TmZGZlKSgq1qyRf5aapbmV+IOI8mQxYYLrfxdcVk4cTk6leY6YZw8VE2I6yLqHD6VdAQDR168pkjdzcrLT0tO0tbT5/O/BeuuGXdZWNk+ePT526uje4N39eg4owwLUVNWJyLNTd8/OPYrfM2CD36MnD22t7aIePfBfv9JnwoziTqumPmLQ6BGDRn9J+hJ589qpsBOhJ/+ZNN27fh0XLU2tfDuLRKK1mwIOHzvYsqnHlPE/jNML5AXKSsoikdB/yRp5rOsCALIBl8YDAEjf3Qd3RCKR+ObDx1EJiZ8d7WpLRlUDvWpcDnfm5Dnq6hrL/BfFvYsrwwIc7RyJ6MLl85JlENGpsyeW+S9+E/eaufnv7Rubt//taO8UtOOwg61j4I6NN29/n2uuoKAgeeyJM8eWByzOzs4iIk0NzTYt2/kvXdvWo31qWmrsfyeUdP3fiID1frUsrP0Wr5Z8f8J8DmBpbvXx08f7D+9Lbn8dG7Ngme+lqxfL6GWQeRzO9z8AIG2I6QAA0ncuPOzC5XPMzylfU+YtncPn8Xt59S24p76eweRxPl9Tv86aPy0vL6+sCqhf18XczOJU2ImjJ4+Ik3ps3JvZC6YH7twkkFcgotS01CmzJ3G5vMVzlikrKS+cs5TD4UyZPTE1LZXZX0VZhYjS/rt5NfLy2k2rjxw/LH6U7OzsN3Fv5OXlJWfRMNIz0mfM89HR1tm0equaqlrBCnt79SWimfN9Er98W4VdJBKtD1y7ecfGtPS0snodIGnixLigIOaPiqurtMsBkGmY9AKyTnKZYABpsbd1GO49uEuHbmpq6sdPhb778HbyOB9Hu9qF7tyzW++jJw6fv3T2UGiIZ6fuZVKAQF7gt3h1nyE9vKeMDjkS5ORQ5+OnD8dPH/uamjJ3+oKqVaqKRKIlfguiX70YP2qStZUNEdlZ2w/uN2xD4Nolfgvmz1zM4XCq6RsS0ZpNAddvRfpMmDF66LjT505OmTXx5JljdjYOmVmZFy6de/biqffICVWr6OUrYNaC6S9ePm/Tqt3Ofduyc3Ik77K2sunRtVfLZh6D+gzZujuwRUe3tq06aGlq3bh1PeLGVa/OPVo1a10mLwIQUaqLi2HlmI8OUPEhpgMASJOKsopLPdfB/YYpKSoHH9kf9ySuZbNW7Vv/Vbd2PfGMF2srG5FIKPffNaN8Pn/FAv8Z831Onz3h0bxNoWPP+ejrGbjUc9XS1JbcaG5m4VLPVXz1qr2Nw/ljl46eOHLvwd3r/0YoK6v07dG/XesO1pY2RHQv6m70q2ivzj1GDx0nPsP4UZM+xX+KfhV9L+quo11tW2u7ZfNWhl048zU1Jf7zJ0tzq1OHzh0KPRj16P6NW9cVFBSaNHSfN2ORSz3XglWpq6m71HP98iXxy5fEfMVra2kTEZfDne0zr3XLtmcvhD1/+Sz61QsDPYP1fpvatGyH7zYCgEqJk28aIgCAjONwOOv9NrXz6CDtQoC9qtvoBwUFeVa+UWcOJy4oqBKOplfW51WEuXMpOJiioqRdR7nz8qJK9iE5RiAAAAAAAFgHk15A1lW+N98gU8KvXBBfwVmUhi6NmC8EBQCACgQxHQCgApu3dM6Ll8+L3+ef/Scc7RDTAQAqGMR0AIAK7FzoJWmXAAAAfwTmpgMAAAAAsA5G00HWYVY6AAAAsBBG0wEAAAAAWAcxHQAAAACAdRDTAQAAAABYBzEdZJ2X17el0wEAAADYAzEdAAAAAIB1ENMBAAAAAFgHCzKCrHN1lXYFAAAAAAUgpoOsmzBB2hUAAAAAFIBJLwAAAAAArIOYDgAAAADAOojpIOsiIykyUtpFAAAAAPwIc9NB1vn5EREFBUm7DmCTUROHSbsEAACQdYjpAAA/8PT0lHYJ7OIQF2caHX3EzU3ahbCLkZGRtEsAgEoOMR0A4AdB+GzlR3HBwYbr1/fCywIAUL4Q00HWubo+IyIiC2kXAgAAAPAdYjrIugkTENABAACAdbDSCwAAFMfQ05MuXJB2FQAAMgcxHQAAAACAdRDTQdZh3XQAAABgIcR0kHV+ft+WTgeAQqXGxyfduyftKgAAZA5iOgAAFCfp4kWN8eOlXQUAgMxBTAcAAAAAYB0syAiybuLEBCIi0pZ2IQAAAADfIaaDrHNxQUAHKI6ikRG5u0u7CgAAmYOYDgAAxdF2cSEXF2lXAQAgczA3HQAAAACAdRDTQdatWkWrVkm7CAAAAIAfIaaDrIuIoIgIaRcBwGIZcXEUHi7tKgAAZA5iOgAAFCchIoJ8faVdBQCAzEFMBwAAAABgHaz0ArJu4sTnRERkLu1CAAAAAL5DTAdZ5+KCgA5QnDwjo0fu7tbSLgMAQNYgpgMAQHGqY910AABpwNx0AAAAAADWQUwHWYd10wEAAICFENNB1mHddIDiYd10AACpQEwHAIDiYN10AACpQEwHAAAAAGAdrPQCsi4oSNoVAAAAABSAmA4AAMVRcXWNr1JFV9plAADIGsR0AAAojoahIRkaSrsKAACZg7npAAAAAACsg5gOss7Li7y8pF0EAAAAwI8Q0wEAoDgJkZE0d660qwAAkDmI6QAAUJyM2Fi6eFHaVQAAyBzEdAAAAAAA1sFKLyDrsG46AAAAsBBiOgAAFEfe1fVRlSrW0i4DAEDWIKYDAEBxqhgaVsG66QAA5Q5z0wEAAAAAWAcxHWQd1k0HAAAAFkJMBwCA4mDddAAAqUBMB5lz9CiFh5NIJCr03levctevp9xcYbnXBcAa/zUJcyvfuum5r17R+vXC3Fzp1QdQnNzoaNqxQ5iWVui9wrQ02rEjNzq63OsCKDXEdJA5Tk7ZHh7UogUnKiqHiFxdydWViCgqKqd7d6pZk09EfD5aA2RXtpMTeXiQgwOFhJBIpPjf9pyoKOrenV+zJhFx+ViBAFiKb2ZG27dzDQ1p7ty85GRmoyIRiUS0fj3X0JC2b+ebmUm7TICfQxYBmWNoKD9kCJ0/Tw4Oct27U8uWOS1b5nTvTg4OckFBVK0aDR6cJ+0aAaRJ3tCQhgyhBw/I05McHLTPnKH4eOreXc7BgYKCqFq1vMGDpV0jQHGyfH0pKYl8fXkmJsyULe0zZ8jBgUaPpqSkLF9faRdYxsLCqIhPiL+5eTP7y5fs8isIyghiOsgiH59seXkSCikoiBwc5JiALhQyd5FAwJN2gQBSlu3jQwIBEdGDBxQYSE+ekEST8Ji7ANhK4OZG7u5ExIR1IqLAQHrwgIjI3V3g5ibtAsvYtWviT7/y33XzZnb79jRlirymprx0ioPfgJgOssjQUL5t228/C4XfsgcRGRlhKB2Avg+oi+X91xdGRhhKhwqhqCHzyjeUTkTe3rmxscynXxQS8u0/tZs3qX17ql9f/vhx8vXNknaN8CsQ00FGDRjwteBGDKUDiH0fUJeEoXSoIL4PqEtydKx8Q+lEpKHBHz+emE+/PD1p+XJ6/pzq16fjx4mI3N3JzQ1tWyEhpoOMattWycjohy0YSgeQlH9AHUPpUNEUHDhPHzBASrX8cd7euRoa337OyKBsiYnoGEqvuBDTQUbJyfF8fDIkt/j4ZGAoHUBSxo8D6hkYSocKJf+AukAg6tVLmgX9SeIB9XwwlF6hIaaD7Bo8WE48oG5kRIMHy0m5IACWUZQcUDcyksNQOlQ0KZID6kOGKOvqSrOaP8zbO0s8oC7m65silWKgTCCmg+wSCPg+PqnMzz4+qQIB1oEGyO/rfwPqqT4+fAylQ0WjJh5QFwi++vhIu5w/S0NDkG9A3d2d3NzUpFYQ/DbEdJBpgwcrGBkxQ+kK0q4FgI1UmQH1KlUUMJQOFdO3AfUhQ1QNDaVdyx+Xb0AdQ+kVHYYPZU5wcLC0S2AXF5cnRHT0qJW0C2EXV1dXQxn4L61Q6JF80szMHltb1z16VNqFsIss90gJsaSV+ERnjIyczcyU2VHPH8Z1dr59+vRzIjIy0v70qVVwcK60S/oJIyMjFxcXaVfBUhxR8d9bBZUOh8NxrOOiZ4D/XaBIp0JDgoKCPD09pV2IdKBH4KcqbY9wOHFBQYZl9LzQSvBTd/+NbNzINSgoqEzO5uVFRFRGJ2MFjKbLooHDx7fp2E3aVQB7WejJ+m8G9AgUDz1SQmglKN64oT2kXQKrYW46AAAAAADrIKYDAAAAALAOYjoAAAAAAOsgpgMAAAAAsA5iOgAAAAAA6yCmAwAAlLHMe/coLEzaVQBAxYaYDgAAUGay4+JozBiFZs1y69WTdi0AULFh5VcAAIAykB0XJ79kifyWLZSZSQMG8CW/tB0AoPQQ0wEAAH7LDwGdiIjSBgxQlnZVAFDRIaYDAAD8ooIBnYjI1lapSRNplgUAlQJiOgAAQOnIEVnGxdGYMfkDOsPZOTkkJKfcq1KysVG2ti73hwWAPwUxHQAAoHS4RO9WrbKPjS387i1bNLZsKe+aiMjXl+bMkcLjAsCfgZVeAAAASieLKHflyriLF8ndvZC7fX1JJCrvPzY25f86AMAfhZgOAABQahlEhm5udOFCIWHd3z83NVVqlQFAZYGYDgAA8OsKCetJSfyDB6VcFgBUfIjpAAAAvyt/WN++XdoVAUCFh5gO8Itev3oxbmiPIyG7pV0IAEvJYI98D+vJyRQVJe1yoJIQCoXzpo+bN32cUCiUdi1QrhDTAX5RctKXU6EhTx89kHYhACwlsz1i6OaWe/36Vz7WUoOyIRKJws+dCj93SiQSSbsWKFf4JVKpPHlCpqYigYAj7UJkgrGJWcCm/aY1LaRdCABLyXKP8OXkVK2spF3FH5SdkCCfkUGGhtIuRCZwudzZiwKYH6RdixTcu0cODtIuQkoQ0ysVgSDL2lrQsSMNGJDj4CAn7XIqOQ1NrTYdu0m7CgD2Qo+Ut5iY+PBw5kdlExOl6tV/4Rxqjx6JT6Joba2iq1vobnJaWtSmDSkq0oABwrZtuXL4H+cP4nA4bs3bSLuK8hYfn7N3r9z27TR0aHEx/dGjlPj4rP8O0SWi8PB45qaursDaWq2cyv0zENMrFVNTQb9+5OtL/v5y7u7k65vl5iaQdlHFEQqFC2aO19LSHTlh2snQg1cvhhFRizZ/NWvVnsP59pnAlYthQXu2TJu74t7t62dP/mNobNrZq29105pElJ2VdebE4ZuRlzPS0xzruLTv3ENNXYM56u+AJY+i7s5csKpKVX3JR1zntyD6+RPfJWvFexbvS+LnE0eDH9z5Nzc3x8beqbNXXw1Nbeau169erFw0s5lH+07d+mRmZsyZMjojI73gGRo2ad6971Dm57y83IthJyKuXIj/9MGkRs1mrTrY164nfqYABRXaI/VcG7ft6KWgqMjsU5IeSUlOMjO3atWui4XVt9W1/0SP1Khp2dyjo6W1HXNXCXtETU3dd+laPl8OPfK7tm/XFV+6+qtfdaTm6yv+OS4oSMXTs9DdOBxOzooVcg4OdOQI18iIfHzyBg/mCVj9P86RkN3PHkdNmr6gqFZKTf06fcLQNh27mVtY7962XigUtmzzV+OmHsW30vWrF/ds/7t9p+6t2nWWfLgybCXm9wARzVzgz+Vyt28KuH0zouAZJFuJiJ48uh928p+Xz5+oqWs4N3Br2baTnJz8772E5SQuLnvJEvktW+QyM8nWlkaOLG5nX1+14OAftri7f3tv6elJQUF/stA/DzG9svH2zvX35ycl0cWL5O4uYHlYZ+bbVamq/+xpVNiJIzb2db4kfj64f7tn70Fzl6zjy8kR0ZuY6FOhIeoamiF7t1Y3NT9z/HBzjw5E9Cr62aiBXaOfPdbQ1FZVUz8SvHv18rn+m/a5NHRnhvFOhYbUc2nUd/AY8cN9SfgcuH6lta2jqpp6ScqLundrYPc2KclfDI1N+Xz+scP7169a+PfOI3XqNxTPu61mVJ2IhHl5r6KfpqeniY/lcrnpaWlvYqJNatRktsR/fD96ULe7t66rqKrpGRiePx26wX9xj37DZi8M4GMgCopQVI9sXrcicE9oNSOTEvaIlo7u6eOH1vktGD7Ox3uKL4fD+RM9cvzIgYBlc0dPnDH2f7M5HE4Je8TM3IqIQ0RJXxKG9emIHvlFkles2tr+4kkkpz7/7N2RnK0tde1KwcEUG0ujR/OWLGF5WH/66MHlC6fj3rwqqpVysrNOhYZwOJxZ4SOUVVQzMzLU1DUaN/UospUmz+FwuSY1zC+EHUuI/9iybSfxW8rSttKrF0+92jcuqpWY3wNENGO+iIg+vIt7+eKJ+NiCrZSXl7dy0Ywt6/24XG71GjWTEhP27dhoUct224FTulX0/tgLXAb+C+jymZnftsye/dN/id/juJcXEf3wc0Uni5OcKjcNDf748d9vMmG9aVMKD8+SZlnFunXj6qMHd0Mv3Ak5ee1sxJPBIycG79m6e9t6yX2OHdoXdPzqqStR1x68tbV3Sk9LHdm/8/u4N/4b90Y+fH828unBU5HKKqpjBnV7G/uaiFq166Ksonrs8AGRxHXx586EpqV+7eTVtySDc0KhcN50bw6HQs/fOXf92emrj/b9E56Rnr507pSC19orKasEHb967MJd8Z/tQad5PJ6Zea2R3tOIKDc3x3tYz4f378xZvObG448nwu9HPnzfe+Co/Ts3rQ9YXHavJVRO+Xpk7tJ1MdHPJo8dkJeXK96n+B45dTnq6r24Vu26rF+1MPzsyT/UI+dvvqhpWevvgCWxr1/m27moHlFSUl62ZjufzyeigKW+6JGKJWf2bBLPlmbCurk5rV+fl5Mj5cqK8Oxx1E9b6eTR4EEjJ168GX3twduR46dnZmYU1UrB+7YRURU9g4ZuLe/8Gxn3JkZ8klK1EhHt2LymhK1ERD6+y4tvpZ2BawLXrWjdoevV+7GnLkdde/A2YNO+uNevViycXkYvZNmLi8seM4bMzeXXrSNxRre1pW6yPW8Oo+lsFxeXFBFRum+zMzAw5HJJMklKjKynFXek9Cz021TTwpqIOFzu2P/NPhK8e2fgmt4DR4o/oWvZtrOdY10iUlFVI6LjR4Jevng6dc6ytn99e79s51h33rL1A7u33rVlrY/vci1tnSbNWp85cfjNm1fVTcyYUcljhw+oqKq1aP1XSUrKyc56ExNtaGxa09Ka2eJY18V7iq9AQTEvL6/463gy0tPGDen+JiZ6R/AZRSVlIrp26dy/16/0HTym98Bvn94pq6jOmO9359+InZtXDxg6roSfioLMkuyRHv2G3b557Z+QPfdv36xdz5XZ4ac9oqmlvdg/8PaNa4eDd7q3bPsnekTfwGia7/LbNyN+Gk3EPbLq7z1M2RnpaaGH9/foNww9QkRJcXGpEYXMaigJRSLtlBR6+DAu31SA0p6ESCUyMq7Y3bSI5GrVoocPv29iwvrmzWn+/r/86H/UT1tJU0tnwNBxHC6XR6SsrHLx7ImiWmnT6qWdvfrKycl38uxz/nTomeOHBo+a9AutRERv42LKsJU2rV1maGy6dPVWBQVFZri9TUfPV9HPNq1dPmOeH9taKStLZ+5cWrLk+wi6mLMzhYQkEGUUc3hcnGFRVzLHxVFwcPH/hMubp2fprrpGTGe7iIhUL6+yuZT+4kXq21eZyKVMzlaGjKrXYKaRMJSUVRo0aR56aN+bmJdm5t+WShBP0WOEnztJROaW1pIf/Klraikpq1y7dE4kEnE4nM5efU8eDT7xTxAznv3+XezNiEse7btoammXpCp5gUKNmpb/Xr8yakDXdp29GjZpoaWtO3TM5J8emJeXN2vyyBsRl7yn+NZzbcJsvHIxjIjsHOtIFkxE1raOjx7cefzwnnMDt5JUBbIpX49wOByPdl3+Cdlz7fI5cbYoSY8QkaWN3cP7t/9cjzRyb9XIvVXxB0r2iEf7rszGJw/vpyR/QY8wUiMiDH/zM/vYWMPfiOkMDT+/Xwx0d+8q9+37m4/+J1Spqv/TVjKuXkNJWUW8z73b14tqpUvnTsW9eWVqZtmkqYeWjm7o4f0DR0zgcrmJn+NL1UrMskjh506VVSslxH9q37nHu7jXkjubmlmmp6WysJUiI+1PnaLs7ELu2rKFtmz5+WtYxAUUFBFBERHsWoyotCtqIqZXDKX6e42KIgcHyjcvw8iIfHxo8OBcBYXIMi/vN+npV+P/uMCwoZEJEX36+E4c0xUVlSR3ePM6moiG9Gpf8GxJSYm5ublycnKujZvpGxidCj04fMwULo93+tihnJzszl79SlgVh8OZt3zDyP6dz58JPX8mlMPh1HVp3K3ngLZ/eQkECkUdJRKJ/g5YfPTg3rYdPUd4TxMPhLyKfkZEU8YOLPSo92/flLAqkE0Fe6SasQkRffrwTryl5D2ipa37h3rE2q52c48OXXsO1Dco8r/GInvkJXqkgF9eJNvWljw9f+0S0u84nISgIO2iEhBDJCIHB3rw49L4AgFNm5ZRhCJ/AAAgAElEQVTr40MKRf6qlBYtbd2ft5LSD6306cP7olqJiD7HfzI1s1RSVmnTodu+HRtfvnha06LWjYhLpWolIho0YuKl86fLsJWOHd5/7PD+gkexsJXc3K7OmDFg/HiFixfz3/WrF0KTeIY6ewQHJ3h5lfRtmxhieiU0b94PGf2/gJ4nEPDY+TdecAJJnjCPiLhcXpHHiEhOXn7+8g2Kisr57lFQVOTxeEQkECi0+ctz29+rnj97ZG5pc/zIAYNqxvUbNCl5YTUtap28/ODapXPnTodGXrl4M+LSzYhLu7as233onORYi6TTxw6uXTnf0tpu/oq/mTK+1SsUEtGshf46uoVcvmNfu17JqwIZVLBHhHl5RMTl/UqPyAvk/1CPPLx/++H921s2+G3dd0I8NplPUT0iRI+wT3FTDRghIT9kdIGAhgzJ9vGRNzRk4382RAXnkPy0lUQiUVGtRETisaROnn33bNtw4p+gcZPnRFw+X9pWqmZUvbStdDPiUjGt1L5zj5ZtOhU8ipWtlOXgoHDhAoWHZ/n6CiTDur8/eXvnamiw819Taf28nwqqHM8cvouKyj148Ntfq5ER+fgkDh6sJhDwiYr+71za3r19k5OTLZ6GLhKJHj24Kycnz8yXLZRJDfMnj+6bmlnWrvt9Dk9uTk7088dV9AzEmaZnv2G7t64L3rO1Y9deD+7eGu8zt5iB8HyEQuHn+I8kEjVp1rpJs9YikSguNmbBjPEXwo6fDA3p2mNAwUNOhYZMHjvA0tp+065/8l3db2ZR69KF07pV9Ft36Cq5PS42hkNURU+/wMkAvsvXI0T06MEdJiUXdUihPcJ8sKOiqvaHeiQxIf5w0K5l86auW7UwcO+xgocU1yPmtYgIPfLLEs+cyUtOJiIBkVpKyq+dJP6/eTICop8vNy0S0fz5334WCL4OGcLx8VExNGTzmn+fP38qbSvpGRjmZGcX2koKikrq6prMTVuHOnXqNzwSvGvQiAnh50/26Des5K0kEomSEhNycrJL3kpxsTFTxg0sppXy8vJad+gq+bYkJTnpS+JnNreSm5vgwgUKD4/39dVlwnpSEgUE8H/zY6EKDSu9VDbz5vGFQjIyonXrPjx/njNqlJZAwPY3Y7GvXx0/8v3TqedPH0ZcOd+4qUdV/WpFHdKxWy8iWrFwenbW9xVs/gnZ06GZ08JZE8VbqpvWdGve5tSxg3t3/C1QUPDsOajkVcW8fN6kdvXpE4cxIxMcDsfI2LSuSyPxWEU+4edOTRrVz6Ca8db9J6roGeS7t33nHlwud/XyuV9TksUbU5KT+nRu1rqRbfynDyUvDGRQvh5JT0vdtjFARVWtdYciF0EotEfev431bNtg8pjvbzLLtke0daq0bt/l13rE1sHJwNAYPfLLtCZO1PXy0vXyUvPyotjYXzsJc4ZvJ/kpZihdIPgyenTSixeqa9eqsP5LSeM/vi9tKzV0a1FUK3VuWTf9v68C4PF4vQeOjHsTs3nd8oTPn0rVSiKRqHuHxiVvpcSE+ME92gqFwqJayczcKuzEkX8jL0s+xNJ5U9s2sWd/K7m56V64QBcvxrm7EzOgnpRUyIsgI9ge4KBUoqLo+nVat+7D4MHaAgGr10bNZ/bkkR/fv3Vv0ebD+3dL5k4WCBQmTptfzBXuTVu2b9H6r7On/hnYo82QUZP0DYzOnQ79O2CxmrrGmEmzJPfs7NUv7MSRQ/t3tGzbSadK1ZKXZFrD3L1Fu/NnQqeOG9S15wDdKnoP7v67wX9xlar6BS/ef/jgzoQRvfhycpNnLYl+/iT6+fcrjXg8nmMdF1uHOj36Dd+7fUOfLs1Hek8zt7J++eLZOr/57+LejBjnY1DNuDSvFsgiyR5Zu3L+i2ePpsxaoq1Tpaj98/WIUfUaj6PurlkxLyU5qc+gH74spAx75PXL5+tWLeRwOD37D8+3czE9QkQ1Law1tbQHDPNeNHsSeuTX/c5M3v/EBQUZ/jcfvbjQLRLRsmVfRo/m+Phosj6dSyptK9Wu41JUK81ZskZV9funDu4t22loam/wX1zXuVGpWonL5Xq077Jx9dKStFJmZsaogV1fRT/z8V1eVCvNmO83vG+nEf07jxw/vaFbi4z09JC9W0P2bevYtVdFaSU3N8MLFyg8PM7X1zAggCuzA+qI6ZUKn//12TOFihXQicjQ2HTgcO/lC6avXDSDGd7bEXzGolZxX8/B4/H8NuzyWzxr346Nw/t+C832tevNW77BpIa55J4N3VpUqar/6eP7Ul3Nw6zVtSRgy6zJI44e3PtPyG5mo4OT80K/jQUv3o+8ciH1awoRjRrQJd9dOrpVL956KS8vmLnAT7eq3pb1K8cN7c7cpaKq9r8Zi5gFvACKka9H1DW0Zi0M6DOwuK/mK7RHtLR1F6zc2Nyjo+SeZdsj2jpVFq8KbNG6Y76di+kRItoedLpBk+Z9B49OS0tFj1QIaYmJOYcPV6yATkS6VfRGePuUqpW4RbeSZ68fhsxVVFRbtesctDuwcdOfrNBS0PCxU2NePi9JKyV+jr994xoRLfEtZOUxppUaubfauOufBTPHL5s3ldnO4XA92nWZtTCgtIVJFxPW796NJ9KVdi3SgZheqVhZqUq7hF/B4XB6DRjZsWuv2zcjlJRVatd1lZf/PnGwkXvLgE37bexr5ztKQVFp+ryV46fOfXD335TkJItadsYmNQoOwCsqKq0ODPr08d0v/N7U0NRaExiUmBD/6MGd1NSv5pY2NWpaih/C2MQsYNN+05oWRNSsVfuihigEAgGzsACfLzd6wowhIyc9fHD74/t3VfUNrO1qM4vaAhQvX484OjkLJNbQKEmPJCZ8rmZcvZaNQ8FvCy/DHjEyNrW0thevpFHCHiEi5m05j8dHj1QUytqlXrOCDYpvJWUV1YBN+7V18ifCErYSEY2eMKNhkxZ16jcobWEqqmrFtBKXy529KID5QVNLJ2BTIUu4MMQjXI3cW5689OBl9LOXz58IFBSs7Wrr6JZigJ9VHB1lNKMjpgOLqGtoNW3ZruB2YxMz46KvJVVSVnFu6F78mZ2KuEy+hJj1awtu19DUatPx23RGUzMLUzOLkpxNoKDgVK/Uv8EB0CMAZaWoVpKXF4j/xRZUklbSr2akX83olwsrqpU4HI5b8zbMz4pKSsUU+cNRXK6ZuZV4LRqoiHAJKQAAAAAA62A0HWTRykUzX796Ufw+k6YvqG5as7wqAmAX9AhAmShJKzXzaN+pW5/yqggqEsR0kCYOh+PWvHWhXzkBAOgRgDJkaW2X+rU9WgkqEMR0kCYulzt70eryf9xJ0xeU/4MC/AL0CEBZ6dStT/kPWqOV4HdgbjoAAAAAAOsgpgMAAAAAsA5iOgAAAAAA6yCmAwAAAACwDmI6AAAAAADrIKYDAAAAALAOYjoAAAAAAOsgpgMAAAAAsA5iOgAAAAAA6yCmAwAAAACwDmI6AAAAAADrIKYDAAAAALAOX9oFgBTcuRUp7RIAWA09AlAm0EpQvA/v4lRrGEm7CvZCTJdF2zf6b5d2DQBshh4BKBNoJfgpc8T0oiGmyyK/TSs9OnpIuwpgLxs9W2mXIGXoESgeeqSE0EpQvIlDJ0q7BFbD3HQAAAAAANZBTAcAAAAAYB3EdAAAAAAA1kFMBwAAAABgHcR0AAAAAADWQUwHAAAAAGAdxHQAAAAAANZBTAcAAAAAYB3EdAAAAAAA1kFMBwAAAABgHcR0AAAAAADWQUwHAAAAAGAdxHQAAAAAANZBTAcAAAAAYB3EdAAAAAAA1kFMBwAAAABgHb60CwAoP8lfkiMvR5rUNLG0tpR2LQBshB6BSi/ycmRaappbSzc+v7wjkEgkevPqzbPHz7W0Ne2c7OTl5X/nVJfPXzYxMzU2Mcp3V1pq2v3b9zPSM2rZ1tI31C/08MSExAe3H3C5XPs69uoa6r9cBvxpiOkgQ97EvJk4bNLAUQMtZyOCABQCPQKVnv+igJjomHO3z/JVyjUCfXz/cepon5vXbjI3NbU0Zy2Z6dHR49fOdvXC1dF9x8xYNMN4QHfxRmGeMHBt4Eb/TZkZmUTE4XCatGjiu3xOFb0q4n2ys7NXzlu5b9v+vLw8IuLL8fsN6+c9bVz5v2mBksCkF5Ah6hrqHh1aWVhbSLsQAJZCj0Cl59LYuVnrZjw+rzwfNDMjc1Tf0fdv3Zs0a+KRC4f9t/ira6pNHe0TeTnyF86W8Dlh1sTZQqEw3/bNazYHLF7tUMdhS1DgofOHxk4dcy382sjeozIyMpgdRCLRynkrdwfuad+1/f4T+3b+s6NR00Zb121dt2J9WTxLKHt48wQyxNjU2G+zn7SrAGAv9AhUeuOnjy//Bz28/8iTqCeT5/xvwMgBRGRey9zW0aZLs67+iwL2HqvP5ZVizFQoFC6esTj1a2q+7V8SvmxZu7V6jeprd6xRUlYiIktri9yc3PUrN4QdC+vo2ZGI3r/9cGBHUKNmjeavmsfj8YjIwclhsNeQnRt3du/npWegV9bPG34XYjpUNiKh6OWLly+fv1JSVrK2r6WppSm+S3LebWJC4s2rNws9g2F1QxsHG/HNrMysh/cffv702dLasnqN6uXyJAD+IJFI9PL5z3skNzc3PCw8Nye34BmK6pHqptXNrcxLlTkA/oScnJwnUU/exb7Trapby66WopKi+C7JuekP7z2Mex1X6Bkc6zlW1a/K/CwSiWJevo5++kJZRdmutp2KqkqpihGJRMcPHVNSVurUo5N4o341/VbtWx7ce+jli1c1Lc0iL19P/pLUwL2BqpqqeJ+b124mfk60rW1bzaiaeGNoSOjp0DPzV82f4T1D8lE+vPtgZlHDvVVTJqMzGrg3XL9yw8N7D5mYfvPajZycnB79uzMZnZn00mtQz4lDJ505FtZvWN9SPS8oB4jpUKncv31/hvfMl89fMjc5HE7Ldi3nLJ+toamRb97ty+cvJw6bVOhJvPp6MhFEmCfc/vf2jf6bxOMWjZs3nrNsjn41DDlARZWakjpmwFjxBNlieiQrM2uG98yvKV8LnqSYHqlmXG3W4pmNmzcu36cF8N2xg8eWzl6WmJDI3BQoCPoO7TN26lhm+rXk3PTg3SHBu4ILPYn/Fv+W7aoS0cvnL6eMmvr4wWNmu7xAvvfgXuOmjpMXyDNj2PN95hdVibtH047dOqSnpT97/NzEzCTfxZq2te1C9hy8ff1WTUuz6GcvFs1Y7Nmn25zlczgcDhHduXlnaI9hRtWN9p/cJz7k7Zu3S2cv7da7q1uLJvkeq5ZdrX0n9uXb+C7uHTOZjbn5/PFzHo9n62gruY+dox0R3bp+CzGdhRDTofJISU4ZN9Cby+UuW7/UytYqJflryJ6QI/uPyMnLLVu/NN/O1nbWx66ESm5J+pI0dsC43Nzc3kN6M+Mf/ov9t6zd6trEte+wvobG1SIvX/db4DfEa8ie0N0aWhrl++QAysaimYtePH1Rkh5RUFTYd2Kv5Jaf9siTqCcb/P4eO2Dc2p1rGjVtVL7PDICIKOpu1Mzxs2rZ1Vq0ZqGhseHb2LebAjYHrtlSVV+v16Ce+XYeNWlk/+H9JLfcvnHb939zbR1tGzVtyHxS5D1ofNKXpJmLZ9RxrpOcnHJo76Ft67d//pSwaPVCLpebkZFxOvRMUcUYGFUjooT4hLTUtGpGBkz+FmMWaXkb+46Iuvbuun/7gYP7DrX+q41LY+fUr6mzJszicrmL1yxSVlFm9s/NyZ05YZaGpubEWRNzcwv5mCufmOiY9SvWCxQEbTu3ZbZ8/vRZXUNdTV1NcjcNLQ01dbXYmNgSvLpQ3hDTofKIuhsV/zF+ytwp7bq0Y7bYO9m9fvk6KTEpOzs739JXSspKpjVNxTfT09Knj5uRmpK6ZvvqmpY1iejVi1c7/t7p3Mh5w571cnJyRGRmYaZTRXvi0EnbNmyfMEMKsxsBflNWVtbVC1dbd/AoSY/weLxf6BGXJi6d3Dsvnb3M5YIL1o6A8hceFp6TkzNz8QzmAx/TmqZWtla92vaOiY4puLPkEihE9PzJ8+VzV1Q1qOq/ZRUzT+bg3kOxMbEHTu8XL1Fa16UOn887tO9w5x6dnBs5V9WrejnqUlHFCBQERMR81qQhMbuMwcxOSUlKJiIFBYV5fvMGdh24aMaiA6f2r5y38tWLmEmzJkqOfO/ctPPOjTubgzarqql+SfxSzIuwdd3WKxeu3oq8paWjFbDV38TMhNmelpaupKLEl/uhMflyfDl5ufTUtLy8PPFkGGAJzCCEykNNQ52IQoOP3rt1j7kEnsfj7T66a9P+jcUvT5ubkztl1NT7t+9Pmj1R/GH9qaOnc3Nzew3qyeQPhnsrd50qOmdPnGWWsgKoWPh8vpKK8tXwa6XtkbzcvBL2iLaOdvM2zV8+f/k29u2ff0IA+alrahBR4Notr1+9FolERKSjq3Pm5unpC6cVf+DH9x9H9hmVm5PrH7iKmZUuEolOHD5Ry76W5NcIcDgcz76eRHT2xDki4vF5WjpaRf1hBsKL//9C9N8Ptes5DhkzOPpZ9IShE0P2Hmzo3rCfxEj/k6gna5ev6zu0T12XOj99Ea5evJYQn8Dj874kfjl55FTyl2Rmu1BYZCWiou4AqcJQB1Qe1ra1hnkP3b5hR692vVXUVGzsbexq29ZrUN+5YX05ebmijsrKzJo5fuaFMxfGT/fuM6SPePuTqMdEtHD6ouVzV0jun/wlOe1rWnpauuSFPgAVAo/Hm7l4xtRRPqXqEZFItH7l+pL3SEpSChG9j3tf3RSXXEN569T9r5sRN8OOhZ0JPVNFT9fa3sbByd7VzdXW0TbfnBNJb2Pfjug1MiUpZcPu9eIB7KzMrNcvX6enp3s4t5bcOS83jxl6Zz6hunfrflGn1TfQMzIx4svJMSu05LuXScaSHzoNHz886u7Dy+cu61XTW7J2sfiuD+8+Thg60bmR89ipY4t5FmKBQZs5HE5mRmbQzqCV8/2ePX62++guBUUFPl9OJGTevOTH4/FKcmYoZ4jpUHlweVzvad79R/Q/e+Lc5XOXbkb8e/3K9cA1W2wcbLYf2iZ58btYXl7e7ElzThw5OXDUwCFjh0j+ksrKzCaiIWMH6+jqFHwgBQWFP/+EAMpeQ/eGp66fPHX0dAl7hIjOHAvbFLB54MhS9AgRMRNjAMqZiqpKwBb/2JjYsONhVy9ei7gUcfHMxYAlq7v16eb739WZ+XxJ+DKsx/C3b96u2b66XoN64u1CkSgvL8/G3qb34F4Fj2KuUEqITxjYZWBRxQwcNfB/sycxiyl9/vS54OMSkZaOlnhLdnZ23JtYIvr88fPzpy+cdeoz29cuW/vm1Ruj6kY+Y3z+2zOHiEL2hNy4er2DZ8emrdwlz8w8TQVFhX7D+926cfvs8bP3bt1zbuSspq6alpqWk5PN539f+iYzIzP1a2o1o2pcLmZYsA5iOlQ2Gpoa3Xp37da7q1AovH/7waIZix7ee3j+1Pn2Xdvn21MkEm0K2Hzs4LGmHk3HT/PO9+u7mnE1IjIxM2no3rB8nwHAn6WiqlLCHmEu+ZjhPcOhjgN6BCoQIxOjQaMHDRo9KDsr+/L5K3OnzD2099Dg0YOMTY3z7ZmdlT1p+P9iomN85k/Nt0KRQCCvrqHG4XKK+a5QNXW1mYtnFHWvpY0VEWlpa+pW1Y17HScUCiWjcPTTF0RkZl6DuSkSiVbO93v1ImbgyAFBu4PnTJwTdOYAc7lnZmYmEV29eDXf+R8/ePz4wWM7J3vm6pGY6Bj9avqa2j9Mgjc0NiSilOSvRGRgaJD0JSkhPtHQ+PsKjx/ff8zKzLLEl5qxEt45QeVxcM/Btq5txSvNcblcx7oOnXt0IiLxylySzhwLW79yvYW1xeI1i/JdUkNEzo2cmXNKfkD4NvZdU8dmE4dNKvjxJQD7vX71xsuj+75t31Zt+2mPfHz/cfyQCUKhcNaSmSXsEWGecESvkR3d/vr04dMffjYAhVg0Y3HbBu3EV1jKC+Sbt2nm3spdKBQW/EogkVC0ZPbS61eud+/fvc/gPvnu5fF49RrWf3jv4fu37yW3h4Yca+7UYtemXcyb3p4Dexb1x6l+baaG2vUcX798Hffm+xrtIpHo+tUb8vLytevXZrZcvXA1eHewcyPnCTMmjJsyNvZ1rN+CVUxzLVm7+M6b25J/Ltw9T0TTF06/8+Y2s5Bi8O4Qz1Zeh/Yf/uEJikTM5DTm/Ym1vTURRVyKkNznWngEEdVvWL8sXn4oY4jpUHmYWZjFvo5bOnuZ+OsqPn/6fOTAP3Jyci6NXfPt/OLpixneM6rqVV2zbXWhs8zdW7lZ21ufORbmvyggMyOT+X7mySMnf/rwqX6DevhwECoifQO91K+pOzftKkmPpH5N9R7k/fH9x7kr5lraWBY8W8EeycrMCliy+vL5y7pVdHWqFDITBuBPMzIxfP3y9cLpi8RL/j968PjCqQtV9auKFzxhiESi7X9vP7DjQJPmjX3mTeVwC5kPM2BEf6FQOG6g96sXr5hDbly9sXTO0i+JX1ya5G+ZYnTt3S0vL89vwaqc7Bxmy7mT56+FX2vRroVuVV0i+pqS6jtlroKCwuyls3h8Xo8BPRzrOYbsDgkPC2fmr8v/iLmYhMfjycvLM8uztGjbXKAg2Llxp/jqbZFIdGjfoetXbtRxqVPT0oyI6rjU0dDSCFwd+PH9t3fRcW/eblu/Ta+anvuP02aAJTDpBSoPh7oOIyYM3+D3d2uXNobGhnw+73XMGy6XO3nOZHOr/NNk928/kJGeoaSkOLT70LS0dMm7NDQ1Qs4GCwSCgC3+4wZ5B64J3B2426i6YWxMXFZW1oAR/ZnL/AEqHHmB/IJV80f0HlmSHjm079CDO1HyAvnANZuXz10ueVdRPfI29l16WrpdbbslaxfjrSxIRfd+3W9cvXnyyMmw42HGJsZZmZlvY9+pa6ivWLM839UXyUnJfgtXEdGr6Jg2DdqKAzTDvZX7vJVza5jXmOI7ecG0hR0adzQyMcrJznn/9r2KqsqStYsLtkwxGro16NqrS8ieg14vuzf1aBoXE3s69Ix+Nf3Jc/7HzCXbs2XP+7j3/5vzP+a9BF+OP3vJrJ7tes2dMs/OyU5bR/unD1HNqNrMxTN8/ze3WwvP1h09tHW1b9+4c+PqDWNT40WrFzFRXkVVZfqCadPGTu/Wslv7Lu3zhHknDp9IS01bvW11UZemgHQhpkPlweFwRk8e3bxt84tnLr568YrD4Xbp1aVF2xbiyYjqGuoeHVpZWFsQkZWNpUeHVoWeR1VNlUkYBkYG+0/uu3T20o2rNz99+Ojeyr31X62tbKzK92kBlCUnZ6eQsOATR078tEeMTIxL2yMujV3qN6zv1sKNx8fqyyAd8gL51VsDIq9ERl6+HvcmTllZydbRtlWHVsz37BKRS2PnGuY1mH+iLdu2KOo84mugewzoUc+13tmT56KfRcvJ8WvZWbfu6FHaD4s4XM7sZbMtrC0P7T20efVmLS2tjp4dxk4dyyzcnpuT++nDx+79vfoM7i0+xNLGcurcKdevXL928VqHbh3yP015eY8OrYxMjCQ3dunZxaSGydb1204dPZ2amlqjZo1h3kP7j+gv+e2n7bq009LR3rJ2S9CuIC6X61TfafiEYU71nUr1dKDccApfmAdYIzg4zsvLsAz/ljgcjt+mlcVcEANgo2cbFBTk6SmjHxqgR+Cn/nSPxAUHG3p5Ual+9dvakqcnzZnzWw/M4cQFBRmW0fNCK8FPTRw6UU1BPSgoqEzO5uVFRFRGJytjvxbn8KEkAAAAAADrIKYDAAAAALAOYjoAAAAAAOsgpgMAAAAAsA5iOgAAAAAA6yCmAwAAAACwDmI6AAAAAADrIKYDAAAAALAOYjoAAAAAAOsgpgMAAAAAsA5iOgAAAAAA6yCmAwAAAACwDmI6AAAAAADrIKYDAAAAALAOYjoAAAAAAOsgpgMAAAAAsA5iOgAAAAAA6/ClXQBIwcRhk2jYJGlXAcBe6BGAMoFWgp/y9PSUdgnshZgui8b17uVsby/tKoC9ek/1kXYJUjZhWC/XOugRKJLXcFnvkRJCK0Hx/DbtkXYJrIaYLouc7e27tmwh7SqAvXpPlXYF0uZax96zA3oEijZc2gVUEGglKF5w6Flpl8BqmJsOAAAAAMA6iOkAAAAAAKyDmA4AAAAAwDqI6QAAAAAArIOYDgAAAADAOojpAAAAAACsg5gOAAAAAMA6iOkAAAAAAKyDmA4AAAAAwDqI6QAAAAAArIOYDgAAAADAOojpAAAAAACsg5gOAAAAAMA6iOkAAAAAAKyDmA4AAAAAwDp8aRcAQESUkZkVce/e17S0msZG1mZmHA6nhAdeuHFDXUXVybrWHy4QQFaIRKLomLj7j5+rq6rUsa+loa4q7YoAKiS0Evw+jKaD9D14/rxWx45tR47q/r/Jw+fOLzSj9/WZruBU983795Ib0zMy+k6bfv3+fSJ690luql+1vLxyrLtYr9/JT11lWOhdIhH1m2bqMcyi3IsC+AmhUDRu5nLzhp27DpnSovuof+89KrjPo2cvOQZ1h09ZJI0CASqGkrQSEdk29dJz8MjKzin3AqFiwGg6SN/izYEfPif0bt+uubNzVR3tkh9498nThKTk5i4uQiG1Hm6Rk8tZ5P32T1ZaUtk5nKaDLDVU85ZOyH+XSESBB3WCz2g2qZMqneIAivbo2ct124MN9HSnjx2opKRY285K2hUBVEhoJSgTiOkgfdGxseoqKgE+U1WUlEp14JlrEWZGRjWMDEVEObklnSdTPvLyCqlHKCT/XVVnrakmErGrWgBGTNw7kUg0vE+X0QO9pF0LQAWGVoIygZjORo8exfv66jI/x8UZEpGXRJsHBUmtsD8kJzdXQSCQl5Mr1VEikehsZGRz5/p8Hi9P+LyDEKAAACAASURBVMeKKzvPXgsmrzA6fVW9uUvKuUg1aZcDUIisrBwiUlJSkHYhABUbWgnKBOams1F8fFpwcCHb4+Ko0O0V16qduxSc6j6KfvkxIUHN2VU8+zz2w4cR8+Ybt2il5uzaeviIyHv3Cx774XPC/WfPmru65OVRzdZ2r94KXr0VKNer07jft88Ws3M4m0N0PIZZVGniqOBUx6SVfR8f07tPFMVnaNzPqnE/q8u3VJw8rTVcanfxNkvP5BBRYjJv8gpDy/a2SnWc6nWvtf2I9rlIVQWnOlduq4iPfRStMHCmiWkrO8U6TnadbHxWVUtM5jF3nb+uqubs9DFB7lG0ooJTnU3B395xDZ5leuOB8roZr7cvePWHX1eAUsvKztFz8Og2dAoRTZ4XIDn7/O7DZy17jJY3djGq027m0vWZWdnSLhaA1Tr0n1BUK3UdMlnD0l21ZuOuQya/iImVdqXAdhhNZy9m1Dw4OC4iwlDyZ2nXVZaa1q/n7zN1SeCWtIwM31EjeTyehpra20+fmvQfEJ/45a9mTWvVqHHt7t02I0bq6erkO/bSrVt8Hq+hoyOHS76j300PqEZEM4e9r6KdQ0S5edR3muk/5zUbOKaO8PrE49L1B8oHwzRPXla/vu9xTeMs5iRxH+V6TDZr6ZrcplFynpCjKBAlJPFaDrV8FK3YwjW5b4eEqBeKYxZWr2uTJvnQYRFq3SfV4HGpU/Mv1Q2y7z9TXLu3auhFjbDNzwyq5JhXz1w5OdZ3vYGyYp7PkA8Na39ljhrb62OrhikaqnkJSeg7YB0+j7vIZ3Tk7Qeb9xzu3KZp88b1rc1NiejCtX/b9x2voaY6YVivzKzszXsOHzl1UdrFArDa8L5d9KvoFNpKRNSzk4d+VZ2T5681/mtITm4un4//EaBI+McB0uRoZeVoZbUpOFgkEg3t1pWZ97Jsy9aPCYn7li39q1lTZnLL6j17pvr55zv2bESEk7W1lro6h0N9OiQsCdQnomGe8Twec6/aP+c1e7RJ2Do/hssl5trNhZv0F2w0OHBKa8awbyvGvI+X9xny3nfUO/Fp524weBStuHRi7Ljen5glZ0IvqveaYibe4UsKb9AsE021vLDNz2oYfYv7YdfUuk4wG7PI+OCqaCO9nKHd4pdt1dNSzxvhFS8+0Kv1lz/5WgL8Fh6PN6hnR3U1lc17DjeoZz96gCcRZWVlj5y6mMvlXji40aKGMRFNGzewSeeh0i4WgNXat2iclZVTaCuFH9rkZGdFRL6Tho2atmTT7sNVdUuxcALIGsT0shcZmeDn91tdFx9vUsy9Xr91OUo20ZzfOf5PEwqFx8IvtW7UsGNTd2YLh8MZ07Nn8Omwfx8+FO+WlpFx+tq1qYMGFbXCenWD7LUzXns0TOb+N7GLw6F2bskLNhrkG8zu0z5B/PPnL/y9x7Vd7FPH9PwkPnF7t+Te7RK2//NtOH9XqHZ8otzmuTHijE5ELVxTOjVLOhim+SxGYGmaRQCVwtnLN55Gv548si+T0YlIT1d75ZwJHfsXWMMIAIombiWn/5Z84fF4y2Z5/3MqXNqlSV9kpMLvBRvJU5GLS9mciiUQ08tebGxGcDB5ej4jSijB7oXQ1SVPTyJyzbfdyCjP0zPi96rLJDpN1On3TvIHpWVkvHn/vle7tpL5m8fjNalbRzKmR9y7l5iU3N6tSVHnqVUjs1aNzOwczt0nis9fK8R+kL/3VCninjIRZWV/P7O6Sl5V7e8L1j5+qZCazmvolMrjfT8Vh0Pu9b6KY/r1+8pEtCRQL2BXVclH/JTIzxNyHkYrIqZDpXHz7kMicmtQR3Kjax07OXxMD1AahbaSuqqKg43FvUfPpVcXS8QS/Wa2+cbFhVxdtYkqz9eS4FftnxIUVPb/SlxcqgcFVf/Nk3A4kWyO6dk5ORmZmQVDgJLCD9fLn42INK9e3UhPr6jz5ObSsm36/jurpqTxiIjHFdlbZLg6pL15Lyjm0VNSeUSkKMi/cIyCxJbPX+SIyLx6lpLCD7tZmBARaaqx5guWAH5bWkYmEQnk5SU3CuTlsH4FQKkU2kpEpKmBVb/IxUU3KCj/uCQwENOBXZQUFNVVVZO/5v/qn5S07xdxCoXCsIiIZs71udwilyry26k3b4NBHeu0Mb0+1bZKNzXMEsiLbkYpHTilVcyj62rlElF8Yv6+SEj+vsWwajYRzRr+ro5NeumfH0BFoqulQUSfPidKbkzPzEpLy5BeUQAVT6GtRESfE3DNEhQHCzICuygI5E0NDS/cuCEUfh+rFgqF1+7cFd+M/fDh6auYlq7fJ6BxiHg8kcT+tPe4lrycMGhldM+2iVY1MgXyIiJ6FvOTIUALk0w1lbyrd1XyfhwTv3zr+1KMjlbpRHTisnq+YzcG6S7YqP8+ns/Mk5GsB6CCalTfkZlWK7nxxp2HuXn41AigFAptpa+p6fcx4wWKhZgO7MLhcDq4u11/8GDr4cMikYhZ6WX7P/9ITky/cOOmokDgbG8v3sLlkrycKC2Dm818FymHOBwSijjJqd/nmMd+kFscqF/8o2uo5vVonRD1XGlTiK7ov5h9/rrq4bOa4n08PRLVVXNX767KTFJnXLurPHWV4bYjOqrKQiLickQCOVFaBjcXYQYqsvq1beo61Np3+NSt+4+ZLYlJyTOWrJN2XQAVjLiVxEldKBT6rtwYn5gk7dKA1TDpBVhnhJfn/pMnxy5acuzipbo21nefPj1x6XJVbe2PCd8uyQ2LiKxjY6Ohqip5lLF+9qNoxWaDLF3s0/ymxA7s9HmKn1H7Ueb9/0rQ0cx5+EIx5IyWg1X6m/fyHxOK+7rTOaPehd9SnbjM6MQldWf7tGcxCofPaRjp5byM+zapXU8nd+Oc1/2nm7YYYtGxaZK1WeazGIUj5zW4HPp71msVJSER8XhkUCX76h1Vj2EW43p/+qsZfhFDhcTn8zevmNXCa6RHrzH9urXncCjk2Dl8vRFAaYlbqW2fcZ4dWphVNwyPuBV564GGumoJjgbZhdF0YB0tdfWL27aO6dnj0cvoxYFbYj982DR3Ts+2bZh7M7Oyrty+3bKBa76lGOePeetin3r/qVLwac2MLM6YXp/WTH+tq5W7YnvVueurvX4v2DA75uTfz8yNs/6NUk7LKPJfvrZG3rnAZ8O94h+/VFy8Wf9ZjMIm39f9//pMRPJy3wbYOzVLurzzSbdWXyLuqcz/2+DyLZXOzb9c2fW4ZYMU8XmWTIhzqpV27a5K+L8qRT0WAPs52ljcPLnTzdlpw47g7QdCm7g4nd63VtpFAVQ8TCv16tw6LPz60rU7hELRsV0BtW0tpV0XsBpG00H6bgcH5duipa6+/H+Tlv9vkuTGJRPGE1FqerrflMmNnZzyHWJnkXFx+1PJLUO7fR7a7XO+3W4FPxL/fHnnk0Lr0dHM9Z8a6z/1+9c4+643ICJV5e9TWOwtMrYtiCnmSdWzTb+2p/Dza2vkZt6+VcyxANLStV0z0bt/8200Na52cMtyyS0F9wEASUW10nZ/X8ktLZs4l29dUMFgNB0qGBUlpa4tW1TRLm7Bll+Wk8tp2MdqmG91ocT1n0IhRdxVVhAI9XVzijsYAAAAoOwgpgN8J8cXGVTJ2X1Me3eoNrPSTE4OZ/k2vfB/1do1SVJXwQWhAAAAUE4w6QXgB8smxj6KVhjma+KzylBfNyfmrXxaBq9J3a+rp735cTI8AAAAwB+EmA7wA1PD7H8PPDp8TvP6feX4L3IeDZLd6n1t6ZpS9DcpAQAAAJQ9xHSA/BQVRL3aJfZql//r4gAAAADKDUYIAQAAAABYBzEdAAAAAIB1ENMBAAAAAFgHMR0AAAAAgHUQ0wEAAAAAWAcxHQAAAACAdRDTAQAAAABYBzEdAAAAAIB1ENMBAAAAAFgHMR0AAAAAgHUQ0wEAAAAAWAcxHQAAAACAdfjSLgCkYPXuPQfDzkq7CoD/t3efcU0sXRyAZ5PQe5GOYAGp9oKK2LCLHfXaK/aGvSOKomLv2LuCigVRFEFEBRUUEeyNDhaQDgnJvh/2vjHS9aJZ9f/8/EA2k91D8GROZmdn2Wuj93HfS8gRgP8KqQQVC4+KaWnfVtpRsBfK9L8RJUu48tIOAgAAAADKhzL9b+TqMtTZyVHaUQB7UQZNpR2ClCFHoGLIkSpCKkHFBroskHYIrIa56QAAAAAArIMyHQAAAACAdVCmAwAAAACwDsp0AAAAAADWQZkOAAAAAMA6KNMBAAAAAFgHZToAAAAAAOugTAcAAAAAYB2U6QAAAAAArIMyHQAAAACAdVCmAwAAAACwDsp0AAAAAADWQZkOAAAAAMA6KNMBAAAAAFgHZToAAAAAAOugTAcAAAAAYB2U6fDn+/g5c6DLgs17T1TQxvvYuYEuC5JS0n9hXABsgRwBqC6L1uxYsXFvBQ1inr0e6LLA91LQLwwKflco0+HPl19Q6OsfFPEwtoI2UTHPff2DsnPzfmFcAGyBHAGoLjdu3w8Nj6qgwYdPGb7+QU9fvv2FQcHvCmU6AAAAAADroEwHAAAAAGAdnrQDAPh18vILjvhevvPgsaa66tD+3Vo0simvJU3TB05dDAwJb9LAcu6kERwO9WsjBZAOyRzp4WjfycGuvP/8yBGAClQ9lQghsc9fr9y8v7GtBVIJSsBoOvwtnr9+b9th0L4T53k8bnTcyza9x7m6bSouFpZuKRAUL1qzw2Wuh5yc7KQR/fGhCX+JEjnSfdiMNn3GJpZ1zShyBKACCclpVUwlQsiV4LvtB0zM/JKNVILSMJoOf4vHcS/XLJoyf8ooiqIIIW4bvFds8LaxqD1mcG/JZgJB8RhX92NnA5bMGLti7kR8aMLfo0SOnLpwbeiUJRPmeVw+uoXZwkCOAFTszfukqqQSIeTU+cCRM5Y3srE4u2+dirKS9EIGlkKZDn8LS7NasycMF39EThnl7Lnt4MFTl0YP6iXeKBSKJi1Yc+xswNJZ41bMmVDi8xTgz1YiRwb16uR97FzQrfuJKek1DfWYjcgRgEqZGOlVmkqEkPNXb46c4dbI1uLK8W1/c42elKTv61ttezM2JnZ21bY3qUOZDn+LDvbNZGS+/ofX1lSvW8v4+ev3BYVFigryzEZXt41BYfc11FQmjxyA+gP+NiVyhKIohxaNQu5EPnn2WlxbIEcAKtXIxqLSVLp+657n9sN8gWDq6IEaairSC1b6wsOfhodX296cnYmPT7XtTeowNx3+FjU01SUfUhSlpKjwKeNLfkGheGNQ2P3WzRpkZuXMXrGZpmlphAkgNSVyhBCirKzITLQVb0GOAFRKXbVk2V06le48eFy3lpGqstK8VVs/fMr45TGyiLOzBk2Tavnn7CztX6a6oUyHv0VBUZHkQ5qmBYJidTUVeTlZ8cZF08cEn9ndrlWTk+cDLwSGSiNMAKkpkSPMNHRCiL6OtngLcgSgUkUCfoktpVOpWUOrW+f2rpw3MTX90+wVm/ClF8qEMh3+Fs9evpN8mJdf+DYhuaahnqKignjj0H5dZWVktq2aJy8nO23xus+ZWdKIFEA6SuQIIeRR7AtCiIWZqXgLcgSgUvGJqSW2lE6lHh3tNdRVJ44c0KKxzfFzV8OjnvzyMOE3gDId/hbXb9178vy1+OHFa6FZ2bmDe3fmlJpfa2NRZ/bEYUmpHxZ4bMMIB/w9SuTIk+ev/a+HNW1gZVbLuERL5AhABSJjnlUxlWRlZLZ7zJPh8VZvPYBUgtJQpsPfQlFBvufwmcfPXXn68u2h05emL1lf39Js6uiBZTZeOG20lXmtg6cvXguN+OWRAkhHiRzp+s9Umiab3Fy5XG7pxsgRgPLIy8lWPZWaNrCaMf6fK8F3kUpQGlZ6gb/FxBEDPmd+GTFtmYimCSF2jW39DnqVtwaWooL81pVzuwyZOnmh58Nrx9VUlH95vAC/WokcqVXTwP/oJvsWDctsjBwBKE+vzm2VlRSqmEqEkCUzxx4/G4BUgtJQpsOfT1tT3WePp5V5bet6tRdMHfXwyXNDvRpN6ltxuV/PJrkM6+vYprmRvo54Swf7ZpePbsnOyfuSlYPPTfizlZkjjetb8iQG/5AjAFWxesEUVRWlZg2ty0slW4u6TLqJt6gqK/kd3BCfmIpUghJQpsOfT0lRwdnJkfnZxEjfxEi/dJsm9S2b1LeU3EJRVJd2LX9VjADShBwBqC4d2zRnfigvlXRraIrTTax5Q+vmDa1/SYDwO8HcdAAAAAAA1kGZDgAAAADAOijTAQAAAABYB2U6AAAAAADroEwHAAAAAGAdlOkAAAAAAKyDMh0AAAAAgHVQpgMAAAAAsA7KdAAAAAAA1kGZDgAAAADAOijTAQAAAABYB2U6AAAAAADroEwHAAAAAGAdlOkAAAAAAKyDMh0AAAAAgHVQpgMAAAAAsA5P2gGAFIRHxUg7BABWQ44AVAukElQsMTXduLaGtKNgL5Tpf6NN3ic2kRPSjgKAvZAjANUCqQSVMq5tIe0Q2Atl+t9o50bvHl2cpB0FsJeJtb60Q5Cy42s9+3dylHYUwF7yjZtKO4TfA7obqNhkVxdph8BqmJsOAAAAAMA6KNMBAAAAAFgHZToAAAAAAOugTAcAAAAAYB2U6QAAAAAArIMyHQAAAACAdVCmAwAAAACwDsp0AAAAAADWQZkOAAAAAMA6KNMBAAAAAFgHZToAAAAAAOugTAcAAAAAYB2U6QAAAAAArIMyHQAAAACAdVCmAwAAAACwDsp0AAAAAADW4Uk7APiLxMRGn7/sl/4hzbSm6fSJrnJyciUa5OTm3Lpz07KeVW3TOlKKsVy5ebkK8gpcLrfSljRN3wwLJoS0a9OBoqhfEh38RCKR6EJwSEBYGI/LG9u/b1Nr69JtbkVGfczM7NnWQU5WVhoxloum6aycHHVV1ao0fpuY9Oj580YWFrWNjao3hoWbt9jUrTvMqSfzmOTkkKqF9CtkZxMVFVIiVb984cTFkYJC2tiYNqtLOBjS+s1kZH4+eeb48xfPlFVURg8Za25Wr0QDprupaVTT1rqBlGIsV25errycPI9XeYWG7uaPh48e+EWioiP7D++z/4i3/9WLFwLOl/kBlJaeOtnV5cbN69IIsCLXQwKdR/Tl8/lVaSwSiZZ5LF7msVgkEv380OCn23D4yD/z5h+95H/w/Pns3Nwy23h47x06f0Fufv6vDq5CGVlZE91X7jztU8X2QRERQ+cvCIqIqN4wPmZm7vbxUVRQIIRQCYkyU6Zx7oZX7yF+EE1zzp+XmTiZSKZqVhZv4SK5jp1kps2QmTdf9p8hsr37Uk+fSTNO+E6FhYWDRw9Yt3nNxSvnT/gczS/IK92G6W5O+B6TRoAVYbqbwqLCqjRGd/PHw2g6/CL+Vy/y+UULXBePGjJWKCyuyrA0e2zfsyUxOaGKjSmKau/QgfnhJ8cFP51IJDrm768gJ3fz4AEzk5pVGd9ij+jnLw5fuLhkgksV29c2Murn6FjbqDqH0gkhtx8+IoTYN25ECOGEhHAiIoS9nKr3ED9IJOJ57/tmS3GxjOtszqNooVNPoZMTUVbiREZxvffKzJ/P9/Uh8vJSCxW+R+yzJy9ePW/ZvPV2r92KCgqysiXP3LIZuhuQ9Dt1OfBb+/z5EyGkZ5deCgoK0o7l5+JwOO6LV0s7CqgexUJhVk6uiYFB/Xrmf3xH6NjSzrGlXbXvNig8vGE9ixoaGtW+52rHuRXGeRQt7NG92G05Mw1GaGFB16olM206JzBQ1Lu3tAOEKmG6m3b27bW1tKUdy8+F7uaPhzIdfrqExPizF32fvXxKCDl4bJ+Kimr/Xs41jU0IIV+yMsPu3nof/05NTd2+ZZvv3bNIJDp0/ICqimqvHn3C7oa+ePmcw+VaW1jbNWspI/PNFGE+vyjiQfjzV88LCwuMDY3tmrXS1zNgnrofde9ORJiJsWlfp/7iOiwm9vGN0Ot1atVt16bD/iPeaempRUVF2723tGjW0qFVW0JITk52+P27b969LhYWG+obNW3UjPmNxFERQkYNHSMUCvce3l1UVFQ6eCVFpbEjXMRnFeIT3z+Iup+cmqSpodmyWes6tev+8UUh+wVFRNx5+CgnL08oFHp477WqU6efY0fmT3z/yZP7sXGFRYW2ZuYd7Vp8756j4p5euX17dN8+SgoKNyIiXsUnKCkqNrO2bm5rw/l2GvTbpKQ7j6IT09KUFRUbmJu3btRQPKJ//kZw7OvXXVq3amZjw2wRFBfvPu2TnZs7ul/fR8+en7sexMybX0W8u9nbN7G2IoSkffoUFB7xPiVFXUXFsk5t+0aNxPPpmaiYlh8zM/f4+JYZfEe7Fi0b/Dudt4jPD4t6GPv6dUFhoYmBgUPTJka6upKNCwoLr9y+PWPYMIqiOOf8OBH3CCGcGzeo+Hhh715ET48QQoqLqZgY6vUbKjOTKCmK6prRTRoTGRlmD1RcHOf2HeGA/tTbt5zox7SWlqhVK6KnSwghGRmcsDAqLZ02MBC1aknl5XGuXBV17EDXrfs1guQUzsOHVGoqkZMTmZvTTZv8u+e0NK7feZKbSwjheu+ldXVF/fpSz5/TKirC/v0lp6qLWjSn1dU4MbEo09lPKBTuP+L9ODaaEHI7IqygsMDWur5ju86EkOLi4nuRETGx0UpKyv+lu+nf2/nJ05ioR5E5udkmNU3t7dpoaX7zZYCm6YePo6KiI0t3N58zPh87fZjL5Y4aOlZZSZnZmJOTffjkwRraOt069RB3Nzv2bq2hpTNq6BgOhyMUCh8+jop7Fpv5JUNbq4aVhXVD20ZM3yHZ3XA4nIBr/i9ePS8zfnG3K9ndKCkpW1tYN2vc4vc6T/hXwR8GfrovWZkRD+5+zvhMCHkU81BWVrZjW8eaxia37tycMntCdk62sVFNflGR25olQwYO/6490zR98Ng+fT39y9cuhdy6oamhmZGZQdN0A9tGpw74KioqMc2evXg6YcbY+MT3Wpra6mpq7xPeUxS1cfXW3j36EkKsLKwXLJ/zPv6dtlYNh9ZtCSEfP30cN3VkXn7eJZ+rRUWFEQ/u5ublCoXF96Mi9HT1SKu2MXGPh48fnJWdZWxUk8fjxce/F9Gi6ZNcZ02eTVEUExUhZOSQ0UKh8FpwYEHB1ynLHIqTV5AXn/C+bm2zMcPHM/3K2s2rvQ/u4nA4tUxqf/iYnp2TPXTgcPfFHjyeTHX/NeA7vElMDHv4kC8Q0ITciowihPRz7JiTnz9k3vzrd8NVlJQMdXVex+9pbGVZVLXrFsSinj5dtce7hqaG+67dWTm56qoqnzK/EEKWTpyw2GU800YoFC3dtm3z0WMcDqdOTePPX7I+ZWba1K17dvNGEwMDQkgjS4uJK1deuhl659gRHpdLCFl/8JD7rt3jB/TX19Y+/f59zKuXhJD41NRbkVEN6pk3IVbng4NHLVrC4XBqGRmlfvyYkZVV28goYPdOUwMDcVQ6mppNrK2ycnLP3wiWjFlBXj7mxYsigcDUwIAp05+8fDlozry3SUk6mprqqipvE5Moilo+edLskSPEXzLvx8amf85wateOEMKJe0olJRFCqDdvqcwvog7taT09KjFRZtp0KiGRVlEhmhokKYknFIlq1RLs30vU1ZlX8fZ4U8nJ3MsBtJERSUsT7N1D6+lybobyFi8hRUXE2JikphIeT9irF+/UKYGJyb9lukjE3b2He+AgRdO0oSHJyeFlZdFGRvzdu4iBPpWTw4mMIkVFhBBOZBRtairq11c4eZJw8qSSf63MTJKTS2tr/Zf/S/BriESiyEf338W/Y0aIBAK+oqKSYzvy6fPHMZNHPI6N1qmhQxHqv3Q3kY/unzxzXFVFlc/nFxYVqiirHN5zoknDpkyzgoJ810UzAq75S3Y3c6bNnzh2CkVRmhqaWdlZ+494p6SmeCzzpChKRIsWuS+4GOC3Z8t+ye7mQdR9fV39kUNG5xfkj5o49F5khKaGVg3tGknJiXn5eY0bNj2y54SKsopkd0MIefg4KuxuqGTYcrJyj2OjuRxux3adahITkUjkuclD3N1kZGZkZH62MLPcv+OwkaFxtf4poHrgElL46erbNDx96FyrFq0JIdu9dp8+dK6+TcMPH9OnzZ3E48n4HPYLuxpxL+TR1nU7fc6d+oH9P3h4XyAQRIbGPAyLfXAzukVTu8dPHp27dIZ5Nivry7ipozIyP+/bfijy1uNg/9v3gh86tGq7dNXCj58+EEKUlZTXuW/gcDlLVy3My88TioSL3Oelf0x3W7iytmmdGto6pw+dq1vbTFFR6ciek8MHjxKJRMs9FhOKunruRtjViBD/27ev3zevU2+H95aExPgSscnLy58/4R/oFyz+d3z/aS6Hq6iguGnNVmYA4+CxfXsO7OzRxenBzcc3Lt26fzN6xD+jj/sc3bZnS3W8/fDjJjg7B+zaqammZmqgf23vHmaS95It267fDZ/yz+DEoGvRZ3xfXr4kw+M9fvHyB/Y/Z/2G8f37p4WGJN0IenzujJlJzT0+vuKKf/vJkxuPHO3n6Pju2tXHZ88kXA88vnbNu+TkQXPmFRYVEUJMDAzWu7o+fvHi0PkLhJB7MU/W7ttvUbvWmpkzKIqaNWL42lmzCCHDnXpe27vHqV27vPyCaR5rahkZvQq4HOVzKvHG9fVzXN8mJXns8S4dW92axpE+pyT/DerapUgg+Kd7t3+6dyeEZGZnD5g1+9OXzDObNr6/Hhhz7uybqwEd7eyWbtt+5trXq8Cv3w03NzExNTQghBQvXSwc0J8QInQZL9jnTZuZEZGI5+ZOkpIFq9z5N4P5fuf4QddFbew5795xz/lJxsMJusE/dJB/wY9/4zptY0OSk3mLlxA5OcGJ43y/s/wb10Ud2vNOffMBwjnnx9u3n27RvOjKZf7F8/zgIMGG9SQzk7dhAyGENjMTeO8mWlpES0vg4jz5mgAAIABJREFUvbt46eKy/0g0zTtwkNC0qH37H/gTwy8mIyPjvfWg69S5hJBhg0acPnRuwuhJNE0vdJsXE/d4zvT5ETce/sfu5n7UvQsnA2LCn8fee+k6dW5Obo7X1rU0TTOlvNuaZQHX/JcvcJfsbtZuXu1/9SIzg3zOtHnmdeudOnM84kE4IeS8/7mLAX4d23bq3KGrZHdzaPexbV67uFzu8dNH7kVGuC1aFXUr5tr5kEd34kYOGf0wOvJkWRe/Lpm7XLK7uXIuyNa6PiFkxmRXW6v6hJAr1y9LdjdRt2J2bNiTkBQ/YcbYMs/6gtShTAfp8PE79SXrywLXxS2a2lEURVFUz669poyf9gO7EolES+e5MXMQa2jrLJi1mJm1wjzre/50UkrikrnLO7XvwqE4TJvNa3eIRCLxNf5NGzcfP2ri+4R32723nLtw5tqNq7269+nfe2CZh+ML+PEJ740Na5rX/XeFLwM9gyXzlk8ZP53iVDJNJb8gf+LM8fEJ7708Nte3achs2bV/h7FRzQ0eW7Q0tQghCvIKyxe4W1vaHDi2Lzs76wfeEPh5PmVmHvP3r1/P3HPWTHk5OUKIgY7OMc81KoqKP7C3ds2bLZ88SVlRkRBSz9R01vDhHzIyUj5+JITkFRRsOHTY1NBg7wo3ZlY3h8Pp36nTnFEjo58/DwgLY/YwpGePVg0bLtu+41VCwkT3lRSHc2Clu3I5wXzIyPiYmdnMxlpLXY0QwuVwJg4cOG/M6HbNmjFFRgXuRkcv3LylmY3N9sWLuFwOIeToxUvxqames2b1bOvAoShCiK6W1qFV7pqqqusOHBSKRExuBoVHdLRrwS1vQcMvX0henqitg6hbt3/nmaipFY8fRwihEr65ik7Uri1ta0MIIcrKhMPhnjpNFRQUL5hPm5sRQoiSUvHSpSLmZwafzztwkNbUFKz1JDo6hBBCUaL27YUu4zlht8nHT1X8G3H8/bk+viIHB7qeeYmnTKu4ix+i+TN3ztpD/yRv378JunmtrX37KS7TuVzuf+xu1q3c2LB+I4qiZGRkpoyfZmxo/OLVc6bGTUxKOHvRp619+9HDxkp2N+pq6jv2bhUKhYQQRUWlte4buDzu8tWL375/s2LNUt0aup7uXpxycuTlmxeEkA4OHZkGcrJys6bMGTdyQuklJkugadr74K5jp4/07dl/qssM5gSXj98pye6Gw+H07Npr0ripsc+esHCNNcCkF5CasLuhPB6vvUNHyY09ujht3L7+e3eloa5palJL/FBXR48pf5mHN0KDCCGmJrXevHst+SoDfcNbd0NnTHJlHs6Y5Hrrzs39h725PK6xUc2VS1aX96EpJytXp3bd+1H3xk8f3atbH/uWDlqaWg6t2zm0bldxnEKhcJHbvHuR4a5T53bv3JPZ+Ox53KfPH3t375ucmiTZ2NrSNu5ZbNzzuJbNW33vGwI/z4O4uLyCgh5t2shITOXUr1GjVaOGgXfufu/eHBo3lrwCwdTQkBDCjJQ/efnqQ0bGoK5dEtJSJV9ibmpKCAl9ENnP0ZEptZdPnth1wqS2I0dnZGWtn+3a2NKyvMPpamvp19A+cTlATVnZuWuXJpaWMjye+9QplcaZV1AweaWHvrb2aa91Sv+/BPxK2G1m0P3F+/eSjevVMo2IeZL68aORrm7Kx49xb964TSk1jURMU1Nw6sQ3W4RCKiODEEJyv1lEj64nUZTQNCc8glZSEtm3/rpRhidydOS8fMU8ot6+o9LSRHZ2VHo6SU//+lJDQ6q4mPM4WuToWMmvTdOcCxd5HqtpDY3iOa4lF1Yn5P3Agc0q2cWP+5GvfdV16IFlj1D8vu5EhIlEIvFIDeOHuxtrSxvxQx5PRktT+8v7N8XCYkLIrbuhAoHA2sL67fu3kq+qU9vsYXTkh4/pzCT1xg2aTB43bfPODf2G9srJydm8c4eOtk55R7SqZ00IGTVx2NCBwx1atzOrY66hrrl0nluloQZc81+3aU3D+o1Xu61jJrIXFwvinj1p1dy+RHdTp1ZdQsjd+3e6d+n5vW8I/Gwo00EKRCJR+od0dTV1NVU1ye06NXQV5L97HRgVZRWZcuZwi0Si1LQUQsigUf1LP1vbtLZIJGLKcXk5+TVu6/v806OIX7R1nbu6WrmrUlAUtXr5unFTRwWFXAsKuUZRlLWlTecOXQf2HSy+Tqg0mqa3e2/x8z/bs2sv8cAGIeRt/FtCyIUAvwsBfqVflZKaXLX3AH6R1wkJhBA97ZLLR5iZmPxAma6molLeU6/i4wkhp68Gnr4aWPrZxLSvdadDkya927c/Hxzc1Np60uBBFRxOUV5+v7v7iEWLtp04ue3ESQ1VVceWdoO6du3Wxr7c0W5ChELRVI/Vb5OSgg/sM9D5t5gQiUSJ6emEkM7jJ5T5qs9fvhjp6oY+iJSXlW1Rv34FURFCqNevOXfuUi9fUimp1NOnlEBACCHk2wF+yRWi+Hzq40eiqUm+XTaKllhKkkpOJoRwIiJknct4T6j0DxWHREQirvdenvdeWldXsH0rMSgjtVV8fIizcyX7+e1Udl7l+7DjOvjUtFRCiPgCSsYPdzeyMuXewiw5JYkQsnPf9p37tpd+NiMzQ9xHTB437WpQwPOXz/o69W9nX9F8qiEDh0dFR166cmHlOjdCiJ6OXnsHx/69BjRt3LyCZQZiYqPnLJ6ppaW9Z/M+RYV/v/Tl5eVlfslEd/N7QZkOUkPTJTtiiqK41X29OU3TykrKq5Z6ypa6PaSSopLkx1zE/bvMScmzF3w7tu1U3mg6IcSsjvmNS7duh9+6HhJ49/6d2KdPYp8+8T6464j3SfGFRCUEXPPfsnOjpbnVGrf1kmvG0yIRIaR3j75dOnYr/aoGNg1/6JeGn6v0FJEKytwfI6JpQsigrl16lTUlWl/ie0JOfv7DZ08JIbGvXkU/e97UpoybpIp1aNH85WX/U1eungsKCo9+7Bt4zTfw2sAuXQ56rCzzV6Bpeu2BAycDrswZNVLy9qvMPFwVRcWtixbKypTxJdlEX58Qcj08vIGFhXr530aISMTdspV39BghhNbQoC0shGPH0Do6Mu4rK3p3aLqMj4+SbUSEEGG7tqJuZWQWLTk9prTCQt7yFdzr10Xm5oLNG/9djqaUnIp2AaxTIm1/SndDaKYEt7GyLf2s5DWaCUnx8YnxhJCwO6EfPqYzJ4HLJCcrt239rmkTZl4NCgi7G/oo5uHJM8dOnjk2Y5IrMwW/tLT01IkzxwtFou1eu/R09SXCIzRNl9fd6NTQLb0RpA5lOkgBh8PR1zNITE74kpUp+fH0JSszN7c6+z4Oh6OtpZ2QFN+0UTNjo5oVtHz6Im7DtnUW5lZ1atW5HHjp3KUzA8qZm87g8Xjt2nRo16YDTdOpaSm79u84cvLg7v079m47WLoxM7ChoaHpvfWAqso390g3MqxJCJGXV+jRhR03fIEK1TM1JYQw08clJaSmVe+BTAz0mcVV+neqZG7GzpOnElLT5o4etf3EyQnu7rcOH1Kq8NYEivLyY/r2GdO3D18gCLl/f6rHGp/AwNmjRjSoV8ZUV7+gGx57vG3NzBaOHye5ncvh1NDUfJuc3LJBfWauTml8gSAs6qGL84AKxvw44RG8o8dEZnWLPT1pUxNm8JV6VtktP2VlibY2+fCB5BcQpa/TQ6iUFPHPtA5Tc1Ciyt7AkgoKZGbM5ERGiRzaCFZ7kB+66gBYxdDAiBASn/CeSEySqvbuhhDCzF3R0NCs+PO8iF80Z/HM4mLBtAkzt3tvWew+f8+WAxXc8o+iqHpmFvXMLGZMcs0vyL9y/fIS9wV7D+12GT2p9AmB/IL8CTPHpaQlr3Pf2KJpS8mnFBUUVVXU0N38XnAJKUhHx7aOxcXFAdcuS268duNqtR/IoXU7kUh05sI390vPz89z7NXWc5MH87CoqHD+0tlCkXCN2zr3xatraOusXLucOX3JkJX7ehO79/HvnAZ2Xbl2OfOQoigDfcOZk10JIZ8zyrguTTywsXPjnhJnXQkhNpY2qqpq14MDP33++lqhSDhy4lDHXm1LLx0D0tXMxkZdRcXvRnChxKoIGVlZt6KiqvdADS0s1FVU/G+GfmAmav/fHh9f8x5OB/6/Ckr6589bj5/o2bbtiimT540ZHff6zcrde8Sjhgry39x8MSgiosnAwXt8/10NXVZGpkvr1sxK8Fk5uaVjiHr6dLzbCi11dZ8N60uX/o4t7UQi0dFL/pIbc/MLGjsP7DBmXG5+fnxKSvKHD51afVMokG9PalExMYQQUe/edC1T8QQJzv0Hlbw7HI7QrgWVn8+JCP+6USjkhISIH9FmZrSGOuf+PSJRuxNCOBcvyvboSb18yeyHlDgVIBTKLFjIiYwS9ukt8FqPGv3P4NCqrYyMjH/gReZ8KeNndDet7dpwOJzz/mcF/07cIkx306l3u/7De+fl/3u5xe79O6KfPBo3csLsafN6du19PeTa2Ytf71Eg2d2IRKLp8yZ3799JvAyLooJi/17O9W0a5Bfk8/kl12ZhroCKjnnoMmqic9+S071kZWUtzCxKdDeEkCMnD7Xq1KzMpWNA6lCmg3QM6DNIX1d/3ebV14MDaZqmaTokLNhr69pqP9AQ5+E1tHV27N163OdocXExISQrO2v+8jlv3r22t3Ng2mz33hoT93j0sHGNGzTR1tJeNn/Fl6wv85fPYa4KIoQoyivm5ua8ff+muLhYX98gJzfnuM9RJnJCiEAg2HtoDyGkxBWxzMCGy4wxaempa1d4lRjYYKiqqo0dPj4j8/PEmWMTkhKYlWS8tqy9GRasU0PX0LCab9sO/5GGqurkwYNexcdPWOGenZvLTMIeuXjJ5y9fqvdA6ioq04b88+nLl8Fz571LTmZO2V+7e3fp9h0ZWVntWzRnuvCZnmsFAsGm+XM5HM6sEcPrm5tvP3EyNDKS2Ym8rBwhJPr5i9z8fKFQaF2nTnxKiue+Ay/e/XvR57O3784FBWmpq9mYlZwEEp+S8s+ceYSQU17rahmV8f9wXP9+ulpa6w8e2nf2bLFQyCzROHnlqqdv3tqamSkrKj6IizPU0bGuU0fyVbS8PCGE8/gxKSoiIhGtr08I4YSGkvx8QggRiTiXLnGZBSIlCp3ShEOH0goKPM911Js3hJmmst6LE/f0awsFeeGI4VR+gczsOdTbt4QQQtPU/fu8TZtpGVm6dm1CCKEoWlaWZGRQb98xh+NcvMQJuy2ytSmeMIFkZZPPGV//lfVNBn4LxkY1+/Tod+9B+Kr1bnw+/+d1N+Z163Xv3DPuWeyGbWslu5uXr19YmlspKSoRQqKfPNqxd6tZHfPpE2ZRFLV8wQpNDU13z2XpH/+94ITpbuKePeEL+BRF6dTQjXseu2bjqoLCAuZz4E5E2OPYxzZWtmqq6pJHp2l6884NzBVQ82YuLPMs1oA+gyS7G5qmb94OXrd59ZesL61bOlT7GwL/HSa9gHSoq6l7bz0wfvqYcdNG6esZUBSVkprcwaFj8K0b1XugGto19m47OGnW+EUr5q3d5KGro/cu/q1AIJgwenJrO3tCSOSjB7v2b69lWnvm5NnMS3p27XUhwC8o5NqxU0dGDR1DCGnetMXN28HdB3Tq6zRgs+e29as2jps6aty0UZL3m+jYrtPYES4ljh5y68bjJ9GysnI7921btX5FiWe3e+1q2bz1VJfpnzM+HT112KGrnWnNWlnZXzIyMxrYNtrsuY3LKfc0KEjL/LFjEtPSjl7yvxhy09TQ8E1iopqycov6tvdinlTvgeaNHfMhM9Pb94x1rz61jY0LCguTP3zQUFU9utqjlqEhIeTE5QC/G8Ezhw8z1tMjhMjLyW1duKDTeJfJKz3uHj+qrqJS28hQS13NPzRU297BbfKkBePGbl+8cOKKlY2dB9apaSwQFL9LTlZVVj7ssUpTTbXE0b0OHU5IS1NVVp7ovvJLzjdzAxqY17u0Y5uulpbvpg1D5s6f6rFmybbtBjVqvE5I5AsEvdu3XzNzOnNP0zZNGst9O3xO29jQXC73tA/3tI9g/VpR1y4iv/OcB5GyXbrRZmZUSgrJzRW6jOceOkylfyA0Xe41iIYGxe4reEuWygz6hxgbk7Q0IisrcmjDuRUmbiIcNox8+sw7fkJ2wEBaX58IBNSnT7SiYvGiheT/k5JpW1vOmzeygwbThgZ8v3Pco8cIIZwnsXLdupc4oLCXU7Hb8v/0FwUpoSjKbdGqj58/Hji678JlPzk5+Z/U3VAU5bnCKy8vd9f+HSd8j4m7my4duy2es5QZWZ+31FVYLFy1dI2ioiKzYuOSuW6ui6bv2rfNbeEqcXczcGQ/dTX18KCo6RNnPYyOPHhs3wmfoyY1TbNzstPSU/X1DNav3MjlciXPD6Smp27bs5kQEvcs1r5zC0FxsWRsfXr0XTp/RV+nfo9jH4m7m4LCgrT0VDVV9W3rttescF4oSAvKdPhFGtVvIhKJFCROnde3aXj9ws0Ll/0eRkfKKyh0dHBs0azl/GWza5nWruI+KYpq79ChxEYFBYUeXZwa1W8icejGwf5hgUEBDx4+yMr+0rFdp3b2HZj12kW06Nadm507dB05ZIzS/+9ayuFw3Bd7KMgrxD2Pzc/PU1RUmjB6soa6Zvj9O4b6hoSQZo1bhFy+E3Dt0pO4mNy83A5tHdu0atuyeStmtS9xVBRF6enoVTALUENdk1nSy33x6n8GDLseEvj67StVFbW29u06tHXkcZGe0sehqB4ObZSVlMRb5GRlvd2WD+/ldOlmaPrnz8N69hjRy+liyE1DHd0yL6YsU20jo36OjrW/HaXW0dTs5+io8v9jyfB4m+fPG9u3r39o6PP37xXk5BpbWg7o3ElLXZ0QUsjnR8TEDOjUacawoeI9tKhvu2r6tHsxT27ef9CnYwc1FZXre/ce8PNL+fBRR0uTEDK4W7eWDRqcDLjy9M0bBXn5GcOH9XPsqKOpWTqqhvXq9StnycK6Nf+9Eq65jc3jc2cuBIeEP36cmZXdvU2bzq1btfn/KpORcXEuAwaUeC1tVlewayc3IIDk5hGeDJGXF+zz5lwN5EQ9JIWFIoc2QicnoqVJCguphASSnU3U1GgjI6GjI11qRF/UsQPf0oJ79hyVnEz36C7s5cQ9e45zK4yI/1hcrnC2q6hXL05ICPXuHeHyaEsLYedOpEYN8U6K586mTWpSz54RGRmSl0dbWQqZO5iWIrKyqtKfFlhAT1e/Rxen2qZfz+QoKykf3Hn05u3gazeuUhyOuLthbvpTFZIf7JLbW9u1qVvbTPxxraKscnDXseDQoBuhQSW6G0LIvah7dWub9XUaIHlytU/Pfi9ePf+U8Umyu4l4cLe4uLiIX6ihrulzxC849Mb9qIiU1GR1NY3GDZp069yD6bAko5KXkxMv9Vsas+oil8uT7G7k5eRtrRv07NpLU+PPWy7/D0FVelcL+F6+vkkDBxpV1/tavXtjknnnRm9cQQIVMLHW9/Hxcf7zFpurGoqijq/1rPTaTZAi6vVrWkWF6OhIDrfz1q3nnjrNP3Gctqjkzi//nXzjpqzLERsb4uxMlrNoyB/dDVRqsquLoqq8j49PFdpWjln0v5p2Vs1+rJzD3HQAAPjNcC5clOvWg7p3/+umvDzOzZu0miptgnP3APCHwFl1YKO37948e/m04jaKCort2nSoYK03gF/v4dNnzBWfFWhkYVHbGBcH/yciR0f61GmZVauKZ86kTU2phHjuoSNUWnrx1CmkwvUoAUooKMivdJI6uhuQFpTpwEZBN695eLlX3KamkcnNgDsVrDUL8OvtP+e3/9y5ittsXbjAxbjkpG34LnSD+sUr3XkbNsrMm//vFhWV4tmuwn8GSzs0+M1kZGZMdi159X8J6G5AWlCmAxu5jJ7kMnqStKMA+G47lizasWSRtKP4K4i6duE7dqRiY6mPn2gdHdrSkshW9RJeADFDA6P4uFRpRwFQNpTpAADwe+Lx6IYNsQwCAPypcAkpAAAAAADroEwHAAAAAGAdlOkAAAAAAKyDMh0AAAAAgHVQpgMAAAAAsA7KdAAAAAAA1kGZDgAAAADAOijTAQAAAABYB2U6AAAAAADroEwHAAAAAGAdlOkAAAAAAKyDMh0AAAAAgHV40g4ApGCyq4u0QwBgtaHzFwydL+0gAH5/6G6gUs7OztIOgb1Qpv+Nxo1wadywqbSjAPZCz4ocgYohR6oIqQQV23d4j7RDYDWU6X+jxg2b9ujiJO0oANgLOQJQLZBKULHLgZekHQKrYW46AAAAAADroEwHAAAAAGAdlOkAAAAAAKyDMh0AAAAAgHVQpgMAAAAAsA7KdAAAAAAA1kGZDgAAAADAOijTAQAAAABYB2U6AAAAAADroEwHAAAAAGAdlOkAAAAAAKyDMh0AAAAAgHVQpgMAAAAAsA7KdAAAAAAA1kGZDgAAAADAOijTAQAAAABYB2U6/FzHTh82sdaPfvKogjaDRw8wsdbPyMz4hXH9iPyC/BWeSzO/ZFaxvffBXZZN6+Tm5f7kuOD3Fv3kkYm1voeXewVtfpccEdGiC5f9/K9erGJ774O7TKz1r1y//JPjgr9CVVLJfe1ypBL8RlCmA1TV5h0bDhzdR9N0Fdvr6xk0a9KCy+H+5LgA2MLn3Knp8yZX/ausvp6BXbOWmhpaPzkugN8MUgkYPGkHAPDbKBYWf1d7p269nbr1/mnhALCOQCD4rvbIEYAyIZWAgTIdfhGhSBj79ElqWoqVhbWxYU2KosprSdP0zdsh+fl51hY2pia1qrLzJ09jMjIz2rZuV1xcHPvsSUpqsnndenVq1S19lOLi4mcvniYkxdc2rWNhbilu8CXry52IMB6X16Gto4yMDLNRJBLdDAsuKCxobWf//OWzd+/fEkKuhwRqaWh1aOvI4XCYD9O457HJKUk6NXRsLG0VFBTFx3r77s3LNy8c23Xm8XhP4h4nJCWUGXzjhk31dfXFD1NSk2PiHispKTeybaSsrFKVXx/+GK/evHzz7nWlOUIIefby6dt3bzQ1NO2ataq4JePtuzfPXj51aN1OWUn51ZuXr9++qjRH9PUMbKxsZWVkme1VyZHYpzGEkNinMZcDL9nbtVFTU680R569fMqkwKfPH+9FRpQZfIkcycjMiImL5vP5VhY2hvqGVfn14W+TlJIY+/SJnq6+jaUtj1dRqfNfUikxOeHp8zhNDa2Gto1kZWVLtCwvlWiavnk7OD8/v1H9xgb6hv/fKAq5VXYqtWhqp61Vg3lhfGL8i1fPZGVlrepZ6+rolYiq0lQyr1vPrI65+CFSif1QpsOv8Pbdm/nLZj9/+Yx5aG/XZv2qTeKPpxJ8z5+eu2RWuzYddm/aW8X9nzpz4n5UhMIyT9eFMxKT/62GGzVost1rt5GBEfOQpulLVy+sWrci/UMas6W+TUNPt3XWlraEEGVl5VNnT9y6c3P5wpVjho1jGpy7dGb2ohkdHDp2dey+eefG8Pt3CCHzlrrW0KpxNyhSVlb2vP8597XLPmd8ZtrLycmPHT5u9rT5TK8QdPPaph1eD0IfK/OUT/geO+F7rMzg92zer99JnxCSlZ3ltmbJef9zIpGIECInKzdy6Jg50+fLycpV+Z2G3xW/qGjuklk+fqcJoSvNkajoByNchigoKB71PlnFnjXo5jUPL3ffI+d3799+IzSI2VhpjmhqaM6bsXDwgKEURVU9R06dPXHq7Al/n0BbNfVKc8TDy3335n36nXo8f/lssqtLmcGXyJEL/n5CkZB5qp/TAE93L+QIiDGp5Hv+NDNBUV/PwGOZZ8e2ncpsXF2ppKmh6enm1cWxG/Ow4lSiKColNWXRinl2zVod33eayYVbd0JHTx5eZiod33favmWNt+/ezFo4TfJCL+e+gzzdvL4rlVynzp0xybXMVGrdwn7NivUmxqbf82bDT4e56fArLHCbq69rcPrQWX+fwDHDx4ffvzvc5Z/8/LzSLWPiHi9fvaRju067N++THHWrVFp66vhpo+1bOhzafezAziMdHBwfPY5a4j5fPJX87EXf6XMna6hrbPfaHXQxdJPntuSUpMGjnV+9eUkI4XF5nm7r1dXUN2xdm5AYTwhJSIpfsWapjraO54oNXC53z5b9QwcOJ4QE+4dduxAiIyPzODZ6zpKZNY1MDu8+HuwfdmTPiQY2DXfu237c52jp8GZMnh3sHyb5b637Bg6H07B+Ywf7doSQwqLCEROGXPD3m+oy46rfDZ9D53p27eV9cNf8ZbOZqh3+bCfPnrgTEbZ324Gq5MioicOVFJWO7zttWc/qu44ya+G0zxmfd2/eV5Uc2b/jSJ1aZgvc5h46vr+KObJw9lJCyMLZSx+GPbEwt/yuHGlYv3EVc2TY4BHnjl0MOHN90eylAdcvI0dAEpNKm9Zsu37h5toVXnw+f8KMsWWOLv/3VNq6bufJA75TJ8zIyc2ZtXDah4/pzLO37tysIJUIIYP7D+nY1jHiwd2TZ44zMyq9tq0rL5WaNWnB5/Mnzhr35t3rtSu8rp0PuXj6yrgRE3z9fKqYShdPX9HT1VdUUOzZtVd5qRQdG/3PaOf0D+k/9K7Dz4LRdPgVmjRssnfbQeZEuY2VrYK8/I6923zPnx45ZIxks6cv4kZOGGpVz2rHhj0K8grfdYjsnOwZk1xnTZnDjIjY2zk49mob/iA8JzdHVUU1OyfbY727sVFN38N+qqpqhBCzOub16lr0/qe750aPfdsPURRlaGC0bP4K10UzVngu3bVp37yls/Py8jat2aaro0sIUVNVk5dXIIRoqGtqamgSQoJDgwQCgfuS1fWtGxBC6tSqa2Vh02dIj7fv35QOT0/i7CQh5MWr5x7r3fV1DfZs3qeooEgIOX32ZHTMw7nTF0xxmc78Cs2b2nF5PJ9zJwf2Hdyqhf3DrIjtAAARJElEQVSPvvfwe+Bxucf3+9QyqV2VHFFQUDi295R53XrfexQ1VTWfw+fk5OSrmCNtWjr0G+rktXVtv17OaqpqleaIkqISIURJUUlLU/t7c0RZSVm5Vl3xw6rkiLWljYimPTeuQo6AmGQqmdetV8/c0nlEn43b1506eFZyvLwaU6lVC/v8/PwDR/fevXenT89+zLor5aWSU7c+2lraXC531bK1D/s7rt/q6diu09WggNinMXu3HiwvlV6+fvHi1fOJY6cMHjCUCaC+dYOXb15UJZUKiwpHTxr28eOHbV676tSqW14q1TOzGDlx6NbdGz2Wrf3R9x6qH0bT4VcYP3KieDIrRVHD/xnN4/FKLB315t3rUROGUhS1Zd2O763RGf16OYs/heXk5KwsrAsLC3Jysgkht8NvZWR+du49iPnQZFhZWNtaN7hzLywrO4vZ0tdpQPfOPYNuXp8wc2z4/Tsjhozu2K7sU6WEEHU1DULIrn3b38e/Y8Yja2jXuHPt/opFqyqOMy09dfSk4cXFgt2b9+rp6jNnSC8G+MnLKwwZOEz8K1AUNdR5OCEkMOjKD7wb8Hvp1qkHU1hUJUeO7zv9A4UFIaRHl15MYVHFHJGTk+vr1D83LzcmNprZwqocIYR0at8ZOfKVmxuhKBb9kwbJVCKENLRt1LhB08hHD8RD3dWeSoSQRvUbE0KYQ+Tm5jx8HFVeKoXdvclsMdAzWLlkTVbWlxnzp6zfurZLx24VpJKysgqPywsI9L8dHlZcXMx8Shz1PllpKgmFwgXL5ty9d2fGZNfunXtWkEr2LR1qGpsEhwbxBfwfeEPgJ8FoOvwKlvWsJR/W0KqhU0M3MSmhuLhYfHHP2CkjsrKzFBQUOT+0gqGigqKWhqbkFvEXA2ZkjhByzOfI5WuXJNukpCYXFBR8+JiurqZOCOFwOCuXrI589CA4NMjKwnrejIUVzFbs69Tv2OlDAdf8A675mxib2Ld0aO/Q0aFVOzm5iqbJ5hfkT5g5Li09dZvXrvo2DZmNfD4/PvF9sUAwePQAySMyF/sz03Lgz/ZdOcLl/uAqn8aGxpIPq5IjObk5hJC09H+n2LItR5iSBTlCCEnfuFGQlSXtKL7iE0IGDvz1xy2RShRFWVtY34sMT0pJEl9z+VNTKSUtJb8gv7xUep/wXrylR1en6yGBFy77ycnJuU6dW0Eq6evqDx004vCJA0PHDVRRVmnVwt6hdbueXZ2Yb8LloWl6u/cWP/+zfXv2n+oyg9l/ealECPn48UMRvygnJ0dLEws7sgXKdPgVSvTKFEXxuLyiokKa/jqjVF5Ofvz0iRu2rdtzYGelIwSlcXk8ilPu2aH8gnxCiGlNU+Z6eTHmDKBkeMrKKtpa2h8+pnMoDodb0ekmdTUNv+P+J84cuxx46UlczHGfo8d9jmpqaK5xW9/VsXuZLxEKhYvc5kXHPJwwehIzsMEQFAsKi4rkFRTq1jYr8RILc0vJkSH4U31XjixaMf/Y3lMVr19RJsliooTycoQZj9STWGiFbTlSz8wCOUII0e3cWdohsELpL4E8GRlCCJ9fJN4ixVQyrfl1+TIOxRFfssnlVhQDRVFuC1e2atH6zAWf23dvBd64EnjjiucmD69Vm8pLJUJIwDX/LTs3WppbuS9ZLf5CUkEqMR0ip/yeFH49lOnwK+TkZGtKDHULBPy8/DwtTS0e7+sn3YFdR60srJ+/fHb67Ikxw8aZ1KzO681VVdQIIc59Bjn3HVxxyy27Nj59HmdjZRv79MnmnRsWzFpc0W5V1SaOmTJxzJTML5kRD+5evR5w6cqF2YtmNG9ip/nt0L7kwEan9l3mzfxmDFJOVk5JUYmmRZs9t8lizYq/EjPzRKziHPG/evGE77ER/4yqxgCQI/BnKJFKhJAvWZmEEGaSN4MlqfTwcdTuAzvq1Kqbkpq8ZdeGret2VtCYw+F0deze1bE7n8+PfvIo9E7IkRMHy0slQkhMbPScxTM1NDS9tx5QVVEVb0cq/V7wnQl+Bck1pAghcc9iP2d8amjbSLIbNtAz5FCcJXOXc7jcpR6LhEJhNQbQ0LYhISQkLFjyHqIikWjjjvU7920vKChgtkQ+vL/30O6G9Rv7HPZrYNNw3+E9Dx7eF7cXr3rLCLjmv37LGmaERkNdo1unHpvXbu/epWduXm5iUnzpGMQDGxvXbJWsvZiBmXpmFukf0mPiYiS3P3vxdNU6t1t3blbfOwEsFf3kkeR/zopzRE1Nfd3m1UkpSdUYQJk5Qgi5GhSwbvOahP//l644R+Tl5SVf+705ci8y/HtzJD7xPXIEJJVIJT6fH37/rpamtrFRTfHGn5pKBvoG6mrq5aWSeGHi/Py8+ctmcyjOzo3eU1ymX756qYJUevbi6aYdXrFPnxBCZGVlmzdpMXf6gnEjJpSXSmnpqRNnjheKRDs37qlpbCL5VHmpxBfwV3u5Hzq+n5lIBiyBMh1+hU07vD59/sT8nJ2T7b52OY/LGzJweOmW+noGg/sPCb0dcvaCTzUG0LypnVkd86vXAy5eOS/+6Dzvf27rrk0hYTeYk6S5ebnzls3mcLhrlq9TUlTyWL6Woqh5y1xz83KZ9goKCoSQvP8/vBMRtt176/nLfuKj8Pn8hKQEWVlZyRkCDGZgQ1tLu8TAhhiz2uOSlQuy/z8UlJeft3TVwr2H9+SVtSof/GFuhF4PCbvB/FxpjsydviAnN2fpyoXV+G22zBxJTEpYtmrRviPecrLyVckRZSXlH86R/IL8xe4LqpIjGZn/rsJO0/TOfduRIyBJMpVomt7mvTkxKWFgv8GlVyb4SakkLyff1r59eanELFtE07TXtnUvX7+Y6jLDwtzSZdREY6OaFaRS5peMzTs3bNrpJSgWiH+15NSk8lKJubrDY+maFk1blo6wzFTae2j3noO7Ih9F/vB8ffgZMOkFfgVNTa1u/R17devN4XIvX72UkpY8d/qChraNymw8buSEEz5HPbzc7Vu1NdAzqJYA5GTlNq7ZOmzc4Bnzppw579O4QZPXb19dDrykqaHpsdSTw+HQNO25cdWbd69nTp5tZWFNCLG1qj92hMuufds9N65auWQNRVHMRMPhLv/YWNVfv2rjlPHTA29cmbfU9co1f1vrBoVFhSG3brx8/WLGpFm63y6/mJefN3ryiPyC/LZt2h85eZD/7V2grSysB/cf0qlDlzHDxh04tq/XoG7dO/fgCwRXrl9OSk4c2Hdw5w5dq+VNADarb9Ngwoyx/ZwGqKqqVZoj/wwYejHAL/hW0LlLZ5z7DKqWAErnSPqHtMuB/jm52SsWrdLV0a1KjhjqGxFCtnlvuRcVsWDW4qrnCCFk6apFr9++6ta5R6U54tirbffOTpoamvej7oXfv4McAUlMKjHrvYQ/uHvvQXizxi2mT5xVZuOfkUqEkJmTZ98MCykzlZix7dsRYYeO7bextHUZPZG57ZfL6EkL3eaWmUpTxk1v0axlV8fuV4MCuvfv1K5NB0UFxZjY6JCw4OkTZ5aZStExD+vUqvsu4d0yj2/mpJnWNB0zfHx5qWRas9aSuctwL1JWQZkOv8K29bsOHN178bJfZlZmQ9tGbotWdmrfpbzPAgM9gyku0722rl3usXjPlv3VdTlLfesGV85e331gR+jtm2F3Q3Vr6A4fPGrK+Ol6unrM3ShO+ByzMLecNHaq+CXTJ8y6Hhx4wudYp/Zd2tq379655/WQwNvht97Fv50zfb5pTdMLJwO2eW+5GxEWEhaspKTUwKbhzMmzJa97YxQVFX36/JEQcuXa5VJxEaduvQf3H8KhOMsWuDdr0mL/Ee89B3fJyMjaWNq6Tpnbx6kf94eWvoHfSz8n51FDxmzc7pWcmlRpjvB4vBWLPfr808Nj/YqObR01NapnWYYSOaKmqt68SfNxIyfaNWtZxRyxtrKZNmHmsdOHg0ODenfv26dnvyrmCCEkOSWpijlywveYn/+ZgvwCU5NaS+e5jR4+DjkCYkwq7dq/42LAedOatVynznUZPam8RX4lU6lNS4fSI9M/prZpnQpSKSs7a6HbXA6Xs2qZp3hVx369Buw/4l1mKjVt1Lxp42bb1u86eHy//5ULR04cLBYWm9U2X7lk9bBBI0sfnUmlN+9e7/DeWuKpVs1bjxk+vsxUmjRu6sQxU5hFz4A9qBJzp+C/8/VNGjjQqLre1+rdG3PB+M6N3j26OFXbHuGPY2Kt7+Pj4+zsLO1ApAM5ApX6y3OkipBKUKnJri6KqvI+PtUzzZVZArSadlbNfqycw9x0AAAAAADWQZkOAAAAAMA6mJsO7JWcktSqU7NKm104FVDelXYAf7yOTg6v376quA1yBKBSvQd3L7F2cGlIJfjFUKYDexkaGMXHpUo7CgBWu3HplrRDAPgTXDgVIO0QAErCpBcAAAAAANZBmQ4AAAAAwDoo0wEAAAAAWAdlOgAAAAAA66BMBwAAAABgHZTpAAAAAACsgzIdAAAAAIB1UKYDAAAAALAOynQAAAAAANZBmQ4AAAAAwDoo0wEAAAAAWAdlOgAAAAAA66BMBwAAAABgHZ60AwAp2Hd4z+XAS9KOAoC9kCMA1QKpBBV7GB1p72Av7SjYC2X6X8fZ2VnaIQDbOTs7GxsbSzsKqUGOQKX+8hypIqQSVMrewb5ly5bSjoK9UKb/dXx8fKQdAgCrIUcAqgVSCeA/wtx0AAAAAADWQZkOAAAAAMA6KNMBAAAAAFgHZToAAAAAAOugTAcAAAAAYB2U6QAAAAAArIMyHQAAAACAdVCmAwAAAACwDsp0AAAAAADWQZkOAAAAAMA6KNMBAAAAAFgHZToAAAAAAOugTAcAAAAAYB2U6QAAAAAArIMyHQAAAACAdVCmAwAAAACwDsp0AAAAAADWQZkOAAAAAMA6KNMBAAAAAFgHZToAAAAAAOugTAcAAAAAYB2U6QAAAAAArIMyHQAAAACAdVCmAwAAAACwDsp0AAAAAADWQZkOAAAAAMA6KNMBAAAAAFgHZToAAAAAAOugTAcAAAAAYB2U6QAAAAAArIMyHQAAAACAdVCmAwAAAACwDsp0AAAAAADWQZkOAAAAAMA6KNMBAAAAAFgHZToAAAAAAOvwpB0AVMnAgdKOAAAAAIDFIiKInZ20g6hWGE1nO2NjBWdnaQcBAAAAwG52dqRlS2kHUa0wms52dnZaPj7SDgIAAAAAfi2MpgMAAAAAsA7KdAAAAAAA1kGZDgAAAADAOijTAQAAAABYB2U6AAAAAADroEwHAAAAAGAdlOkAAAAAAKyDMh0AAAAAgHVQpgMAAAAAsA7KdAAAAAAA1kGZDgAAAADAOijTAQAAAABYB2U6AAAAAADroEwHAAAAAGAdlOkAAAAAAKyDMh0AAAAAgHVQpgMAAAAAsA7KdAAAAAAA1kGZDgAAAADAOijTAQAAAABYB2U6AAAAAADroEwHAAAAAGAdlOkAAAAAAKyDMh0AAAAAgHVQpgMAAAAAsA7KdAAAAAAA1kGZDgAAAADAOijTAQAAAABYB2U6AAAAAADroEwHAAAAAGAdlOkAAAAAAKyDMh0AAAAAgHVQpgMAAAAAsA7KdAAAAAAA1kGZDgAAAADAOijTAQAAAABYhyftAP5Yvr6fCSmQdhQAAAAAIGUREco/8CqU6T/LwIFa0g4BAAAAAH5XFE3T0o4BAAAAAAC+gbnpAAAAAACsgzIdAAAAAIB1UKYDAAAAALAOynQAAAAAANZBmQ4AAAAAwDoo0wEAAAAAWAdlOgAAAAAA66BMBwAAAABgHZTpAAAAAACsgzIdAAAAAIB1UKYDAAAAALAOynQAAAAAANZBmQ4AAAAAwDoo0wEAAAAAWOd/UF1FALok5WcAAAAASUVORK5CYII=;" vertex="1" parent="1">
          <mxGeometry x="1400" y="280" width="994" height="914" as="geometry" />
        </mxCell>
        <mxCell id="O9XKlactTY2eh3zWxzKE-1" value="" style="shape=image;verticalLabelPosition=bottom;labelBackgroundColor=default;verticalAlign=top;aspect=fixed;imageAspect=0;image=data:image/png,iVBORw0KGgoAAAANSUhEUgAAAzAAAANWCAIAAACux/4LAAAgAElEQVR4nOzdd1jTV/vH8ROGiCIiiBMURVERlTrBids6qlUTtY669151VMVaR9W6tVZtHcVFbNXiqAMEF2jViriVOsCJg70hvz/SJ01R+KEh+TLer6vXcyUnJye3ueyTT09O7q9MpVIJAAAASMdI6gIAAAAKOgIZAACAxAhkAAAAEiOQAQAASIxABgAAIDECGQAAOWD27NnDhw9PTU2VupD3OHTokEKhuHjxYhZzvLy8Ro4cmZ6ebsC68C8CGQAAOcDX19fHxyd3Bpo7d+4olcrw8PAs5ly7ds3Hx4dmWFIxkboAAAAgvX79+jVv3tzIiJ0aaRDIAACAqF27du3ataWuouAikAEAoBcxMTE+Pj4XL158+vSplZVVgwYN5HK5lZWV+lEvLy9fX9+1a9d6eXmdO3fOxcVl8ODBtra2QojQ0NDdu3ffvHnT3t6+d+/eVapUGTJkyOLFix0dHTWLBwYGHj58+P79+2XLlm3dunXHjh2zs7kVGhq6ffv2u3fv1qxZs3fv3lWrVtU85OXldfbs2Q0bNhgZGb169Wr06NEKhaJr167e3t7+/v4pKSlNmzbt1atXsWLF9PNuFXgqAACgs0aNGpUpUyYpKUl999y5c6VLlxZC2Nvbu7i4FClSRAhRtmzZ27dvqydMmzatePHiffv2LVy4cI0aNaytrV+8eKFSqbZu3Vq4cGEjIyMnJ6eSJUuamprOnj1bCHHx4kX1ExMTEwcOHCiEMDMzc3FxKVGihBCiefPmr169yqy25cuXCyGGDBlStGhRGxsbJycnIyOjQoUKrV27VjNn2rRp5cqVS01NValUjx49EkJMnjzZzc1NCGFra2tqaiqEqFatmrpI5Di+KgYAIIclJCT06dMnMTExMDDw8ePHISEhr1+/njJlyrNnzxYvXqyZFhUVdf78+Xv37t28efPBgwelSpW6fPnyyJEjK1SoEBIScufOnefPny9fvvy7777TXnzWrFnbtm0bO3ZsRERESEhIRETEhg0bLly40L9//6x/UrB169aZM2c+e/bszp07ISEhDg4OU6ZMCQoKymz+mjVrSpQo8ejRo5cvX0ZERMjl8jt37qxduzaH3iT8B4EMAIAc9vTp01atWq1cuVK9wySEKFy48Jw5cywtLW/evKk9c+LEiXZ2dkIIS0tLIcT8+fNlMtlvv/3m7OwshDA2Nh4/fvy0adM080NDQzds2NCxY8fVq1ervz00NjYeNWrUuHHjjh496uvrm0VVQ4YMmT17tnqvy9nZed++fUKIhQsXZja/dOnSe/furVChghCiePHiK1euNDU1PXPmTE68Q8iIM2QAAOQwR0fHrVu3qm+rVKqIiIjg4ODAwMDk5OSEhATtmfXr19fcjo2NPX36dI0aNWrWrKk954svvtDsq508eTIxMTEtLW3RokXac16+fCmECAgIaNu2bWZV9evXT/uui4uLk5NTUFBQQkKCubn5u/NdXV21T4xZWloWLVo0MTEx228DPgCBDACAnPfs2bNly5b5+fndunUrOTlZCGFjY5OWlpZhmnq/Si06OjoqKkp9JkybevNM7cWLF0KIY8eOHTt27N0XjYyMzKIk9S8GNGQyWdGiRV+9ehUfH//eQMb5fUMikAEAkMPCwsLc3d2fPXvWtGnTSZMmVa9e3dXVtVKlSg4ODlk8y9zc3NTUND4+PsO4dvd/MzMzIcTPP/88aNCgD60qw+acECIlJaVEiRKFCxf+0KWQ4whkAADksNWrVz958mTZsmVTp07VDL58+fLdsKXN0tLSwcHh4cOHiYmJ2iEpJCREc1v9bebFixczBLKwsLCIiAgnJycLC4vM1r9161bdunU1d6Ojo//++++KFSuqfwEKaXGoHwCAHPb8+fMM58PU21rq7y4zY2xsLJfLnz9/vnv3bs1gamqq9g8bmzVrZmtru3Pnzlu3bmkG09PTR48eXa9ePT8/vyzWX79+fVJSkubuDz/8EBkZ2bt3b5lM9uF/ROQwAhkAADmsadOmQogpU6acPn365cuXf/7556hRoxYsWFC4cGF1o7LMnjhlyhQHB4cxY8YsXLgwODjY39+/W7duAQEBmgnFixdfvnx5XFxc69atf/zxx+vXr/v7+ysUikOHDrVt27Zjx45ZVHXv3r0ePXoEBAT89ddfX3311Zw5c+rUqTN27Nic/tPjYxDIAADIYUOHDh07duzVq1dbtGhRunTphg0bhoSE+Pr6tm7d+smTJ1FRUZk90dra+ujRoy4uLl9//bWrq2vLli2fPHmyZcsWIYSmEf+AAQN27dplamo6cuTIWrVqtWzZ8vfffx82bNivv/5qYpLVSaQdO3Y8ffrUw8Ojbt26S5cubdeu3bFjx7L4ihOGJOO67gAA6M7Pzy8uLq5Tp06a5PTixYvLly+np6fXqlWrYsWKQogbN27cvHmzVatWNjY2165du3PnTps2bd79WaVKpbp58+bt27crVar0ySef+Pr6tm3b9u7du9pXOkpPT79+/fq9e/csLS3r16//7iLa7t69Gxwc3KFDh6JFi165ciU8PLxOnTqVKlXSnnPt2rXHjx936tRJJpPFx8cfPny4QoUKjRo10kxITU09fPhwsWLFWrVqlUPvGf5FIAMAILdYv369sbHx4MGDCxUqpBncsGHDtGnTnj59Wrx4cUmrgx7xlSUAALnF3bt3R40apd1j7M2bN2vWrKlVqxZpLH9jhwwAgNzi7t27jRs3jouL69atm7Oz8/Pnzw8cOPDy5ctff/31s88+k7o66BGBDACAXCQ0NHTRokWnTp168OCBra1t48aNJ0+e3Lx5c6nrgn4RyAAAACTGGTIAAACJEcgAAAAkRiADAACQGIEMAABAYgQyAAAAiRHIAAAAJEYgAwAAkBiBDAAAQGIEMgAAAIkRyAAAACRGIAMAAJAYgQwAAEBiBDIAAACJEcgAAAAkRiADAACQGIEMAABAYgQyAAAAiRHIAAAAJEYgAwAAkJjJB81u2bKl3ioBAAD4AB4eHvPmzZO6ipzxYYHM399/7NixjRo10ls9yPP69+/PXxJkbe3atUZpCZOH95W6EOReKzbtFELwlwRZWLFp540bN6SuIsd8WCATQjRq1Kh79+76KQb5Qf/+/flLgqz99ttvJikx8i5tpC4EuZfS56QQgr8kyIL6L0m+wRkyAAAAiRHIAAAAJEYgAwAAkBiBDAAAQGIEMgAAAIkRyAAAACRGIAMAAJAYgQwAAEBiBDIAAACJEcgAAAAkRiADAACQGIEMAABAYgQyAAAAiRHIAAAAJEYgAwAAkJiJ1AUAQIHzNirm3MWr5oXN6tWuYVW8mNTlAJAeO2QAYFBHfM/a1f20y5eT2vQafSn45nvnuLRUlKnTPik5xeDVQUqNOn1pVd0jJjYuswknz1yUlas///tNhq0LhsAOGQAYTnp6+oyF65KSkz2nDq9QvuwntapLXRGAXIFABgCGk5iU/PRFhLNT5bmThslkMqnLAZBb8JUlABhOWlpaalqaeWEz0hgAbQQyADCQEdMXWTq1iIqOvfjXDVm5+iOmL1KPX71xt8fQaVbVPIpVadZj6LT7D8OkrhRSevn67dApC2ycWxWp3KRt7zHH/ANVKtV7Z6pUqh+27zMu36B+h/6v30YZvFLkJL6yBAAD6d21XTXHil9/t6G0rfXUUQOcq1YSQpw6f6lz/4lCiD7d2pctXfKo3/lmXYempKaamPD/zwVRUlJy+95j01WqoV90i09I3H3gWMe+49cvnjFyQI93J2/b6zPu66X16zgf3bXW2spSinqRY/gXHgAMpGWT+vXr1Phm5eZSJa3HDJSrP31HfbXYyMgo4LdNdWtVF0J4Thk+euaSTV77S9vaSF0vJJCYlFyuTMkjXmssihYRQkwbPaBptyHTFqyWd25tY22lPXPPgWMjv1pUv7bzkZ1rSGP5AF9ZAoBkgq6E3Al9NEDeqe7/fm5pbGy8aMYYy2JFpS4N0pDJZKu+mapOY0KICuXLzBg7MDYu3j/wiva0A3/4fznB85Na1dkbyzcIZAAgmaDLIUKIZo0+0R60sbaq6VRZuqIgpfJlbF2qOWqPtHCrK4S49+CxZuTE6Qt9Rs1OTkkZO0hRgsbC+QWBDAAk8+ptlBCi5H+/ihJCVLArK1FFkFhxS4tChUy1R9S7ZS8i3mhGzv0ZXKWSnaVF0enfrnn56s37lkHeQyADAMkUNS8shEhMTMownpCQKFFFkFhyckpaerr2SEpKqhDCpkRxzUgDV+fTv21eMH3ksxevpsxfmdlvMJG3EMgAQDK1alQRQly8ekN7MDUt7XboI+mKgpSevngVGRWjPfLX9Tvqw2SakU6tm5awshz5Zc9GdV12/vbHoZNnpKgUOYxABgCSadOska2N1ba9PhGv32oGj5w8e5dAVlDFxSds8vpNczcxKXnlpp2mJiYt3OtmmFnI1HTdwummJibjv172NjLa4JUihxHIAEAyxS0tFs4YE/7sZaueIw/84R9y+/6an/b0GzdH6rogmSLmhZes2zZn6Q9Xb9w9eeZi5/4TAi+HTBrRV3uHTKN+HecJw/o8DHs2c9E6vrjM6whkACCloV9089m+snzZUoMmzq/bru+WnQcWTB+V4XeXKDgqVSj3+7YV5/8MbvLZ4K4DJycmJW9fPX/RzDGZXWvLc8pw9/q1N+86sF15yNC1IkfRGBYADKeYRdHI2/7aIzKZrFObpp3aNNUenDC0j8FLg/QuHN6uvuGrrPfeCW2aNVQ9vaQ9UsS88PnffzZIddAvdsgAAAAkRiADAACQGIEMAABAYgQyAAAAiRHIAAAAJEYgAwAAkBiBDAAAQGIEMgAAAIkRyAAAACRGIAMAAJAYgQwAAEBiBDIAAACJEcgAAAAkRiADAACQGIEMAABAYgQyAAAAiRHIAAAAJCZTqVQfMFsma9iwYfny5fVZEvK2/fv385cEWbt48aIsPcW9Xm2pC0HuFXj5mhCCvyTIQuDla+5NW3h7e0tdSM74sECmUCj0WUzek5RUMigopUWLRCGSpK0kNDRUCOHo6ChtGQA+Qnh4eGBgoFwul7oQ5F4RERH+/v78JcnA3d190qRJUleRMz4skCGDDRvElCni3r1kO7tC0lbSsmVLIcSpU6ekLQPAR1AqlQqFgv83RhYCAgI8PDz4S5KPcYbs4yUlpS1ZIhITxZIlEqexgIAAf39/f3//gIAAaSsBAAAfgUD28X76yTgsTH1DhIcnS1iJp6dnhhsAACAPIZB9JPX2mJq0m2Tq7TH1bTbJAADIiwhkH0mzPfa/u5JtkmXYFWOTDACAPIdA9jG0t8fUpNok094eU2OTDACAPIdA9jEybI/9b1BERCQYuJL37oexSQYAQN5CIPtg726PqSUmil27DPqD5He3x9TYJAMAIG8hkH0wzfaYkZGoWVMIIVxc/nlo27YihqxEsxNmZWVlb29vb29vZWWV4SEAAJD7Ecg+jHp7zMhIyOUiODhl3rx4IcS1a8LbW7i4iKtXRUCAgVr2q7fHrKysPD09Hzx44Obm5ubm9uDBA09PTysrKzbJAADIQwhkH2brVmM3NxEcnOLtLVxcTIV4I4SQyYRcLq5dE+vXi1WrzAxTyapVq9RRbN68eZqNMSsrq3nz5qlj2apVqwxTCQAA0BGXTvowERFJtrZZRa7IyJSiRY1MTY31WkZKSkpcXJwmh2kuM6p9jdXIyMiiRYuamprqtRIAuuPSSfh/cemkfM9E6gLymKzTmBDCysoQAcjU1FQ7jWVSyf8zAQAA5BJ8ZQkAACAxAplOwsMjlcpwqasAAAB5G4FMJ4GBsQqFndRVAACAvI1ABgAAIDECGQAAgMQIZDqxtzeXy6UuAgAA5HEEMp24udlodf4CAAD4GAQyAAAAiRHIAAAAJEYg0wl9yAAAgO4IZDqhDxkAANAdgQwAAEBiBDIAAACJEch0Qh8yAACgOwKZTuhDBgAAdEcgAwAAkBiBDAAAQGIEMp0EBb1WKKQuAgAA5HEmUheQt4WFJSiVUhcBADlEqVQq+K9MQAoEMgDAv2rWrDlv3jypqwAKHAIZAOBftra2ctr5AAbHGTKduLtbeHtzLUsAAKATdsh0YmdnJZdbSV0FAADI29ghAwAAkBiBDAAAQGIEMp3QhwwAAOiOQKYT+pABAADdEcgAAAAkRiADAACQGIFMJ/QhAwAAuqMPmU7oQwYAAHTHDhkAAIDECGQAAAASI5DpRKkMl8mkLgIAAORxBDIAAACJEcgAAAAkRiADAACQGIFMJ3K5nUoldREAACCPI5ABAABIjEAGAIZ2+/btBw8eZDHh+vXrt2/fNkAlJ06ciIqKyuxRlUrl4+OTkpJigEqAAo5ABgCGVqlSpTZt2syfP//dMHT9+vVevXp16tSpUqVKBqikUKFCDg4O71aiUqn27dtXp06dY8eOmZqaGqASoIAjkOmEPmQAPoKZmdlnn33m6empHYbUUaxOnTre3t5fffWVmZmZASpp0aKFq6urdiWaKCaXy+/evTtjxgwDlAFApuJQug6UynCFIlec61coFEIIb29vqQsBkC3BwcGurq7q20ZGRunp6er/FULY29vfu3fPMIFMCBEQEODh4aGpRAihLkMIMWbMmHXr1hmmDKCAY4cMACRQp04dTQxSByBNDJoxY4bB0ph6k0y7Ek0ZZmZmbI8BBkMgAwBpeHp6vjtob28/ZMiQ3FDJ0KFD7ezsDFwJUGARyHRCHzIAH017a0rDwNtjmVXC9hhgYAQyAJBMhq0pSbbH3lsJ22OAgRHIAEAyGbamJNkee7cStscAwyOQAYCUNFtTEm6PZaiE7THA8AhkOqEPGQAdtWjRQi6XCyG+//57qbbHtCuxsrKaN2+ehGUABZOJ1AUAgGSUSqXUJQghhLu7e1BQUG6ox93dPSIiwt/fX9oycht3d3e2DKFvBDIABZe6o3IukXuKIZBl4O3trd7FBPSHQKYTe3tz/iUF8rTVm/Z8+llPqatA7uVUhg9KGAJnyHTi5mbDxYoAAICOCGQAAAASI5ABAABIjECmk/DwSKUyXOoqAABA3kYg00lgYKxCwW+hAQCATghkAAB8vLSUFHH7ttRVIM8jkAEA8JGSAgKM3dxSUlOlLgR5HoFMJ/QhA4CCKSkgQLRsaebhISwtTV1cpC4HeR6BTCf0IQOAgubfKObvL4RIHDhQ6oqQHxDIAADIlgxRTAghrKyMe/SQuCzkCwQyAACyUvq9UUxt4kRTCwvJKkM+QiDTCX3IACB/sxSizJQp74liQggTk9Tx44UQQqEQMpn6n3Cl8t8JmY23bKkZ/8+CmsHMxrWuQB+uVP6/49kqRmv8YUDABxSjNZ6dYrTH8+47Fhke/p85OUemUqn0sW4BoVSGKxR2ueEtVCgUQghvTrQBH0Imk3FxcWTNqYzJyfXr3VNSimzbJq5ezfjw+vVi9OiImzfjIiLUA9bOzpa2turbmY0/Dw5OjIxU33Zo0UKzmHYeeu94UVtbW2dn9e3oiIg3N29mPZ6dYrTHbV1dixYvns1itMezU4z2eN59x8KVSjuFQujhg59AphMCGZCnEcjw/3IqY+Lt7S2Xy9VnyMw8Pf+zVWZllRIWxreWBYf+AhlfWQIAkC1mLVqIU6eS/P2Fh8c/Q5GRab/+KnFZyBcIZDpxd7fw9uYMGQAUIBliWeFt26SuCIZj4e4erp8vowhkOrGzs5LLuZYlgIIu8u2bo7/vu33zmtSFGM6/sSwqKuX6danLgYFY2dnZ6acjPIEMAKCrxw9DJwzvfXDfTqkLMTSzFi3SLlwwNTGRuhDkeQQyAICuiluV6NClZzXnWlIXIgFjU1NRvbrUVSDPI5DpJCjotXZfFQAomCpWqrJm855uPftJXQigX6+DgoR+PvjZZdVJWFiCfvrDAShwVCrVab8/zM2LNGzcIiY66sqfgUII13oNi1tZa+Y8fhh649pfzVq2S0tL+zPojH2FSk41XGT/a4kZFxsTcvVSdFSko1P1ylWqa8bPn/GLevumZbtOhQuba7/iX5cCnz990qJ1hyJFs9u14VXEixvXrqSkpDhWreZQ2UnzEpFv3wSe8atUxam6c+3U1JRTJ46kpqS8+3QzMzOPth2NjIzVdxMTE25cuxLx8rlDpSpVq7sYGxt/1DsHGE5CWJjQzwc/gQwAcoX09PRvZk0ob1fh87BH82eNj4+LFUKYFir05bDxk2YsMDU1FUKc9T/hOWPs0rXbFs6ZHBX5Rgix/ud9bTt2S05OWrNs/vbNa5ISE9WrVatR65tlGz6p7y6ECDrjt3HNkvVbf237aVfNyyUlJU0c8YWpqWmbDp9lp7yY6KhZk4cdP3xApUpXj1RxqrFg+cZ6DZtozpANGT2l+tzaSYmJMyYMjomOeneRkqVK+1/6u1Ah4/T09J9/WPHDqsUxMf9Ms6vgMG/xuhatO+TEewnkPXxlCQC5yM3rV+fPGj987HT/S3//+keQe9NWW9YvX7ZghnYTb88ZY/t8Odzn1NUVP3g1b9UhPT199pQRm9Yubdm28zbvY4dOXV24YlNU5NtBig4PQu8KIbr0+MLIyOjwgb3aL3T5wtlnT8I6dettWqhQdgpb8PXEk0cPjpk8e//xiz5+V75esPJp+OMxg3pER0VmmFnYvIjyyPk/zl7X/HP0zPUWbT4VQowY91WhQmZCCO+dPy1dMKPWJ/U3ef1+5PS17zf8UqiQ2eiB3c+cOpYz7yOQ17BDppP/9SGj8wWAnBEdFTnrm+8HDp8ghChnV2H91l/7fNZ817aN/YeOta9QST2n9icNJs1YIJPJqtVwEUIEnj11UOnVpXufZeu2GxkZCSGcarjUb9S0a5v6u7b9MHvBSseq1Wt/0vCM37GoyLfFrUqoF/H5bbexsUnXnn2zU1VSUuLZU8druTYYN3Wu+mvKas614+Jifv9198O/79X+pIH2ZGNj48pVqmnuqlSq9Su+DTh5tM+XIwYMGSuESEtL27pxpXvTVpt3HlLv/FVxcm7cvHVnjzqL5k753a+lqWm2MiJgeOo+ZPr41GeHTCf0IQOQs6xKWCv6DtHcNTMz6z1geHJy0mnfo5rBhu7NZVqXUj560FsIMXD4BHUaU6vk6NTAremF86eFEEZGRl179o2JifI/eUT9aGxsjN9xH9d6DStVrpqdqkxMTIpaFLt989pBpVdCfJx6cNTEWUfPhGRIY+/6bc/2tcu/cWvactY3K2RGRkKIh6F3H4Te7Td4tDqNqdmULNXm026h927fu3MzOyUBktBfHzJ2yAAgF3GoXDXDEXt1L4m/79/RjFjb2GpPuBlyVQgxbeyXJlr5Rgjx8vlTU9NCaWmpxsYmHbr0WPbtzCMHvT/r8YVMJjvnf+Ltm9dde/aTGWXrP8uNjU3GTJo9c9LQ6eMHzZ4yol7Dxk082rXp0EX7pwPvdTHwtOfMsQ6Vq676cZeZmZl68O6dG0KI7xZ8tXqZp/bk168ihBCPH9x3dnHNTlVAfkIgA4BcJMMPIYUQZmaFhRDJycmZPSUhIc7ExNSxanVjk/8EsspVqhe1sFCfPbMpWap5qw7+Jw6/inhhW6qMz/7dRS2KtevUPfuFdVP0d6hcda/XllMnDged8w865//9wllNPdp+v8GrhLXNe58S9ujvCcP7GBsZL1+/QztEvn39SghR2bFaYfMiGQoWQmj/qhQoOAhkOgkKer1ihY1+rmoFoCCKi41VqVTa206vX718d1dMm2XxEmlpqV9/u6psefssVu4m7/eHzz6/Yz5tO35+1v9Ei9afWtuU/KDaXOu7udZ3S09Pv3v7+vnTvt5eW876n1izbP68xWvenRwTHTV6UI/IN69WbtxZy7W+9kNlytkJIcZNnZthHMj9XgcF2axYIfTwwc8ZMp3QhwxAzvo79M7bN6+0R86eOi6EqNewcWZPqVOvkUqlOhtwQntQpVL9sHrx7h2bNCONm7cuVbrsH4d+DfA9Gh8Xm83j/GqvX73cvG7Z8cP71SfSqjvXHjxy0k+7jwghrgdfend+akrK9HGD7twMGTtlTvvOPTI8Wq1GLSNj41MnDmcY37nth7XLv3n54ln2CwMMTH99yAhkAJCLxMXGzJgw5NmTMCFEamrqfu8du7ZtbOje3L1Zq8ye0m/Q6JK2pZd+M+PI78rU1FQhREJ8/I9rv1v93bywh6GaaYULm/ceMPzShbM/rllSuWr1ph5ts1+VqWmhX35a/83sCZcvnlM34EhNTT114pAQQt2HTFtCfNy0sV+eOnFo/LR5oybOeveQWTm7Ci3bdtqy4fu9v2xOTkoSQqQkJ+/ZsWnR3Cl+xw9ZFrfKfmFAvsFXlgCQi1iXtE1MTGjVsEoFB8fXryKio942bNxi3U/eWXSCsKvg8POeo2OHyCcO72NRzLJsefvHD0OTEhObtWw3bupc7ZmKfkM3rVv29/07sxesUPcDyybL4lYrNnqN+rJ7n89aWNvYlixV+snjh3FxsS3bdZ4w3TPD5L1eWw4f9C5kZnbkd+WubRszPLpy485GTTwWLP1haN/Oc6aNWjh3in3FSk/DHsXFxdb+pMGGbb+9e4oOKAgIZDqRy+20mjUCgK6KFi22Zdeho78rz5/2LVLUokWrT5u3am/0v2sKVXBw7NClZwUHxwzPql6z9mH/4BNHD166cObN61ctWnVo0qJt42atMvyI0rZUmWFjpt6/e6tTt14fWlj9Rk2Pn7/5h8+v169djo2J8WjdsYlHG7fGHuqX0L64uLrIzNaxsrZRt+zfdzQw4OSRoHP+L54/bdysdaMmHi3bdDQ2yXufSikpKaGhodW5vnjBYCeXC/188MtUBIp8QaFQCCG8+X0B8CFkMtnqTXs+/SzT9GBIaWlp7RrXEEIcP3+LqzrmHk5lTLy9veWZtJ4KCAiYPHny9u3bXVxcDF4a8ma+TNEAACAASURBVBXOkAEA8MECAgJatmzp4eFhaWlJGoPu8t7mMAAgB50/4xf19k3Wc9ybtbIqQXuwfwQEBHh6evr7+6vvDhw4UOqKkB8QyHSiVIYrFBwjA5CHrVj09bW/LmY9Z9/RQALZu1FMCGFlZdWjR8a+HsjHwpVKO4VCH8fICGQAkCsYGxv7Xrhr+Nfdd/S84V80z3k3iqlNnDjRwsIikycBH4BABgBAVqZMmRIWFvbehzw9PT09Mzb+gMHI5fJ882s2AhkAAFmZNGlSaGjoli1bkpKSMjw0dOjQdu3aSVRXQbdy5UqpS8hJBDKd0IcMAPI9Ozu7SZMmzZgxY8mSJRli2YULFzZt2vTu1QhgAEoprl2ovz5ktL0AAOD/Z2dnt27duvv3748ZM8bM7J/rHISEhJw+fVrq0pAfEMgAAMiud2PZtm3bpC4K+QGBDACAD6Mdy37//ffIyEipK0KeRyDTiVIZzskBACiY1LHMz8/vzz//lLoWGEi4Uin088HPoX4AAD5enTp1pC4B+QE7ZAAAABIjkOnE3t5cLpe6CAAAYBDm9vZCPx/8BDKduLnZ5JcWwQAA4P9h4+Ym9PPBTyADAACQGIEMAABAYvzKUifh4ZGBgbFyuZ3UhQD4SBOG954wXOoiAOQRkeHhsYGBdno4RkYg00lgYKxCweUsgTxswIgBrvVoW4BMTR4+ReoSkIvEBgbaKRT6uJwlgQxAgeZar077z9pLXQVyMQIZDIIzZAAAABIjkOmEPmQAABQc9CHLpehDBgBAwUEfMgAAgHyLQAYAACAxAplOwsMjlcpwqasAAACGEBkeHq5U6mNlAplO1H3IpK4CAAAYwj99yPSAQAYAACAxAhkAAIDECGQ6qVnTzNPzodRVAAAAQzCrWfOhp6c+VubSSTpxdradN89W6ioAAIAh2Do7286bp4+V2SEDAACQGIEMAABAYgQynQQFvdbPr18BAECu8zooSND2IhcKC0vQT384AACQ6ySEhQkawwIAAORLBDIAyF16f9rHzck9LjbOwK+blpa2e+vuTk06u5St1c3j820bt6Wmpn70agf2HqhZxmXPtr0Zxm+G3Jo6YmqTGk3r2Lt2b91j8+rNiYmJGeZcPHdxqGJYvUr1Gzg2HPnFqL8u/vXRZQB5BYFMJ+7uFt7eXMsSQJ6nUqkWz1ny7cyF5e3Lj5w0orB54WWey7+eOCc9Lf0jVnv84PGSOd+9Ox5wIqBv576nfc906Np+0KiBRkZGqxavHt5rRGLCv5nsxOETw3oNf3D/QZ+BvT/v/XnI1ZBBPQef8Tur258PyBkW7u7h3t76WJk+ZDqxs7OSy62krgJAvrLn6G7Dv2jQmaA9W/e069Ju+cZlxsbGoyaPmjtl3oG9B9p2btu6Q6sPWio1JXXulHkx0TEZxuPj4udN9TQ3N/fy+aVy1cpCiHFfjftm+oJ9O/ft2bZn4KiBQojoyOhvvlpQulzp3Ud225S0FkIMGDGgX5d+30z/5tBZH7PCZjn6hwY+mJWdnZVcro+V2SEDAAjvHd5GRkYTZow3NjYWQhibGE+aPdHc3Hzvtr0qleqDltr6w7bgS8FdFV0zjP/1518RLyK6f9FdncaEEMbGxqOnjjIxMTl5xFc9cvzQ8Tev3gwaPUidxoQQdhXKDxo96Gn40+Ar13LiDwrkUuyQAYChPQ1/uuLblWd8zyTEJ1SsXKFZq2ZDxw21/l8E6f1pn4ehD32vnCxqUdRz2nzlL+/5SVcxy2LqCUKIxITEHZt+OXrwaOid0KIWReu71x88ZtAnDT5Rz3wQ+vDujTuZVeJQxaGac7XkpOS//rxq72BfoVIFzUM2tjaO1RyDL1+Ni40rVKjQwO6Dgi8Hf7Pimx5fdFdPePP6Tc+28ujI6AOn9ttVtFMP3gq59cOKH4ZPHFbC2vqg90Ht17KyLjFkzOAmLZtoD5oXLWJiahIf98+BuaAzF4QQjZu7a89p3MJdCHEj+EbDxg0+8J0G8gwCmU6Cgl6vWGGjn2+TAeRPb169GdDty/S0dHm/nuZFzIOvXNux6ZfTvme8j+0tUrRIhskt2rYoU7a05q7MSHb1UvDpk6ddXGuqv7+LiY4ZIh96I/hGg8YNho0fGhUZffLIyS+7DVyw8hv1HpX/cf/l85dnVsyg0YOqza325vWbiBcR1WtWNzL692sTmUzmWM3x+tXrL56+cKzmuHD1t/J2iu8XfN+0ZZPSZUunp6cvmrXoxdMXc5Z8rUlj8XHxs8bPdqrhNGTMkN9278/wWjVrO9es7Zxh8HLgpcSERCdnJ/U5ttC7oZZWlral/3NJutJlS5sVNgt7+PjD32wgh70OCrJZsULo4YOfQKYT+pAB+FA+v/o8C3/m5fOLehNLpVItm798+8btAScDPu36aYbJLdt5tGznobl7/er1zWu2ODg6LPthmYmJiRBi5bcrbwTf+Hrx7N4De8tkMiHEuK/GDlUMmz/9m3qN6tlVtHNr2ujrxbMzK6ZazepCiKjIKCGEbemSGR4tYV1CCPHmzVtHISpVqTRx1sTFXy9eOm/p8h+X++zzOXrwj1YdWsn7/3OeRqVSrVu6LuxR2N4/9hQyK5SdtyImOub7BSuMjI16fdlL/TPPmOgYCwuLDE8vbF7YophFbIyhf3YKvEt/fcgIZABgUHExcUKIqLdR6rsymWzo2CGf9ezi4OiQ9RNfPn85buB4E1OT1T+vKmFTQggRHRV9eP8R59rOvQb0UqcxIURxq+KjJo8cN3C8zz6fUVNG1ahVo0atGlmvnJyULIQwNsn4iaBeMzUlRX23z8DeAScCjvkcb9B475ola0uXLe25fJ76zJkQIjAg8JctXl/Nn+7o5Jid9yEhPmHikEkP7j8YMnawa31XIUR6enpycrJ5EXPNn0VbWlpadpYF8igCGQAYVOtPW29Z99OEIRPdm7k19mjcuEVjRydHzQGyzKhUqqXzlr59/XbttjVVqlVRD/597+/YmFghxKbVm7Qnq3e8rgffyNnKjU2M538/v2ebngtmfGtkbLRs4zKbkjb/vOLbKM/p8xs1adR7YO/sLBUbEzum/5hLQZfl/XpOmDHhvQkMKFAIZDrx8LD0938oxP/z37UAoFGtZrUdB3f8sumX8/7n1O21SpUp1bJ9y9FTRpUslfFLQ7X09PT1yzacOHLy25ULmrVuphmPePFKCBH5NjLo7IUMT2nQuEHZ8mWEEEcP/rF3e8burBqfdu3Q68telsUthRCak/UaSYmJQohixS01I2XLlWnSssmR/UdKly1ds84/B8LS0tKmjZ4e+SZy4qyJV/7XxPXR3w/V/3vx/J/2Fe3Vxag9fvB4+ujpf997MGfJHEV/uZHxPwfXTExMLIpZxMfHp6WlaTbehBBpqWmpqanm5ubZeHcB/bL08Hjo76+PT30CmU5sbS1btLDMxkQA+JdLnZrfrV+iUqke/v3owpmg33bv37t9b8SLiLXb1rw7WaVS/bhq08aVG4eMHdKlZxfth6ysrYQQzVo1nfvd3ExfLMumFeqWFiVLlSxqUfTR349VKpX2ZtWD+w9NTEy0s9Sh3w4d2X+kes3qd27emTNpzuqfVhsZGyUnp1y7fC0uNm7ayGkZ1t+x6Zcdm36ZOm/qoFED1SMXzl4YN3B8Mctie47uqVy1kvZkIyOj8vblL567GBMdo9l7E0K8ff026m1UGa0yAKlY2tpatmihj5UJZABgUMd9jt+6fmv01NGmpqaVHB0qOTp06t6pXYP2927dzbAz9M/8Qyc2fL/Bydlp5KQRGR6qXLWSWWGzc/7nk5KSzMz+bZp65+adg96/N/Fo3MSjyafdPv20W8bfCmRQpGgRpxpV79+5HxMdY/m//bDExMR7t+9VrFxRfbRfCPHsybPFc5aULltqs/em7+Z8d+i3wweVv3/eu1shU1PP5fNSUv5znaWg00EH9h7o1qubW3M35/8dYrscdHnMgLHGxsbrdqzNkMbU6jb85HzA+Vsht5q2bKoZDLkaIoSokr2jaUAeRWNYADCooLNBm1ZvDjoTpBl5Gv4sISGhnH157a4TatevXp89YbZNSZs1W1e/2xTD2sa6Tcc24Y/CVy9eo7nGUXxc/LczF27fuD0+LiGbJclksk+7dYyJjt2/599eFUf3H3318lWXnp3VVaWlpc2f9k10ZPTMb2da21hPmz/NuqT1d3O/e/L4ibGJcYfPOnTp0Vn7n1qf1BJC1PqkVpcendXH/KMio78aOyM9PX39jnU1XN7/O4N2XdoZmxh7bdmpOcKfmpK66+fdZmZmDWhChnyNHTKdKJXhCoXdB3axBlCgDRs/zPeI3+RhUzp81qG8fbmn4c9OHD5hYmIyYeb4DGfb4+PiR/cfkxCf0KxV091b96Qkp2g/+nnvbs61nWcumHH31t3tG7dfPHexacsmKckpJw6ffBL25PPen7fq0DL7VX3ep5v3jr0rv11lJDNq1MztrN+ZdUvXOTg6aA7p793hfcbvTPsu7dt82kYIUdK25LR5U2eOmzV3yrxNe358d2PvXbu37n4W/syimMW6ZeszPFTOrtyiNQuFEJWrVu7Rp7v3L8qpI6Z+OfLLtLT0rRu2Xgq8NHzicBtbm0wWBgwnXKm0UyiyPgnwcQhkAGBQZcuX3X1018qFq/yO+UW+iSxTvoxHuxZDxg7R/HZSIykp6XXEa/W3lu+u07BJA+faziVsSuz08dqx6ZcTh09s/WGbqalpjVo1xkwb06VHZ81h+ewoUqTIxl0bZ4yZsWTuPxcFr1239tIfvitmWUwI8TD04aqFq6xKWM349iuZ0T+psXP3zkcP/nH65Gm/P/zadmr7/77EuVNn1b+v/PP8nxke0vzZZTLZzG9nGpsYe+9Qqv/UJqYmQ8YOHjN1dPb/LEBeJPvQi5RBW+7ZIVMoFEIIby4aAHwImUy2YtP37T9rL3UhuYVKpbp78+6jB48dnSpXrlpZwm4Ub16/CbkSYmRkVKtuLasSVlKVIYSoWcbF29tbrp/rSUMXknzwsUMGANA7mUxWrWa1ajWrSV2IsLaxbtFWL79lA3InDvXrRC7PFdtjAADAAOzkcn1sjxHIAAAApEcgAwAAkBiBDAAAQGIEMp0oleFcEhcAgAIiXKkU+vngJ5ABAABIjEAGAAAgMQIZAACAxAhkOqEPGQAABQd9yAAAAPItAhkAAIDECGQ6CQ+PVCrDpa4CAAAYQmR4eLhSqY+VCWQ6CQyMVSjspK4CAAAYQmxgoJ1CoY+VCWQAAAASI5ABAABIjECmE3t7c7lc6iIAAIBBmNvbC/188JvoY9GCw83Nxttb6iIA6GD7jzuO+RyTugoAeYONm5vQzwc/gQxAgWYu0i1V6VJXAaCgI5ABKNAmD+8r79JG6iqQe8nK1Ze6BBQInCHTCX3IAAAoOOhDlkvRhwwAgIKDPmQAAAD5FoEMAABAYgQyndCHDACAgkN/fcgIZDqhDxkAAAWH/vqQEcgAAAAkRiADAACQGIFMJ0FBr/Xz61cAAJDrvA4KErS9yIXCwhL00x8OAADkOglhYYLGsAAAAPkSgQwAAEBiBDKduLtbeHtzLUsAAAoEC3f3cP20vTDRx6IFh52dlVxuJXUVAADAEKzs7KxoDAsAAJAvEcgAAAAkRiDTCX3IAORdR3zP1W3X18S+oY1zK7+zf747IfzpC8XwGZu8fpOiOiA30l8fMs6Q6YQ+ZADyqOcvX/UaOTM+PqGZ2ydFzM3ty5d5d050bJzy0MkSVpZSFAjkRvrrQ0YgA4CCKOR2aGxc/JhBinULp0tdCwC+sgSAAik6Jk4I4WBfVupCAAh2yHT1vz5kdlIXAgDZlZKaOnrGkht3/hZC/LLvyMUrN9o0bzi8X3chRHJKyra9hwICL5e2tenbvYN5YTOpiwVyF3UfMn186hPIdEIfMgB5j0q8ehMZHRsrhIiLS3j5+q16t+zFqzddBkz88+rNShXKJSUlr/1pz/D+3aWuFchd9NeHjEAGAAWLqanJ/p+X/3rYr+ew6SO/7DF1ZH/13ph82FfXb4ce3bmmvYe7EML//OUB4+dKXSxQUBDI8o+goCAFTTgAfJTAS9fOXPhr9EB5h5aN1SMtm9T/7uvxfcd8LXVpQIHAoX6dKJXhMpnURQghhHB3d3dzc5O6CgB5VdDlECFEs0afaA82d/sk82cABVG4Uin088HPDlk+MWnSpEmTJkldBZDHyHLJf1HlAq/eRgkhSlr/51Bs8WIWxS0tpCsKKEDYIQMAiKLmhYUQiYlJ2oNpaenJySnSFQUUIAQyAICoVaOKEOLi1Rvag38/fpLw34gGQE8IZDqRy+1UKqmLAACdtWnWyNbGatten8joGPVIerpq1eZdUtcF5C52crnQzwc/gQwAIIpbWiycMSb82UvFiBmBl0OCroQMm7rgl31HpK4LKCg41A8AEEKIoV90kwnZlPkrG3cZJIQoYWW58buZI79aLHVdQIFAIAOAgqhRXRfvH5fUdq6qGZHJZEP7duveqdW5i1eLmBd2r1/b2NjI2qp45YrlJa0UKBAIZDpRKsMVCo6RAch77MqWkndp8+64tZVll3bNNXffOwcosMKVSjuFQh/HyDhDBgAAIDECGQAAgMQIZAAAABIjkOmEPmQAABQc9CEDAADItwhkAAAAEiOQ6SQiIjog4KHUVQAAAEOIjoh4GBCgj5UJZDrx94/28HCQugoAAGAI0f7+Dh4e+liZQAYAACCxfwPZ7Nmzhw8fnpqaKmk973fo0CGFQnHx4sXMJqSnp48bN27cuHHp6emGLQ0AAEBX/wYyX19fHx+f3Blo7ty5o1Qqw8PDM5ugUqmOHj169OhRlWG7UNjbm8vlhnxBAAAgGXN7e6GfD/58ci1LIyOjtWvXqm8Y8nXd3Gy8vQ35ggAAQDI2bm5CPx/8+SSQyWSyTz/9VOoqAAAAPkZWgezp06dKpfLatWsxMTEVK1Zs1apV+/btNVtQXl5evr6+a9eu9fLyOnfunIuLy+DBg21tbVUqla+v7+HDh1++fFmvXr0vv/zyypUrmzdvXrx4saOjo2bxwMDAw4cP379/v3Llyn379q1Zs2Z2yg0NDd2+ffvDhw+bNWvWu3fvYsWKqcfT09MnTJgghFi9erWRkdGrV69Gjx6tUCi6du3q7e3t7+9vYmLy+eeft23bViaT6faOAQAA5LBMv+A7f/58rVq1pk2bdv78+atXr65YsaJjx45du3ZNSUlRT7h27dr+/ftHjhw5adKky5cvL126VKVSpaSk9O3bt23btps3bw4ODp41a1bt2rX37dunVCrfvHmjfmJSUtKgQYMaN268fPnyGzdurFu3ztXVde7cuf/v8a8jR47UqVNnw4YNAQEBw4cPd3FxCQ4OVj+U4QxZfHy8UqkMDAxs3rx5v379Dh48uGXLlvbt248aNSpnD5mFh0cqlZmebAMAAPlJZHh4uFKpj5XfH8gSEhL69Oljb2//7NmzW7du3b179+HDh/Xr1z906NDx48c106Kios6fP3/v3r2bN28+ePCgVKlSXl5eu3fvHjBgwLNnz65fv/7kyZMGDRps2rRJe/FZs2Zt27Zt7NixERERISEh4eHhPXr0WLBgwc8//5x1rVu3bp05c+azZ88ePny4ffv2Fy9efPHFF4mJiZnNX7NmTYkSJR49evTy5cvbt29XrFhRHRM//F3KVGBgrEJhl4MLAgCAXCs2MNBOodDHyu//yvLu3bvFihWbMGGCjY2NesTe3n78+PEDBgy4fft2p06dNDOHDx9uZ2cnhLC0tBRC7Ny5s1q1aj/++GPhwoWFEDY2Nl5eXs7OzmFhYer5z58///HHHxs3brxq1SpjY2P1E3/++edz584tWbJkwIABpqammdXavXv32bNnq28PGDDg6tWrK1euPHLkSPfu3d87v3jx4l5eXtbW1kIIR0fHsWPHTps2LSgoyNXVVYd3DEC+Enj5mtQlAEAmgaxOnTrXr1/XHklJSYmKihJCxMXFaY83aNBAczs5OTk4OHjYsGHqNKZmYWHRvXv31atXq+8GBATExcU1aNDg/v372uvUrl37yJEjDx48cHJyyqzWfv36ad9VKBQrV648depUZoGsZs2a6jSmVrly5XfrB1DArdy0a6XYJXUVAAq6rA71nzhx4vjx4/fv33/06NGNGzeSk5PfnaPeGFOLjIx88+ZN+fLlM8yxt7fX3A4NDVUfvddENG0vXrzIIpCpE5VGuXLlNAu+l3qCXtGHDMjrvH9cIu/SRuoqkHvJytWXugTkIobuQ5aUlDRgwABvb28zMzNnZ2cnJ6cBAwakpKRMnz49i7VUKlV6enrWp+bVj44fP75p06bvPlqjRo3sl65eqlChQtl/So6jDxkAAAWHofuQbd682dvbe/z48UuXLjUzM1MP7tr1/+zqW1lZ2djYvNtP/8mTJ5rb6v2zEiVKyD88YD579qxWrVqau48fPxZCVK1a9UPXAQAAyFXe/yvLwMBAIcSwYcM0aUwI4efnl/VaZmZmtWrVOnToUFJSkmYwMTHx4MGDmrseHh5mZma7d++Oj4/XDCYlJTVo0KBRo0aa1hjvpfzvD029vLyEEK1bt866KgAAgFzu/YFM/TvEjRs3hoWFvX79OjAwcMSIEd7e3urwlMVyU6ZMuX37do8ePU6dOvXo0aOTJ0926dLl0aNHmgkODg5z5sy5f/9+u3btfHx8Hjx4cP78+Z49e166dKldu3baZ/Df9dtvv02dOjU4ODgkJGTChAk//fTTgAED2rZtq8MfX1c3b0bMn/9QwgIAAIDBRNy8+XD+fH2s/P5ANmnSpLFjx/7www8VKlQoWbJky5YtVSrVn3/+aW5ufvXq1SyW69y587Zt2y5cuNCqVSsHB4f27ds7ODiMGDFC+yqTs2fP3rVrV1hY2GeffVa5cuUmTZpcvHhxy5YtCxYsyLpWLy8vPz8/V1fX2rVrb9682dPT8+eff1b3zpDKjRtJnp4OEhYAAAAMJunGDQdPT32s/O8ZskWLFsXFxZmYmAghTExM1q5dO3ny5KtXrxYvXrxBgwbqixTt378/KSkpLS3N2Ni4X79+DRo0qFKlSoYV+/Xr17Nnz4sXL759+7ZevXp2dnbqQKb9e8xevXrJ5fLr16/fu3evdOnSjRo1yqL9mBCiS5cuFSpUaNq06aVLl65cufLy5cumTZtqL5jh4uIlS5b09vauUKGC9iKNGjXy9vauU6dOTrxvAAAAOebfQNaqVasMj1WqVKlSpUraI+3bt9fcrl27du3atTM8Zc2aNdWrV2/Xrl3z5s01g+o2s6VKldKeaWRk9N4V3svJyUnTDqN+/ff8AjnDxcWLFCny7o8Gypcv/xG/JAAAANC3TK9l+XECAgIGDRqkfTb/xIkT586da9q0afHixXP2tXIDd3cLb2+uZQkAQIFg4e4ebsi2Fx9twIABBw4ccHV1/fzzz21sbEJCQn7//feSJUuuWLEiZ18ol7Czs5LLraSuAgAAGIKVnZ2VIRvDfrSuXbsePHhw7dq1O3bsiI6OrlKlyogRI2bMmGGApvkAAAB5VA4HMvUPLTt37pzjywIAAORXOXyGrKAJCnqtUEhdBAAAMIjXQUFCPx/8BDKdhIUl/PfyAQAAIN9KCAsT+vngJ5ABAABIjEAGAAAgMQKZTuhDBgBAwaG/PmQEMp3Y2VnJ5XZSVwEA2RUXn6D0ORl0OSSLOZev3VL6nIyOiTVgXUDeYGVnZ6efPmQEMgAoQF69iVSMmLFqy+4s5mzy2q8YMSP82UsD1gUUdAQyAAAAiRHIdEIfMgAACg799SHL+U79BQp9yADkUQmJSccDgq7fvl/MoqhbvVoN6jjLZLL3zlSpVEf9zl28erOaY8XeXdtlNg0oCPTXh4xABgAFzvOXrxt2HHDn/qOqlSs8DHsan5DYpV3z3RsWFi1i/u7kn3YfHPnVonq1aowb3Is0BugJX1kCQIETEHi5VEnrx5cO3fD3fnb1WP+eHX2On/5mxeZ3Z+7a/8foGUvq1apxdNdamxLFpSgWKBDYIdOJXG6nUv1zW6n8pyGZvb25m5uN+nZ4eGRgYGzW4+7uFnZ2VurbQUGvw8ISsh738LC0tbXM8KLqYjS33zuenWK0x7NTjPZ4QEDEy5dJ2SxGkndMexAQIlnqAiRjU6L4nh8W2dqUEEJYFiv649LZ5y9d27zzwMzxg6wsi2mm7TvkO2iiZ93a1Y/uXFuieLEslwQKBDu5XGg++HMUgSzHKBT/RA25XGiaxgUGxv6/497e4XL5PzFixQobzXfTmY37+z9s0cIyw4sK8Z+/Ie8dz04x2uPZKUZ73NPT1t8/u8VI8o5pDwIFWfuW7uo0pmZe2Oyzds1XbtoVfONeC/e66kGfE2c8l28qWsTcZ/tK0higbwSyHPPexKy9hZb5+L955b/tfzMbd8j6RXUr5l/ZK+bf8VOnPqAYqd4x7ZAHFNgDUZUrlM8wUq60rRAi9FG4JpDNWLi2kKnp26iY3fv/GD+0jxRlAgUIZ8gAAEKlUgkhCpn++1/pjT5xCfHbU7Z0ya+X/nDvQZik1QH5H4EMAAqcZy9eZRh5/PSFEKJqpQqakc3Lv3ZyrLhi3qSY2PjRMxenpaUZvEwg1wlXKvW0tU4gA4AC56jf+Zi4eM3dmLj4A0dPlS5p7VLdUTNobGwkhJB3aduxVZOTpy9u3esjUbFAgUAgA4AC5+mLiEET50dGxwgh3ryN6j92Tvizl9PHfPluHzJjY6PV304tZlHkq2/XPH7yXKJ6gfyPQAYABc7QL7oF37hbzrWDS0tFuU86/H789MRhfSZkcnK/ioP9nElD30RGj5u9ND093eDFAgUCv7IEgAKkiHlheec27Vq4Lf16/Na9v18KvvVpy8bdO7Vyq1tL04W/Xu3q8s5tLC2Kap41fnDv0AfhnrGcHAAAIABJREFUbyKjb9574FLNMfPlgXyOPmQAgBxga1PCe9MS9e3JI/q9d87wft2H9+uuPWJmVmjj0lkGKRAooPjKEgAAQGIEMgAAAIkRyAAAALKFPmQAAAD5FoEMAABAYgQyAACAbDG3txdyuT5WJpABAABki42bm/D21sfKBDIAAACJEcgAAAAkRiADAADIlsjw8HClUh8rE8gAAACyJTYw0E6h0MfKBDIAAACJEcgAAAAkRiADAADIFvqQAQAASIw+ZAAAAPkWgQwAAEBiJlIXAABSUoyYIUZIXQSAPCIyPDw2MNBOD8fICGQACrShA4bXda0vdRXIvUZPHi51CchF/ulDplLl+MoEMgAFWl3X+p3ad5G6CgAFHWfIAAAAJEYgAwAAyBYLd/dw/bS94CtLAACAbLGys7OiMSwAAEC+RCADAACQGIEMAAAgW14HBQmFQh8rE8gAAACyJSEsTCiV+liZQAYAACAxAhkAAIDECGQAAADZQh8yAAAAidGHDAAAIN8ikAEAAEiMQAYAAJAt9CEDAACQmP76kHGoHwAkkJaWdjXkrxcvn5cva+fiXMvY2FjqigBIiR0yADC05OTk3oN6dO/bZdSkYSMmDklPT393zr3QuxVrlp3pOU2KArNy6a8/x08fExsXm53JaWlpzdq7NWvvlpaWpv/SgDyMHTIAMLRrN4IvXr4wY/LsgV8MSUtLNTU1lbqiD7Dgu3mhD0OzOVkmk7Vs3kp9Q891AYZgJ5cLlUofKxPIAMDQXr9+JYTo3P4zc3NzqWvRLyMjo29mL5K6CiAPIJABgOGkp6f7BZz886+LQgj/s37WJWwa1XcraWMrhFCpVE+ehd+4dd22ZKk6Lq4furJKpfI/42dubu7WoHFycvLVkL/evH39SZ16pW1Lvzs5Jib66vWrcXGx1apUd6hYSbN99er1qwuXAu3K22sX8DLi5Z9XLhSzKFa/bsNTp30joyJTU1KOnTxqXcLao1kr9XNfvY4IuXEtJTWlSqWqlRwqaxZUVyWEUM+8Enz52fOn79ZjVsisVYs2Rkb/nKJJV6WH/n0/9O/7lpbFXWu5FilS9EPfDSDPIZABgOGkpqbOmDc14nWEEOLrBTOFEDu37G3qbvvqzauv5kw+6X9CPa1K5aqTxkz9oJXT09PnLpxdvpzd4P7RMz2nv3odIYQwNTGdMHrymOHjjWT/ZJ2ExISlqxZ77dmenJKsHqnt4rrEc2nNGrWEEJaWlqs2rHgR8fyPX0+WK1teCJGamjLhqzGBF8+t//7Ht2/fjJ48XP2sybPGV7Cr6H/knJGR0aLvF2zetlH1v+9xqjo6LfZc1qBuQ01VQgj/I+eMjY1//mWzz9GD7xZvW9L2/IlLhQoVEkJcuBQ0+5uv7oXeVT9UuLD58IEjx4+aZGqSl77YBT4Uh/oBwHBMTU2PHzy1/NtVQogj+05cORPSoF6jpOSkIWO+9A04+eUXg328/9j3y4HqTjUmzxr/EevfvX978szx3bv0/GXznh9X/1TJofLyNd+dOX9a/WhaWtr4aaN//mVz5w6f7dn667H9vgvnLnnyNLz3ILk6ABUyLTRpzJSoqEjPxXPUPzXYsmPz+Qtne3Xv07Fd5zKly1w5E+LiXMvCotjZYxcO7jliZGTk63/ipx2bJoyafEh57I/9vvNmLnjyNHz4+MHR0VHvljd76ly/Q2c0//j6nG7VvLUQYvTQceo09ueVC/2H94mNjVnsuez4gVO7f1a28Wi7ZuPK+YvnqPRzcAf4IOFKpdDPgUh2yADAcGQymXUJGwsLCyGEVXErG+uSQogDh367eu3K4P7D5n41X/1lX9069UdPHv7HySMfuv7rN6+XzF/ep2df9d3illa9B/U4ddq3RRMPIYSv/4njfn/06zXg2zlL1C9U3cn5k9r1uvbpuGTFwi3rtslksvatP23cqOkx36PH/f6wt6uwYt0yx0pVZk+bJ5PJjI1NbKxLmhibyGSyEiWsLYpaCCFO+h+v7OA4cfQU9YI1nJzj4uIOHPr1waO/69T6JEN5ZcuU09xWqVSrf1jhd9q3X68BA/sNUefFb5bMMzE23rPtV4cKldTT3Bo0FkLs9P5lUL+hjpWq6Pb2A7kXO2QAIDF18OrXa4Dm6JWxsfGQAcM/Yqki5kU6tuusuVvZwVF9wEt99+CR/UKIwf2Gaf/m0bl6zVo165y7cCYqOkr90ksXfG9ZzHL+krlTZk4QQny/aLVlMcvMXrG4pdWjsEe//b4vISFePTJuxARfn9PvprEMlPv3rtrwfeNGTebO+Eb9jerfD0Ov3Qj+P/buOi6q9O3j+D0BA4JStqIoKKiAioUtdjeuHWusibmK3d2uie1ai9gt2O3a2N2NdDMzzx/jM86Curg/5CB83q/9w7nPPWeumfVyvnPOPWdqVKulT2O6rwW0adlOo9FcuHT+P7wgKaJVq1YypD1bfswFWqXCETIAkJJWq334+IGVpbVuzZaeQ8FCSuV3/xNtZWVtZrAEXqH4/Klbq9Xee3BXCPHbgK6JrkP76vXL6Ojod+/fWlpYCiFs8+QbM2zCkFEDXr1+OWzgiJKubt94xA6tO/21beOgEV7Dxg4uXbJslYpVa1eva1/A4dvXubh19+aoScML5C+4aPYylbFKN6gr79TZk3WaVTecHBsXK4R4++7N974aKWXQoEHu7u5SPTq+wdbWVuoSUgyBDACkpNFoYmJjlAqFQv6PkGRsbGxqmul796aQK76WhDQaTUxMjMpY5VCwkP77jDq6U4EqlUo/YpvXVqFQqNXqf11KnzePre/a7cvXLA045n/2wumzF05PnzulSsVqC2YssrK0/uJdEhLiR08crpDL509faG1lox//GPxRCJEjW46CBewT3aWoY7F8tvmT8QL8EO7u7p6enlI9OtIUrkMGAOmTQqGwyGL54cP7mNho3cJ2nZiYmKioyBR8ILlcbm5m/lYmpoydYW315aikExYeNmzskEymmaytbGYtmF6pfJUijkW/Mb+wg+PMSXM1Gs3d+3dOnT2xyW/DidPH5iycNXHUF65AptVqZ8ybevnapYWzlrr+8+oeuXLmEkJUqVRtxODR/8MTBX5KrCEDAImVdSsbFR11+eolw8GrgVdS9ueGZDJZcZcSsbGxZy+cNhzXaDRzFs1cvGJhdHS0LjBNmzPpydPHQweMmDt1gVqjHjpmcGxsrH6+wuBEqkaj8dvpu3Wnry7wFXEs2r1zz3U+G3W/RvDFMrZs/8tnzdKWTVoZrnXTcSpURKlQHj91NCEhwXD88rVLk2dNuHXnZgq9EkBaRCADAIn90qKtkZHR1DmTdOfshBAhoSEz50/9EQ+kVCinzJrw/OVz/eCOPdsWLJl79ORh3SnLq4FXNvltKF+2QlvP9m4lSnds0/n6jasLly/Qzzc2Mo6JidGlN5lMtv/Q3unzpgb/f+VCiMdPHgkh7O0Sn3YUQpy/eHbUpOF5c9sOHzwq6anVPLnzVqtS/c692wt95mu0n37fMyw8dPTE4cvXLE1IiE/xFwRIOzhlCQAScyzkNHTAiCmzJtRtXqNRvcYyIdt7aE9cXGwy7vp9SriUHOw1dMa8qXWb12hQu2HuXHmuBl45dvKItZX15NHT5HK5Vqud/cd0lbFq8ujpuq8UDOzzu//RQ0tW/OFRycOtRGndgrOzF0637tKiuEvJ6eNnDe43tFnbhrWbVa9dvW72bNkfP318wH+vtZVNv54DEj16cMjHbn27xMbGlCpZeuGy+Qn/PP7XoXWnQvaFJ4+e9vDRg7mLZh09eaSSe+Xo6Kh9/ntfv3nVpV1Xl2LFU/wFAb7Xiy1b8rZq9SOWkRHIAEB63Tv95lCwkM/qJX9uWmtialqjSs3unXvWa1EzZR9FJpP16trXtVjxNRtWHjx8IDQsxDZvvg6tO/fp7pUzR04hxH7/vSfPnPQeOMK+4KcrfmU2zzxx1NQuvdoPGztk56a9mTKZ9erW98mzx+f+PvPoyUPvgSOKOhVbvWT9H8vm7ty7LSIywjZvvuZNPPt065cnd95Ejx4VFRUWHqo7Jpe0ttrV6xSyL5wzR66dm/ctX7P00JEDS1YuNFGZuBQrPnLImAZ1G/Hz5EjfZFz7GBlHq1ZCCOHrK3UdSDNkMtniOT4N6jSSuhCkXfmL5fL19eVbltD5cUfIWEMGAAAgMU5ZAkCaFhsbe/napW/PMVGZlHAtyUk94EfjOmQAkEF9CHrfukuLb8/Jlzf/sX2nE11/H8BPhEAGAGlantx5n958LXUVAH4s1pABAAAkS8iLFy9+zI+aE8gAAACSJeLs2by6b+ynNAIZAACAxAhkAAAAEiOQAQAAJIupra34MVcJJpABAAAki427+w/6vRcCGQAAgMQIZAAAABIjkAEAACQL1yEDAACQGNchAwAASLcIZAAAABIjkAEAACTLj7sOmfJH7BQAfhZzF81at2m11FUA+Dn8uOuQEcgAZGhVK1ZzK1Fa6iqQdp37+6zUJSBDIJAByNDcSpRuUKeR1FUAyOhYQwYAAJAsQefOCS57AQAAIKHo588FF4YFAABIlwhkAAAAEiOQAQAAJIt5+fIvuOwFAACAhCzz5rX8MReG5QgZAACAxAhkAAAAEiOQAQAAJAvXIQMAAJAY1yEDAABItwhkAAAAEiOQAQAAJAvXIQMAAJAY1yEDAABItwhkAAAAEiOQAUAquRp4JX+xXJNnTfjGnNZdWuYvlutj8MdUrOu/0Gg1O/du33NgVzLn+6xekr9Yrv3+e39wXcCP9WLLFiGT/Yg9E8gAAN/Nb4ev19DewSHBUhcCpBMs6gcAfLfY2Njvmt+jS68eXXr9sHKAnx5HyAAAACRGIAOA1KUVh4/5127qUdA1b8NWdTb4/qlWq782Nyw8rNEv9eycc6/6c7lWq03O7nWrte49uOu307dm46p2zrlrN/VYvmZpQkKC4bS379+OmTyich33/MVyudcoNWzM4Ocvn+k2BX0Mcq/uZu9qe+HSef382/duOZUqWLFW2aCPQa27tBw10VsIMWqid/5iuQJvXhdCvHz1wnvs7xVqlclfLFeZasV7Dux2+dqlRFXp1pCdOnsif7FcX/xPv8hMq9UGHDvUrtsvRcs6OJTI17h1/YOH93//aw2ksLyeniJ5nfi9OGUJAKnq8HH/VeuXN6zbuHqVmvv994wYP/TajavTxs+UyxJ/Qo6IjOjSq/3NW4ETRk7p0LqT7HuWEs9bMifgyMHaNeq6OhcPOHpo0szxQR+DvAeN1G299+Bu266eISEhNT1qt2ji+fT50517t+87tHfDyr9cixW3sbaZNn7Wr707jprovXPzPlMT05jYmCEjB8QnxE+fMNvG2qZL+65ZbbLu3r+zUb0mZUuVy5UzV9DHD54dm4WEBjeo08g2b74XL5/vPbQn4Oih9T6b3ctWSFRb3jy2g/sN/cczjYhYvnapuVlmp8JFdGls1oLpC33m581j27p5WxMT09PnT/Uc0G3mpLktm/yQ33UGJEcgA4BU9ejJwzlTFjRr1EImk/XvNahL7w5/bd3YoHbDqpU8DKdFRUf18Pr1yrXL40dObv9Lx+9KY0KI02dP7Ny8r4hjUSHE02dPGrSq47t9c//eg0xNTBMSEoaMHBAREbFx1Zaypcrp5vfq2qdVp2YDhvU9uP2IkZFR1UoerVu23eD757JVi/v3GjR30awbtwJ7detb0b2SEKJOjXrv3r/bvX9nudLlO7TuJIRYsXbZy9cvVixcW8ujtm6HrZq38ezYdM3GVUkDmV2+Al49Bxo+0za/eioUigUzFxfIX1AIcfrcqUXLF1SrXH3p3BWmpqZCCI1GM8C778jxw8qWcs+XN99/fe2BtItABgCpqkLZiro0JoQwNTUdPXRs/Za1/Xb4GgayuLjYwSO8zl04M3H01Lae7b83jQkhWjVro0tjQoj8+ezcXN2Onz4WGhpiamJ6LfDKtRtXO7TupE9jQojCDo6tW7RbsnLh7bu3XJ2Ly2Sy4YNHn7lwesmKhTmy51y5zqekq9vA3kO+VklEZIQQ4v2Ht1qtVjfHrXipbet35bPN/+06ExLiBw33unr98ljvCR6Vq+sG1/+1ViaTjRk2XpfGhBByubxD6847927fvtuvf69B3/tq/I+M584VW7YIIUT58mLgpygZdO6czZw5n/48aJCNu/un2XPnirNnvz3+fty4bEU//d8RrQyO+Rn+Js+Xxg0f9GvFGI4np5h/jI8fL27eTGYx/xhPRjHp8xVLOQQyAEhV5ctVMow1DgULZ8ua7cbtQI1GI5d/OmvZf1ifc3+fzZ0zT9OGzf9DGtMFLMObWbJYCCF0i9UuXL4ghHj1+uWCpXMN5zx9/kQI8fDJA1fn4kKIzOaZZ0yY3bZrK++xQ8zNzOdMXaBSqb72cHVq1Fu8YuHwcUPXb15XpVK1yuWrlHErV7J4qW8XqdVqZ8ybut9/b/tfOnZu31U3mJCQEHjzmonKZOfe7Url5zcpXea7fuPaf3g1gLSPQAYAqcrSwtLwplKpNDXJFB4elpCQYGxsrBv8+9IFt+KlLl+7NH/JnBGDR/+HRzE3N//apuDgICHE4eMBh48HJN0aHRWl/3MZt3Jl3MqdOX+qUoUqupOJX1PEsejKhWtmzJ92/cbVm3duLFmx0NzMvH6dRkP6Dc2RPefX7rVl+18+a5a6lSg9ZtgE/RK6mNiYsPCwqOio+UvmJL3LxxAJLpkbN3CgSPLzhTbu7vrDMDaGGwYO1B9u+dp4NsPxr/1S9ZfGDR80OePJKeYf42PHJr+Y/6XI9POKpRwCGQCkqri4f1zBS6PRxCfEZzIzUygU+sHxIye3aNyycev6q/5cXrdmfbd/O9T0XYyNVUIIn/mr6tSs9+2Zh4/7n71wWqFQHAzYH3DsUC2POt+YXLlC1Urlq7x49fzE6eNnL5w+cfqY77ZN165f2b3lgMr4C4fWzl88O2rS8Nw58yyZ42N47E2pUCqVRvlt7Y7uPWX4mgDpG5e9AIBU9fTZE8Obb969eff+bcH89obho0GdRpkymY0bMUmj1gwfNzQmNiYFC7AvYC+EuHT1YqLxZy+e3bx9Q/9YH4I+jBg31NLCcuemvRZZLEeOH/Yh6L1+slz+jxOpYWGh129c02q1tnnytWvVYeGspecOX3IrXurugzsPHt1PWsPbd297D/pNIZcvnbc8Z45chptUKlXuXHlevn7x5u1rw/GIyIgr1y4FS3GEDEgFBDIASFW7D+zSRw2tVrt8zRK1Wt24ftOkMyuWq9S8ccs7924tXbkoBQuoXKGauZn5X9s2PnvxTD+YkBA/ZOSA+i1rPXz0QPdTleOmjnr7/u3ooeNdihUfOWT02/dvx00drdFodPOtrWyEEGrNpyuo9ffu27Rtgzv3b+t3aGqaSZe0jI2MExWg1WonzhgbHPxx1uR5rs4lEm2VyWT1azdMSEhYsHSuRqvRj2/f7de0bcNNfhtS8KUA0g5OWQJAqlKrEzr0aDN66LgsWSw2+23YvHVjRfdKjeo1STpT91XHY6eOLl6xsFb1OsWcnFOkgKw2WX8fMHzs5JG/dG7ev9cgt+Kl3r57s3Kdz/mLZ+vWrK/7bubOvdt3799ZvUrNpg2bCyFaNGm1c9+O3ft31qhWq1nDFrol/0KI7bv8zM3MPSrX+LV99+Mnj3bv22Vgn8EuxYrHxMYc8N93MGB/hXKVCtrZJyrgz81rd+/f1aFNp9w5c5+/eM5wk5WlZWEHp05tu+zet2Pz1o2RUZHtWnW0trK+cOnctDmTC9rZt2/VMUVeBCCtIZABQKry6jUoNDTk91EDPwR9cChYaIjXsF87dDcyMvriZBtrm9mT53Xt26nf7712bNybJXOWFKmhU5su+W3zb9yyfs7CmW/fvTU3M3Ms5DR2+MR2nh3kcvnVwCujJnjny5tv+oRZuhOpCoVi1qS5LTo0GTXBu0D+giVcSpYqUbp5o5b+Rw8OHtF/0exlDeo0Wr3kz7UbV8+YP/Xd+3cmJib2BRz69RzQrdNvSdeB7Tu0Rwjtn5vW/LlpTaJNjeo1WThrqbmZue/abavWrzh8zL9L7/axsbE5c+Rq1rjlwN6DdV8XBdIfWTJ/iwNIB3QXqfnaF3SQAclkssVzfBrUaSR1IUi78hfL5evr65nkW5ZAymINGQAAgMQIZAAAABJjDRkA/BxqNKryxUtIGNq5eV8Jl5KpVRGAFEMgA4Cfw5hh43U/H/QNdvnsUqscACmJQAYAPwfDXx8HkM6whgwAAEBiBDIAAACJEcgAAAAkRiADAACQGIEMAABAYgQyAAAAiRHIAAAAJEYgAwAAkBiBDAAAQGIEMgAAAIkRyAAAACRGIAMAAJAYPy4OIENbsXbZ3oO7pa4CQEZHIAOQcXl6ekpdQtoif/FC9vChumpVqQtJQzw9PW1tbaWuAukfgQxAxuXr6yt1CWnLiy1b8i5eLHhZgFTHGjIAAACJEcgAAAAkRiADAACQGIEMAABAYgQyAAAAiRHIAAAAJEYgAwAAkBiBDAAAQGIEMgAAAIkRyAAAACRGIAMAAJAYgQwAAEBiBDIAAACJEcgAAAAkRiADAACQGIEMAABAYgQyAAAAiRHIAAAAJEYgAwAAkBiBDAAAQGIEMgAAAIkRyAAAACRGIAMAAJAYgQwAAEBiBDIAAACJEcgAAAAkRiADAACQGIEMAABAYgQyAAAAiRHIAAAAJEYgAwAAkBiBDAAAQGIEMgAAAIkRyAAAACRGIAMAAJAYgQwAAEBiBDIAAACJEcgAAAAkRiBDeubvL0JD1V/bqtWK3btFfLwmdYsC0hJ/f3Vo6Fe3arVi925NfHyqlgRkSAQypGfGxrF2dorFi4VW+49xrVb4+YnixcXBg8LIiC5AxhVrbKywsxPjxyeOZQZNIjcykqw+IMOQaRO9UwHpi4eHOHZMuLiIMWPEX38JIcQvv4gJE0RgoFCpxIMHcXnzGktdIyApXZNYWooBA0SePGL9etG3r75J4h48MM6bV+oSgfSPQIZ07vjx2GrVVLo/y+VCCKH5/1OUffqIhQslLA1IE2KPH1dVq/bpBk0CSIRAhvSvZElx9WriQQ6PAZ/pDpIlwuExIBWxegbpX+fOUUkHu3UTpDFAJ3bcuC+MdutGGgNSDUfIkP6FhMQ4Opq8e/d5JHt2ceNGbLZsKinLAtKUVq3Eli2fb2bPHnvjhipbNilLAjISjpAh/bO0NBk79h8jY8cK0hhgKG7OHKEyaIqxY0ljQGriCBkyhNhYdaFCiufPhRDC1lbcv69WqRRSFwWkMX37ikWLhBDC1lZ9/75CxYcWIPVwhAwZgkql8Pb+9Gdvb0EaA5KK8/b+dJDM25s0BqQyjpAho9AdJBOCw2PA1/XtK7ZsUT97RiADUplS6gLwA20xXKILYerubiKE2LUrRohoqYtJQ8qXL583o36Zjh5JJI+9fWjRoupdu+gQQxm5R5BqOEKWnslkMqlLwE/A19fX09NT6iqkQY8gOTJyjyDVcIQsnZvvs7le45ZSV4G0q3DOjP6PAD2Cb6NHkDpY1A8AACAxAhkAAIDECGQAAAASI5ABAABIjEAGAAAgMQIZAACAxAhkAAAAEiOQAQAASIxABgAAIDECGQAAgMQIZAAAABIjkAEAAEiMQAYAACAxAhkAAIDECGQAAAASI5ABAABIjEAG/LuQ4I/7d/nduXVd6kKANIoeAf5HBDLg3z178rB/j9Y7/TZIXQiQRtEjwP+IQAb8OwtLq7qNWjoWdZG6ECCNokeA/5FS6gKAn0D+Ag4Llm+Wugog7aJHgP8RgQypRKvVnjhywNQ0U9kKVcPDQi//fVYIUapcRXPzzPo5z548vHn9SmWP2mq1+u9zJ23zFShcxFkmk+m2RkaEB169GBUVWdytrE3W7Pp7nTl5JDT4o0ftBiYmpoaPeOXi2TevXlatUTeTmXkyi/zw/u3N65fj4+OLupTInSeffjwk+OPZk0cKOBR2KuqakBB/1H9fQnx80rvb5i/gXLyU/mZMTPTN65ffv3tjV8ChkJOzQqH4nhcMGc4Xe6REqbIWltb6OcnpkbDQEPvCTgUdnPTjP6JH7As52hUsrH+IZPaISqWqVqu+XP6pF+gRQI9AhlSi0WgmjOifJ2++Zs+fjh/hFRUZIYSwsraZOm9l9doNdXNOHfMf5913xh9rJo8eFBryUQixaJVfrfpN4+JiF8wcv3b5gtiYGCGETCZv2OyX0ZPnWVrZCCHOnTyydMG0Rau31qrXRP9wsbGxA35ra2RkVLNu4+SUFx4WOmJQ90N7d2i1GiGETCar06D5hJlLLK2s9etjuvYe7DTGNTYmxrv/r+FhoUl30rpDd10g06jVq5bOXTJvanj4p2l589mNnbqwao26KfRyIh36Yo8YGRt36u410HuikZFR8ntECOFYxGXCzMUlS5f/QT0ihHAoXGTirKWlylZMfo9kzZ7j2MVHxsYKjUazaskcegTQYw0ZUtWtG1fHj/Dq0XfosYuPth44Z2tn369rq/NnjhvOGefdt02nHruPXp2zZH2V6nU1Gs3Iwb/5/DHDo1bDNb4Htx260LXXoP27/Lq3axQTHSWEaNSirVwu37vjL8OdXDp/6vXL5w2atjYyNk5OYRNHDQjYv7PPoJHbD13YfeRy116DD+zZOnFk/6QzTUwzbdl35sCpG/r/9p+8UbVmvUxm5h269dMd55g9ddSMid4uJUv7rN+178T12Yv/NDZW9e7c/OTRg//rK4j0LlGPlK9UfcWiWTMnemu1Wv2cb/fInqNXJ8/xCQ0J7tKq7uOH935Qj4yaOPfVi2d9urQICw1JNPNrPSKE+K3fMGNjlRDCd8NKegQwxBEypKqw0JARE2Z37tFfCJE7b77Zi9Y1qFp83vQxG7cflck/fTxwLVlmoPdEmUzmWMRdFSvZAAAgAElEQVRZCHH21NGdW9Y3at5m5sK1crlcCOHs6pYtR66pYwf7bVrT/tfe9oWcXEuWPXnkYGhIsIWllW4nu7dtUiiUTVq2S05VsbExp44ecilRpt+QMbpTMENGFrty8UzIx6C4uFjd+4eeQqEo6OCov6nVahfNmXQ8YL/3uJmFHIsKIR49uLN66bzylaov37BHd1TDoXDRClVqNKxWfMqYwbuOeBgZJev9DxlToh5ZtHprm8ZVNq5Z2qFbX9t8BXRz/rVHChdxLl2uUpOapTeuWTJy4twf0SOORV0jI8N3bd305NF915JlDCd/rUfadPqtY9e+Qgi1Wr166Vx6BDDEETKkKksr61btuupv5rOzL1u+yrVLF969e60fLFu+in5hihBi/05fIUTnHv3l8s9/XRu3aGusUh3Y4yeEkMvlTVq2Cw8PPRawT7c1IiL8yKHdJUqVLVCwUHKqUiqVZuaZ79y6vnPL+uioSCGEXKHYtOvEys37EqWxpLZtXvvHrAnulTw6dO3zqeBdfgkJ8e1/7a17p9GxyZq9Zr2mD+/fuX/3VnJKQoaVqEdUKlXrjj3i4mJPHN6vH0xOjxSwL1zGvdL5Myd+UI8IIXoNGLH/ZGCiNJaUvkdGTJij+9z15OG9xw/v0SOAIY6QIVUVdHA0XD4sk8mKuJQ4ddz/6eMHOXLm0Q1a22QzvEvgtUtCiL5dPZXKz39dtVptQkLCi2dPEhLilUqjRs3b/DF7wpYNKxs1byOXyw/s9gv+GNSha1+ZPFkfORQK5dipC4YP7D7Uq8vwQd0dnZxLu1euWqOee8Vq3zibo9Vqt/+1bsyw3mUrVF20aov+M/2tG1eFEBNGeE0b/7vh/NCQECHEw/u3izqXSPYLhgwnUY8IIXR/YR7cu60fSU6PCCGCgz6oTE1/UI84lyhdqmyFKtXr2WTN9rV7JeoRlerTxxt6BEiKQIZUlfRMhO6DvsHymMTUCQlGxsb9h44zNTVLtMnE1FT3da0sFpZNPTusXjr3/t2bhRyLbV7nkztPvhrJW6qsU6la7aN/Pzhz4vDhg7vPnTq2bsUf61b84Vy81Ppth7/2BbSDe7aOHNzDwbHo4tVbM2ex0I/HxcQIIXr0G5o1W86k9/rXwwnI4L7WI9/wjR4xVhn/oB7xXb/Cd/0KM/PMqzbtK1mm/Bfv8rUeiY2lR4DECGRIVR/ev9VoNIYnVp48ui+TyXLltv3aXbLnyn3n1nXn4qUKOzl/Y8/NPDusXjp3/y4/oxZGN65d6tJzoEpl8l21KZVGVarXrVK9rlarvX/3pnf/rjeuXQo4sKtxi7ZJJwdevejdv6ulddZE7zRCiDz57IQQdvaFK1er/V0FAF/rESGE4XVYEpGkR968euGzcMaG1Ut8Fs1csmZb0snf6JG8tvQIkBhryJCqnjx6cNfg1+5CQ4PPnTpauIhzHtuvvtlUqlpLCLFl42rDwcCrFyu45Jkwwks/UsipmHPxUocP7Dqwe6tWq23asn3yq3r6+EHzOuWmjh2iuymTyQo7Obdo3VkI8THofdL5b1+/7NetlVqjnu+zyTZ/wURby1eqLoTYsmGV4dfiNGp1t7YN61d1ffb0UfILQwaUqEe0Wu3enb5yubzK168H8cUeiYuNbV6n3OBenxshZXskVx7bfoPHCCE+fvjuHinqUjKTmTk9AhgikCFVqdUJQ/p20n0VPz4+fvq4oWGhIT36DlUovnqwtlmrjnls869fuWjV0rnx8fFCiIf3bg/r/2vQh3cVqtTUT5PL5Y1btL1/9+Yan/nOxUsVciqW/Kpy5s4bER62aZ3P4QO7dO8QIcEft/211sjIuELlGokmR4SH9fm15dvXLyfNWla2fJWke/Oo3aCYq9vBPVvnTBmpuzBHbEzM3GljThw5kC17zjx58ye/MGRAiXpk8dzJhw/sqlG38TeOfiXtkYjwsPEjvG5cu2TYCCnbI/Hx8auWzhVC6K5nYehfeySLhWXdhi3oEcAQpyyRqqyzZrPJmr1+FZd8dvZBH95HhIf1GzKmYdNfvnEXC0urJWu29+3qOW3c7wtnT8yaPefTR/eVSuWQkVNq1GlkOLNeY8/ZU0aFBH/sM2iUPHlLlXVUKpMpc5f36tS8V+fm1jbZsmbP8ezxQ7U6YdjYmUnftPw2rb5+5W9jlWrZH9Onjx9quMnSynpHwEWVymThyi19fm257I8Za1cstM1f4NXzp5GREa4ly8xcuJZrkePbEvVIWGhw2QpVJ89e9o2VZIl6JFce22dPHsbGxFT2qN2pu5fhzBTskZfPnkRGRnjUbtilR+LL9X2jR4QQc5duKFex2pCRU+7cuk6PAHoEMqQqM7PMKzbu2b9ry5kThzOZmTdq3satTAX91nx29nUbtcxnZ5/oXk7FXPceu+a/f+fF8yfDQkNa/NKpTsPmdkm+rp8te87ufYY8uHe7wTcT3heVLlfp0JlbB3ZvvXH9UkR4eN1GLRs1a5O/wKdKDH84WVfkF3eSJYuF7k0uj21+v/1njwfsO3f62Ns3rypUrlGuYjWPmvUVSjoO/yJRj1StXq9K9Try/88oyemRj0EfqlavW7FqrQqVqyf6EmUK9ki1GvUrVqvpXqGa7iGS2SNCCEtrG90l++kRwJBM+42vt+EnJ5PJ5vtsrtf4q/8ypia1Wl27QhEhxKEzt/kEnHYUzqn09fX19PSUuhBp0CP4Vxm8R5BqWEMGAAAgMQ4OI507c/JIaPDHb88pX7m67kfEgQyIHgHSAgIZ0rk5U0Zdv3Lh23P89p/lzQYZFj0CpAUEMqQShUJx+Py91H9cv/1nUv9Bgf+AHgEyMtaQAQAASIxABgAAIDECGQAAgMQIZAAAABIjkAEAAEiMQAYAACAxAhkAAIDECGQAAAASI5ABAABIjEAGAAAgMQIZAACAxAhkAAAAEiOQAQAASEwpdQH4sfr3aN2/h9RFAGkYPQIgLSCQpXMdf+tYolRxqatA2jWox2CpS5AYPYJvo0eQOghk6VyJUsXrNK4jdRVIwzL8mw09gn+R4XsEqYM1ZAAAABIjkAEAAEiMQAYAACAxAhkAAIDECGQAAAASI5ABAABIjEAGAAAgMQIZAACAxAhkAAAAEiOQAQAASIxABgAAIDECGQAAgMQIZAAAABIjkAEAAEiMQAYAACAxAhkAAIDECGRInwKvBBbL6TxrwmypCwHSKHoESFMIZAAAABJTSl0A8EO4lHS5+eaG1FUAaRc9AqQpHCEDAACQGIEMP6vIiMg/pv/RpGpTlzyu5Qq5d/XsemDXAa1Wq9tquD7m4rmLxXI6f/G/cb+P1+/wwd0Hw/p4Vyvu4ZzLpUWNlts379CoNdI9P+B/pdVqN63elJweiYyIdC9c/rt6pEGFBjPHzwoNDpXu+QHpCqcs8VOKjIjs0uLXVy9eterYqotd56jI6OMBxwf3GHKrz61Bowclmpy/oN3UP6YYjkSERyyY9odara7doJbufct3ne+0MdMLOTq079Yua/astwNvTxg24cCuA7OXzTLPbJ66Tw5IGQtnLNywcmPbrm3/tUeMVcajp49WJyToR/61R549eb7Ld9e+7fsWrJ7vUtIl1Z8ckN4QyPBTunbp2s1rN4eOH9rpt466kV86terUrPOdm3fj4uKMjY0NJ2fLnrWxZ2P9zajIqK6e3WKiY/5Ys6BCtQpCiMcPHk8ZObWUe6llm5YaGRkJIZr+0tStnNug7oOXL1gxcOSAVH9+wP8qNjbWb71fw+YNvIb10418o0eMjIwaNKuvv5mcHhFCtOvatmm1ZiO8Rm4/uk2p5N0E+J9wyhI/pSyWFkKI3Vt2Xbt0TaPRCCEUCsX6XX/6bF6W6J0mkYT4hKG9h12/fH3wmEGVa1TWDR7YdTAhIaHtr2307zRCiGq1q2XNnjVgX4Barf7xTwhIYUqlMpO52enjZ763R9QJ6mT2iE1Wmxr1ajy6/+jl85c//gkB6RyfafBTKuLsVKtBLf+9/m0btLOytnKv4l7Jo6JHHQ8LS4tv3Eur1c6bOv/owaO/dPqlfdf2+vEHd+4LIWZPnLNo5iLD+WGhYTHRMdFR0Zy1xE9HoVD0HNhz1IBR39UjQgi/DX7J75GgDx+FEO9ev8tfIP8PeypAhkAgw09JoVDMXDpj3479e/z2/H3m7/079u/fsd9YZdyjf4+eA36TyWVfvNf2zTvWLFnj6ub6+9ghhnOCP4YIIezs7UxNTQznF3AoIJcrZLIv7w1I45q0amxlbfnn8vXJ75HnT5/PmzL/u3pECGFmbvbjnw2QzhHI8LMyMjJq4tm4iWfjmOiYyxeunDxy0m+938IZC0uXL12mfOmk8y+evThp+KSceXLOWznXNJOp4aacuXMIIfoM6e1cwjkVnwHww1WpWaVKzSrJ7JHwsHCvLv2NjI3oESD1sYYMP6WrF6/Onzpft3LFxNSkQtXyw8YP7T24lxDi5tUvXOvy+dPng3oMlsvl81bMzZErR6KtRVyKCiGO+R83HIyJjpk2Zvpf63x162+An0vQh6CVC1ddPHcpmT2SEJ8wvN+Ie7fuDR49OJk9IoTYvGbzolmLQ4JDfuRTATIEAhl+Ss8eP/eZv3z5ghX6tKTVap8+fiaEsHMokGhyVGSUV5f+ocGhUxZM/uLn+3pN62bOknndsnVXL17T723JnKV/+vx5+/ptuZw2wc9HJmTL5i1bvXh1cnpEv7yysWfjRi0bJt1b0h4RQlw+f3nGuJlbN241+ed5TAD/Aacs8VOq07j2X2s3b/lzy50bd8pVKqtUKi9fuHLh9IXK1StX8qiYaPKqRavu3brnWMzx1vVbf5+5aLjJNJOpl3e/bNmzTZo38fdeQzs161SjXo1Cjg7XLl0/eeSkg5ND/+FeqfvMgJRhndW6u1f3eVPmtW3Q7l975MDOA6sXrzbNZJojV/apo6YZbvpajzx+8Nh/X4BMJps4e4KJCYEM+F8RyPBTUqlUPpt9Vi1adeTA0bVL18nkssJFCv8+dkjbrm2TXg/pY1CwEOLuzbt3b95NtMkmm03foX2EEDXr19y0b+PqxWsunL5wcNfBfHa2PQf+1qV3F75fiZ9Xt35dzTOb+a7b8q898ub1WyFEdFT08gUrEm36Wo9kz5m9doNa3by6FXIqlIrPCUi3ZPqf0UD6I5PJ5vjMrtO4jtSFIO0qltPZ19fX09NT6kKkQY/gX2XwHkGqYXEMAACAxAhkAAAAEiOQAQAASIxABgAAIDECGQAAgMQIZAAAABIjkAEAAEiMQAYAACAxAhkAAIDECGQAAAASI5ABAABIjEAGAAAgMQIZAACAxAhkAAAAEiOQAQAASIxABgAAIDECGQAAgMSUUheAH2vtsnUHdx+Uugog7aJHAKQFBLJ0ziROYxatkboKIO0yFZosWnoEgMQIZOmcV/t2LWrVlLoKpF0mbqWlLkFig3q082xEj+CrZLkzeo8gdbCGDAAAQGIEMgAAAIkRyAAAACRGIAMAAJAYgQwAAEBiBDIAAACJEcgAAAAkRiADAACQGIEMAABAYgQyAAAAiRHIAAAAJEYgAwAAkBiBDAAAQGIEMgAAAIkRyAAAACRGIAMAAJAYgQypKjwysvfESbmqVTcvU65JPy+tVpt0zh8bNrYd6v0hONhwMEGtdm7afNyiJUIIrVYcvZBZo0nFur9JoxUB5zJ/beuGPdaTl+VK3YqAZNl3+LRb7XZK27I2RasfOfV30gkvXr1t1cPbZ/02KaoDMhYCGVLVlOUrVm3fYWqiqlOxYkmnIjKZLOmcC4E3tgUERMXEGA4+ev7i4fPntSuU12hFh+EFek/M/6UsJ4EEtWju5TB0tu0Xt954YDJgWr4Tl74a1wCpvHn34Zeew6/dvFepbIlybi62eXImnRMWEbllT8Cl63ekKBDIWJRSF4CM5eSlyypj45Nr1+TJkeO77nj43DkbS4sSTo5arbh00+yHFfjdNBrZlTuZbCwTkm4KvG/atJ9DeJRCirqAfxF452FEZFSfLq0WTh4qdS0AOEKG1BUVE22ZOXM2a+vvupdWq9159GjtChUymZr+sNJS0os3RiPm56nSySlH1nipawG+LCw8UghhZ8v5dCBNIJAhlcxd96eJW+lbDx+9DQrKUq68iVvpZ69fCyGev3nTc8LEfDVrZylXvu5vPc9du570vm8+BJ25eq1pjepqtXCo6/L4perxS5VZmVKVOzrpJsTFy5b7Za3To3D2KiVM3ErZ1XZt713g6p3P6a1yR6fKHZ1OXjJ38yxq6V6yeX/7qBiZEOJjqOL3WXkdGzpnKuVW5pcia3bYHD6X2cSt1KnL5vr73npo0mWUXYHaLqal3FyaFvOem+dj6KeDXkfOZ85Szu1tkNGth6YmbqV8tmTTjbcZar96e9ZZg5/vXPDgB7+uwHeLjYvPWbxOy+5DhRC/T5gvy136t6FTdJuu3rxXq3Uf43zutqUajJq+OCY2TupigYyCU5ZIJR5ly8zzHjZtxcrI6OhxvXspFArLLFlevntXpVPn9x+Dm1T3KFKw4JmrV+v17JUzW9ZE9z1x6ZJSoahYooRMLsb1eTVifh4hxKger7PbxOtWcXUYXmDnEasKJSJ6tnqnkIvzgWZb/a32n7Q4v+m2Q75Y3U5evDVq/bt9rfKh9SqFqjUyU5U2KERRq7vjrYemNcuHdmgUdOOBad/J+UsXizR8aP+zWX4ZXFAhF01rBOfPHXf9nunCjTl2H7P0X34vd/b4QvljZv/+fNzi3Gamau9ubyqWDNfdq1/bt7UrhllmVgeF0GJIc5QK+RTvPucuBy7fsL1ZPY8alcsWLVRACHH0zMWGHQZYZsk8sEfbmNi45Ru27zhwTOpigYyCdwukkhJOTiWcnHy2bNFqtd1btjA2MhJCzFi56m3Qx00zpjep7qE7Nblgw4Zhc+Ylum/A2bNuRYtaW1jIZKJ9o6BpK3IJIXp4vlcodFuz7Dxi1bpe0KqJT+Ryofsa5mSfXJOW5f7rgPXIHq91O3n93ti72+txvV/pdzt+Se5bD02nD3ru1e6d7tsFu49ZtB1qr58QHKb4dbSdVRa1//J7BW0/BTv/M1laDLTvOyXf1rkPbXPGd2/5fsaqnNYW6p6t3uvv2KruP74iCqQpCoXi1zaNLbKYL9+wvUIZ1z6dPYUQsbFxvYZNlcvlR7cuK1wwnxBiuFeXKs26S10skFFwyhKS0Wq1h86crVSyZGOParoRmUzWp3VrRzs7w2lx8fHHL16qVd79i1/JFEJYW6gHdXozvPtr+f//dZbJRP0qoUKIkLB/LKhvVeej/s9hEfItB62L2Uf3afNOv+OGVUObeHzOUtv8rd5/NBrS5Y0+jQkhapYPq1U+7NBpi2evjf/3FwFII85dDrz78GlHzwa6NCaEyJnNZtzgHlLXBWQUHCGDZGJiY5++ft2wahXDpKVUKquVKX33yRP9yJ3HT569fl2rQvmv7aesS2RZl0/nGRPU4uVb46t3Mx04lUUIERXz+SNHJhNNnuyfl9jfe2oSHKZsXf+j0iCzyWSiWtlwP/9P3zn4+4aZ7suSU5b/Y+FzWKQiQS279dAkf25W2CCdOHcpUAhRuVxJw8Eq7iW/fg8AKYlABslExcSEhYdnNkt8DYtE38H0P3s2d7Zsxeztxdddu2s6f32Oc9fNHr9QabUyIUR268RfbzRSauXyz9cuextkJISwsUh8uYqsBhewePraWAixalu2Lz7ou49G//YUgZ/Gh+BQIURWa0vDQYvM5hZZzL9+JwAphkAGyRgbGZmamMTFJ05O8QmfI5FWq/U/c7Z8iRIq46+eHzx8LnPzAQ5CiFrlw9o1+Fgof0zpYlFBIYrKHYt849HNM6mFEJHRic/ax8R9HslsphZCXNt6w7FAbJIdAOmKmamJECIm5h9/1dVqTVwcl24BUgNryCAZM1PTHDY21+7eTTR+88HnS0WEhIdfunmzVnn3f8wwWEum1YqJS3PHxcv2LLrvN/fhyB6vW9UJLpg3NiT8Xz5s2OeNVSq0gfdME13xP/D+54tlOBWIEUJcuJH4CMGthya3H5rExn15TRvwM3Ip4iCEuHD1puHgo2cvo2P4NAKkBgIZJCOXyz3Kltl/8pRhArv54EHAufP6m+evX4+OjfUoW0Y/opALU5VGrRG6IKXRivfBSlOVtoj9559aUqvFiq2Jr52RSO4c8RVLhp+8lPna3c8J7H2wcsOezydMm3iEyOXaOWtzhEZ87pSQcEVTL4fy7Yu8+6gUQijk2kwmGrVapJGfcgL+m5qVy2WzsVzz1+6QsE9Xb9FotPOWb5S6LiCjIJBBSr+18tRotQ379F23a/ethw837t3XpF//mNjPn8j9z55zLGBnm/Mfv7Jnnkn98q3xjNU595+yUMhFOdfIqBi515R8N+6bvvmg1J3BDDibRSbTGi7qT0QuE5O9XsrkoqlXodU7bG4/Mtl5xLJOj8KGK8PcikZ1b/H+9iPT2t0dtwVY3nlssuuoZd0ehZ+9Vnm1e2ubM14IIZcLUxPN45eqhRuz331s8sNeKuDHsshiPtm7z4vX71r95n32UuC5y4Hdh0z802+f1HUBGQVryCCl4o6OfnNm9540uce48bqR+pUr1a5QftX2HUIItUZz+Nz5upUqyuX/yFW/Nvtw+ZbZhCV58uaIu7XrxszBz1+/N9oWYLUtwEp3yKppjeDzm27X7l448F4mjUbIv5LKSjtHbZ75sPek/L0mfLrQRsOqIY2qhUxfmUu3/F8mE7N/f54za/zcdTn11yfLYqae1O/FwI5vdTdlMtGl2Ydhs/P+Ptv2ffDrCX1fffnBgDSvW9umMiEbPH5uhUZdhBBWllmWTh/ec9hUqesCMgQCGVLV9EED4+LilYrPl5qoVaH87d07r9y+/fLdO2cHB3tb2xv3H9Rwd89qaRkWEeFSqFCLWrUS7aRz0yCPsuFX7mSSCSETwsZSvW/J/YfPVbcempiaaN2KRNpYqoUQa6c8fvfRKDZOZmqindD3ZXikwkSlSbSrupXC7u4JvHzb7PV7I5dC0QXzxk72ySWEMDf9NFOpFMO7vxnY8e2VO5levTPOnT2uhFOUqeofpyf7tX1Xv3Lotbum+XMlvgqGeSb1humPslmxLBppTjk3Z99l01yLFtKPyGSybu2aNm9Q/fSFq5lMTcqXdlUo5NaWFgXz55G0UiBDkGlZ+ZJ+yWSyDdOntahVU+pC0qKEBDFleS6XQtHNaoYYjncdbbdxn/WjA4G5smWIFGXiVtrX19fT01PqQqQhk8l8l03zbESP4KtkuTN0jyDVsIYMGZRCIQ6ctugxzu7xy88X1Lh6x3T7YUvXwtG6X8kEACB1cMoSGZRMJry7vm471L5yB6cmNULyZIu//0y184ilQiHmDH2m4KMKACAVEciQcTX2CD2z4bbfIavbj0zvPzHJkTV+ZI/Xret/NPyFJQAAUgGBDBmaa+Fo18LRUlcBAMjoODEDAAAgMQIZAACAxAhkAAAAEiOQAQAASIxABgAAIDECGQAAgMQIZAAAABIjkAEAAEiMQAYAACAxAhkAAIDECGQAAAASI5ABAABIjB8XT+fOX78udQlAmnb2Ej0CQHoEsnRuwYaNYsNGqasA0q65PhvnCnoEgMQIZOmc77Jpno1qSl0F0i5Z7tJSlyAxegTfRo8gdbCGDAAAQGIEMgAAAIkRyAAAACRGIAMAAJAYgQwAAEBiBDIAAACJEcgAAAAkRiADAACQGIEMAABAYgQyAAAAiRHIAAAAJEYgAwAAkBiBDAAAQGIEMgAAAIkRyAAAACRGIAMAAJAYgQzpSkhY+LjZPn57Dn9jzm7/k+Nm+7wPCk7FuoC0gh4B0iYCGdKV0LCI8bN9/PZ+681mj//J8bzZIKOiR4C0iUAGAAAgMQIZAACAxJRSFwD8EJFR0eu27D399zVryyztWtQrV9L5azO1Wu2qzbsOHj1bqniR33t1lMtlqVspIA3DHmlQs1KtKu5f+8tPjwCpgECGdOjNuyD3hp3vPnhaqGC+J89fLVnnN2fcoL5dWslkX3gjWblpZ89hU0q5FFkyfTjvNMggEvXIH6v+alS7yqbFk80ymSadTI8AqYBTlkiHjp+9lD2r9bOLe24e83199WD1imUGj5t77lJg0pkbtx/o7T2tlEuR/Rv/sLGykKJYQAKJeqRDy/q7D52YMGd50pn0CJA6CGRIh2ysLDYvmZIze1YhRJbMZrPHDYxPSJi/YlOiaX57DncZMM7N1enApoXWllkkKhaQQKIeWTZjpL1d3uUbdoSEhRtOo0eAVEMgQzpUx6N8Nhsr/c0iDnZ2trlP/30tLi5eP7jb/2SHfmPMMpnuXjvXyiKzRJUC0kjUI6Ymqsa1qwSHhl27eV8/SI8AqYlAhnSoYL48hjcVCkX2rFZv33+MiIrWD3pP/kOj0QSHhm/afkCKGgEpJeoRIUTuHNmEEA+fvtCP0CNAaiKQIUPQarVKpUJusKi/XEnnwCObc+XIOmrGkvuPn0taHSA9rVYrhDA2+vxNL3oESE0EMqRDr99+MLwZn5Dw5l1Qzuw25maZ9IPLZ40qbJ9/ztiB4RFRvYdPVavVUlQKSCNRjwghnr16K4QoVCCffoQeAVITgQzp0P4jZ8Ijo/Q3r9289/zV22oVSiuVCv2gQiEXQng2qlW/esWAExdW/7VbomIBCSTqkfDIqB37j+bIau3sZK8fpEeA1EQgQzr06u37LgPG674v9jE4dMCY2WaZTIf26ph0pkIhnz9pSGbzTMMmLXj28o0UxQISSNQjHfqOfvH63dA+nZJeh4weAVIHgQzpULe2Ta/dvJe7RF1nj1a5S9a9evOe77JpToXsvjjZwc529MBuH0PC+o2codFoUr1YQAKJemTXoRMDurfp363NFyfTI0Aq4Er9SFcymZp4NqxZu6r7jFOw4kwAACAASURBVFFeq//adfHa7XoeFTr/0riYY0H9nFKuTp4Na2YxN9OPeP3a+uHjFx9Dwm7df+zsaP+VfQPpwRd7pHmD6u5uLvqfsqBHgNQn032zBumSTCbzXTbNs1FNqQtB2iXLXdrX19fT01PqQqRBj+BfZfAeQarhlCUAAIDECGQAAAASI5ABAABIjEAGAAAgMQIZAACAxAhkAAAAEiOQAQAASIxABgAAIDECGQAAgMQIZAAAABIjkAEAAEiMQAYAACAxAhkAAIDECGQAAAASI5ABAABIjEAGAAAgMaXUBeDHunnvUbYzl6SuAki76BEAaQGBLJ0bP9tnvNQ1AGkZPQIgLSCQpXOL5/g0qNNI6iqQduUvlkvqEiS2Yfq0FrVqSl0F0i4Tt9JSl4AMgTVkAAAAEiOQAQAASIxABgAAIDECGQAAgMQIZAAAABIjkAEAAEiMQAYAACAxAhkAAIDECGQAAAASI5ABAABIjEAGAAAgMQIZAACAxAhkAAAAEiOQAQAASIxABgAAIDECGQAAgMSUUheA9On6jas79m5/++6NXT47r56DVCpVognhEeEnTh8r4li0oJ29RDV+VURkhKmJqUKh+NeZWq322MkjQohqlavLZLJUqQ4/kEaj2Xnk6L6TJ5UKZdcWzUoXK5Z0zomLl94HBzesWkVlbCxFjV+l1WpDw8Mts2RJzuRHz19cuXOnpJNTQdu8KVvD8HnznR0c2jdqqLstwsNF8kpKDWFhInNmkahVQ0LkN2+K6Bitra22kIOQc5wC0uBvHlLepasXW3RounKdz54Du3bu26FUfiH3v3n7uvegHoeP+UtR4Lf4Hz3o2bFZXFxcciZrNJoxk0eOmTxSo9H8+NLww81eu67N0GF/7t6zeseOsIiIL86Z7LO83TDviKio1C7umz6GhvacMHHxX77JnB9w7ly7Yd4B586lbBnvg4OX+vpmMjUVQsiePTfq009+5mzKPsR/pNXKd+ww6tlbGLZqaKhy+AhVjVpG/fobDR1m3KatcZNmslu3pawTGRiBDClvz4FdcXGx3oNG3rn46MDWgOQcako7Fi6b//zls2ROlslkHlWqe1Th8Fh6oNFo1u/ZY6pSnd+44ePpk5Xc3KSu6DtcvXN37c5dyf9gUDBv3uY1axbMm5KHx4QQpy5fEUJUcisphJAfPSpP6cD332k0Sp8VspCQzyMJCUaDBisOHlI3bBDnsyxu4/qEQQNFaKjRsGEiJkbKUpFRccoSKS8o6IMQomGdxqamplLX8mPJ5fIJI6dIXQVSRoJaHRoekT93blfHwuk+Ydcs716zvHuK7zbg7NkSjk7ZrKxSfM8pTn7ipPzKVXWD+gnjxupOYqqdnLQFChj185IfPKhp0kTqApHhEMiQkj4EvT9/8dyLVy+EEMdOHbG2silX2j2rTTbd4pKXr1/cvH0jW9bsxZ1LfO+edau1TE1N3ctUCPoYdDXwslKhLFm8VJbMX1ieEh4edvXG1cjICEcHJ7v8BfRvroG3rj97/jRvHlvDAt69f/f35fOZzTOXdit79MThkNCQhPj4AwH7nAoXKeJYVP+8Am9ej0+IdyhQqIBdQf0ODdeQaTSagGOHEhISktajMlZVr1pT/v9rUzRazcNHDx4+epAjew5XlxIK+c90BDG9Crx3/9ajh9ExMUqFYlvA4bw5cpRzddFtio6NvXA9MCI6qqyLy3+IGrrVWh5ly1hlyfL8zdurd+5YZs5c1sXZJMnCSo1We/fx47tPnlhmzlLGuZiZweeZY39fDAoJKevsbJsrp25Eq9UevXAhOCzcvbjr2w9BJy9dFkLcfvRoq3+AfmWYVqu9++TJzQcPs1tbl3ByymyWKVFVuplhERH+Z798KMulUKHCdvn1N0MjIi7evBkRGVXU3t4hn22i2BqfkHD077/bNWggk8lk5y/I7t8XQsgCA+UKhaZMaWFp+WleXJzszh3Z23daiyzaYsWEmZl+D7Lnz2V37mrcywmNRn7psjZ3Lq2j46clX1qt7MED2dOn2oL22gJ2IihIfuWqxsVZ5Mz5uQKtVvb4sezxE2FqonF1Febmn8ZDQuTnL+iOe8kDDmstLbXlysrPXxBCqJs2MVxSpilbRmthIb9xk0CG1EcgQ0q6c+9270E9dH8eNXG4EGLDir8qlc/24eOHYaMHBfz/ijGHgoUG9hnyXXvWrdbKkztvnZq3J80Yp8s9KmNVv54D+vTwkss+ZZ3omOgZ86au37w2Lv7TIjBX5xILZiwqkL+gEMLY2HjwyAHGxsYHtgbkzpVHCJGQEN9/WJ+zF04vmr0sOPijvvgB3n17dOk10nFMeETY0NGD9/vv1Wq1uk2F7AtPHTezjFtZfVVCiGP7TsfFxQ0eOSA8PCxp8dmyZjvjf9HY2FgIcf7iuZETht1/eE+3yTaP7cTR0zwqV/9PrzdSzMZ9++au+1OXOdoN8/asXbucq4tWq125bfuoBX+EhIcLIYyNjEb26K7/m5BMAefOeU2dtnfJohV+W3ccOaq7u2XmzBumT6vhXk4/7dTly/2mTL396LHupqmJakCHDiO6dzNSKoUQUdHRHYaPaF6zxvppU3UTDp8736Sfl6tj4aOrVk7xWbFy2zYhxFb/gK3+AQuGe/ewbfn01euuo8ecunJFN9/YyKiHZ8vJXv1030XQVaWb+fLdu3bDvL9Y/LSBA3SBLDomZvTCRT5b/OLi43WbShUrumjkyBJOjvrJ958+e/ziZe0KFYQQyj8Wym/dEkIoN20WmzbHrV6ptbQUcXGKRYsVW/xk/39OUGtkpG7bRt23j1AohBDys+eU06bHjx6lnDdfFh4uhIifNkVTu7Z4/95ozFhdhBJCaMqWVTeobzR2XPyUyZq6nwKZ7HqgctJk+YMHn/asVKpbtVL37yeMjGRPnxoNH6EbNxo+QlO0aHy5dQnduqpr19QWLvyPJ5yQIOLihFHa+roGMggCGVJSmVLlLp8MHD5u6MHD+/f5+efMkdPcPHNsXGzXPp2uBV7p1PbXlk1bxcbGrNmwatAIr/+w/3sP7jx99nis98TCDoXvPbg7Z+HMWQumuzqXqFqxmhBCrVZ7/d770JEDzRu1bNW8jZWl5cUrf89ZOKvP4N92bNprbGTs6OA0tL/3+Gljxk0dvXTeCrlcvmLd8jPnT7Vu0bZ+7YYajfryycCOv7V98uzJoe1HLCwshRBjp4w6GLC/f69BNT1qK5XKsxfOzJw3tYfXr8f3nc6SxcKwNpVKtXPTXsMRrVY7eeb4IycO9+7WT5fG/r58vkOPNtaWVlPHzSxVovTT50+nzZnUvV/nlQvXVq3k8T+//PjvRnTv1rdtG/c27awsLA6vWG5spBRCbNi7r9+UqUUKFlg+fqy9re3xi5cmLFkaGR39H/bfZ9JkC/PMKyaMy5sjx5krV6evWj1s7twLmzbqjpuevnK1YZ9+NpYWi0aNcHd1fR8cvNxv69TlK4JCQuZ7D5PJZPUqV+rStMnaXbv+DrxRxsU5KCSk96RJJirVygkTTFSqqQO8arqXazN02KBOHQd26GCeyTRBre44fMSNBw9WThhfulixF2/fzl23buHGTTlsbH7v0jlRbXZ58lzb5mc4cufx447eI/LlztW+YQNdZ3UcMWr3sWNtG9Tv3KSJlUWWs9euTVy6rO5vPY+uXlWkYAHdvQLOnc1hY+NauJAQIn7hH4pNm5TLV8SPGK7x8BBZMgshFHPnK//6S12jhrpFc2FtJbt5S7lsmXLtOq1jYU3duvpHV06foW7TWlOnjuzhA02VKiI62qhPX/nDRwk9emiqe8gePFAuWaqcOs2wYNnNW0Y9ewkTk4Tfh2hKlhBhYYqdu5QbNwpzM3XP37RFi8Ye3G/coaMQIu7PdZ/yVras2mxZE70Ucv8AWXS0pvTPtHwQ6QaBDClJZaxSWat04cPSwtLGOqsQYseebVevX/61Q/cxw8brznG4FS/de1CPAwH7vnf/QR+DVi3+s0bVmkII9zIVrK1s+gz+7eiJw7pAdviY/6EjB9r/0nHS6Gm6B3IqXLSka6nGv9Tbs39X88YthRAd23TxP3ro4OH9h44csM2bb87CmfYFHEb+PlYmkykUShvrrEqFUiaTWVvZmJqaxsbGnjh9rLhLiQG9B+t2WKRw0cjIyB17tj5++qi4S0nD2uRyuX0BB/1NrVY7f8mcIycOt/+lY+f2XXXvahOmjVUqFJvXbLXLV0AI4VjIya14qdpNPSZMH3ugXCUjI6MU+v+A75bZzExlbCyXy5UKeTZrKyFETGzs+MVLbCwsDixdmt3GWvxfe3ceD9X6xwH8OTNjp0SbIluLJRSiRaRIJe1K+21PCyJZkm5ot0SL0nZvt1WLpLi0aZFouUIrFW0qioQsM3N+f5ybJlt01cjv8371R3PmOXOeOXxnPs55znMI0VJX11BVtV6w8Dten8PmnN+9U1pSkhBiZmhYweWu373n7fv37Vu35vF4ywICOWx23I4d6p2UmPamBgYURe06fmL6iBEG2loURa12dIi+ctVp/Ybze3Y5b/B/lvN6s6eHlroaIaSFtHRLGRlCiKS4ONP57Fc5SWlpc23HTR5uTQjppqpioK1lMnVaRnY2TdNVTjVKiIl1U1GpfJibn++6MUBCXPyIv3/rVq0IIdFXrkTFx88ZNzbEw51ZV6dLF6PuOv2nTfcK2XwsKIBZePbadRN9/X9Pxcq2JJKShBAiLU3k5QghJL+AHRnJV1XlrvEjIiKEELprV668vIjTEtbNW4KBjNbW5jksJhRFa3QjhLCOhLMyH3OnTeXNm0Moiu7apVy/p6jdpC9D7/l8TkAg4fEqtm2hNTSYZdxevQibzT4Szps+nUiIEzk5wowNkJMjtVxmRGVnc4I28VVU+Kam3/EjBviPcJUl/HBM8JoyYVrl1wCbzZ41be53vJSkhGRvwy8jkXW19ZgBXszDyOgIQsjMKXMEv2+0NLTVVNWj46KYhxwOZ4NvQAuZFqvWebt4OBJCAtYE1zgQjWksJSl9/+G9E6eOffr07zQHi+c5no+6XCWNVXc04simbQF9jft5u/swZ1SfZD1OvXtn0ABLJo0xWsu3tho0JPNJxqPMh9+xQ+DHSXnw8Pnr12MsLZg0xjDrZdjz81d+g4y1tGDSGKO3ni6Pz88vLGTO9N26d2+Yaf/KNMbk+5mjR/H5/MiLF5klsjIyy2b+duvePbulruGxsWMsBs0cM7q2zUlLSoiLiUXFX0q8c6fyJGn6yYiw31fWfb0CTdPO6zfm5OX9ucaPSXuEkCN/xxJCFk2cKLiuXreu+lpaF5OTmXfxoagoOS3Nso4LBVrIVBw6wF2/jgj84UErdyKEkKJiwYZ8QwPBcV3s2Diaw+FNnvxlYfv2vOHWX1bIyaFSU2kDA1rwR0NRvDFjqA8fqLS0Ot7vl+bPnoksWEQVFvKWOJGaZuoB+NHwawc/Fk3Tj59mtpKVY8ZsVeqs1qXG+cnq1qqVnLj4l5HOghNq0DTNZJp5TrOqTLTx4tVzmqYrDwwodezk7eaz1MvpVc5LtyWePXVrPT3BZrMd5i9x9Vri7OngttLFsKeRaT+zwQOHqKt2rvtbLelmopefh6qy2taAHWKi/47dZrp3NfGK1eivRozlvcsjhGQ9y9LW7N7QHQI/TnpmJiFE8NARIYRFUfpamrfu3Wvoq7WXlxd8yGF/+eW/+/gxIeRCUpLheDvBNmUV5YSQx8+fVy75bdSosKPH/76aoNS+fbC7G7v2KUzlWrZcPGnixr1/mM+Y1Umh/SBjY6t+/az69ZUQF6+7n/tORR2Li9u41MWqXz9mCU3TdzMfE0LsXF2rXIDy/PXrktLS13l5ci1b3khPL/70ydyoV60vzWbTysqEpsmrV6yHj6icHCotnZWaSggh3IqvWgruq4oK6tkz0rYNEYjFhBC625exX6ynTyk+n6Sni46z/ep1KriEEFZWFq+OXhFCCKHS00WWuJD8fO4yV75Jv7obA/wgCGTwY/H5/NKyUg6bXeWjXFRUVEJCsvb1asZmsWtLQnw+v7S0VExUrLNaF9bXX1Tqqp3btG4jeKZGSVGJzWbzeDwRzjfOEo4daauqrHbo2P5z8WcTkxMSkxPWB60x7TcgZMPWVrJyNa7y7Hn2Aud5bBYreP0WuVZfvlre578nhLRr005N9aubEzAnOmVbytb0YiA0zNSvItX+bBA80FV/dczG966ggBCi0LpNF2XlKk/pdOmq06VL5UNRERGl9u3uP3nCYlF1T+9HUZTPooX9evbYcvDwhaSkvScj956MlJWRCVzmOsl6WG1rXbl123HdenNjY/sJEyoX8vn80rIyMVHRbqqqlVfPMLqqqBBCmHOU5xKvd1FWVhK85rF6r27cFFm3nnr674ULfHV1vk53dk5OHauQCi4pLa1hen3BcfdFxYQQuk0bWq3abT+6daPbtavr9QlhxcZxVvkQmuau9uVbWdXdGODHQSCDH4vNZrdsIZuXl1ta9klU4FYzpaWlJSXFda7aMCwWS1pK+g1F1qzcINeq5qjEKPxY6LZyqaSEpFwref+Q9SZ9TCunt6iRfg8D/R4GfD7/YcaDq4mXDx07cDkhPnCLv69XDTOQFX4snOswMz///Wb/UN2vZ/dQaK9ACDE1GeDpsuI/vFH4STq0aUMIqT5ff0Hhx8bdUMd2bQkhln36rHH6xpUu0Zcvx11L7KHRLeXBw6UbA3b7rqrjSC1FUUNMTIaYmBQUfrxy+1ZU/KVD0TEL/PxMDQ0Ua8ooT1+8mOzmzmaxNrm5stlfgheLxZKRkqJyc7cs92wtW/OfDXw+/2xi4kBjI1btB+2o7GwRRydCUdz58/n6PWmNbkRamsrIYMfVebsOMVEiI0M+FpKKCiJ4r6qPX34KdKtWhBBaT5fr3cDKomn2/gOcTcG0rGxFoD+tp9ew1QEaFcaQwQ9npG9U8qnkdsotwYUpaf/weLxG3ApFUXo6PcrKyhKTEwSX8/n8wC0bT/99inlI0/S6QL+s7KfLnDyD1obw+Lxl3i5lZWWV7dkCR0Ty3uVt373177NnmK8lzW5ac36bvy/sICEk9e6d6n3gciucPRzuP7rnuMB52ODhVZ7V6KLJYXMuXb1YZa6yfYf/CNrq/zb3TSPtCWgcht21OWx2/I2bgvNccLncaykpjbuh7p07c9jsuMRrFV//YiSnpXkEBV+++W/hVHC5fjt2qikq/r091NrU9FBMzMnzFyobVzmSd//JkzU7dyX8k0IIkW0hYzNgQNjvK6eNsCktK3+UlV29Dx+Kisa7uL4rKNj5+8quX5+lpSjKsLt2aXn5pRs3BZfz+Xzf7Tv89/5R8qn07fv3D59mVR1A9vUxPNb5C1RpKW/6NN7c2bShATNJGJVdQ2eqvAhfU5N6n09lZX31are+fJ7QndVpERFWUhIRKGRCCPXgATtoE3n5knkbhF31+4598BAnaBOtpFTx516kMRA6BDL44SaMnSQiIrI20I85Z0cIKfhQsDF47Y/YEIfNWePv8/zll2E3J0+fCA4Nys17yzyMv3Lh0LEDfYz6TrKdot/DcNrE31LTU7bsDKlsLyoiWlpaWlZexnyGh+zYtCbAL/9zzwkhT7OeEELUq90TnabpDZvWnr0YO3aE7aK5jtUPXXTsoDjAdOCDR/e3hAXz6X9vcXPjdrLfhlVHjh+SkpIm0JSoduw4uF/fC8nJzJB25ke89fDhh18ng/+uk4KClUm/9IzM9bv38D+Hv4KPHx3Wrt+0f3/55/FVWw8dTsvICPZwk23RIsjNtYW0tOO69Tl5ecyzzHnDyuN5JaWlvtt3+G7fXjltWAWX++TFCw6brdxBoUoHKrjcWStWpmVkrJg/b7TFoOo9/G3kSA6b7bEpOOvVq8qFh2Ji1uzc9XdCgriYaMqDBxJiYsa6ul+txhzQKvw8Mx9FEUIogSNbJDeXvX3HN/cPz3YcIYQTEEQ+32GWupbIunDxSws5Of6AAVTOa3ZwCOF9vnlUSQln7Xr28ROEqSwWi4iIkE8l5PMOodLvskM2023alG/fRjf2LaQAvgNOWcIP162LRtC6zd5+ngOH9+9r3I8Qcv1GYifFTo2+oR46PQPWBvus87YcadbbsI+8fJvHTzJS0v4ZaT1qyoTphJCHGQ+cPR3atW0XsCaEuaRgqYN7SmrKtp0hml01mWNaBj0ME5MTRk20HmMzzsF+yRrv9ct93MyHmxj2NGol2yrnTU7Szev6PQxdnTyqbP1yQvyOvaFiYmI8Hs9+yZwqzzraO2trdt/oG+jmvTRoa0BUTKSOtu6HDwVXrl3u1Ek5aE2IlKQUgaaEoqjQFV5zVv4+w2tF2NFj6kqK9588ffz8maaa2v0nTxp3Qzu8ve19/VbvCDsWd7anpkZpefnVW7dLy8r8l7oMMjYmhMQmXPPesnXSsKEWvXszGW77Cq+pHp6TXN2itm6WlpRU7qDQQlpqe/jRxDt35o23nWxtvdJ+/pqdu3pNmGigrcXj8W7evfc6L2+Di3P1+1f6bt9x+tIleVnZR1nZdkuXCT6lrqS4xsmxV3ftXT6rXP0D9MeN729g0FZO7mHW0xvpd/v20Nvts4rFYl29/Y9Zr16yMjKC6/I1NWgWi7MpmI6O4S5ayLMZzjoTzTp4SOTRI1pdneTmsm7d5g80p9+8pXJeE5quOkrsM7q3MdfRgb0tVGSCHd29O/X6DfXwIa2lRTEXBBBCKIq73IPQfM7hI+yrV/la2oTLZaWkkOJirqcHkf13vkB+t27s2DjRCXb8bt24a9dw/P2pigqayxVxXFJli3wzM96C+f/15wrQQAhk0Ph66hrw+XzBG1naDBlp1s888kzE7ZSb4hISG3wCjHv1cfN2UVVRq+drMrfxrrJQQkLC2sqmp65BZZtR1mMGDxwSey76xu0bHwoLehv1dXf2MjbsTVEUn+afiY3qY9Rv+qSZHT9f8ikpIbnZf9vaAL+LVy4MMDGXlJRasnBpxw6KickJzEGyUcPHmPYbEB0XlXY3tai4qLuWjv3sRX2M+jKjmyt7RVGUtJS0tZUNIaSCW1H9AlJmCLZcK/mwkD33H947ezE280lGBwXFbUFhA80sBK+5A2FhUZS1aX9pgTv5tJOXj9wccuX27aj4S2/evRs9aOC0ETanLsafT0oWrfekcTXexrutnNwYCwuZz9tq3Uo2PGBj2qOM05cuPcjKaiEl5TVv7rjBlvKysoSQ0vLyqPj4EQMG+C5eVHnkddSggasdHZJS084lXh81aGBbObn4vXv3RES8eptbXlFBUZT77FkThw09FB1z7/FjCXHxxZMnjbEY1FZOrnqvlBUUxlhYMBuqcq0A85tMUZTd0CE2A8wiL1xMvHMn/0OhqYGBn8Pi/vr6TH+u3L49d9y4KkeFaR2diu2h7OhoUlRMFRfTrVtXHDrA+juWdes2eZ9Pa2uXu7sTeTl269bUs2eksJC0bEkrKvIsLKoer6Io3vRpPEsL9vET1MuXfGMj3mpf9vETrNTUL7ddatGCu2E9LyOTdfEi9fQpERfnzfiNN9iStGlT+TJc7xW0hgZ1/z4RESFFRbSiIq9tzeP96dbyNS4H+KGoht4GBH4hFEVtCwxjUgJAjZS1FcLDw21tbevRthmiKOrA+nVjLS2E3RGoFZWZScvIkLZtBQ+hcTZsZB8+Un7wAC1w76YfRFzf8P+5RuCnwRgyAABouliRp8SGWlOfb2RJCCHFxaz4eLpli3/nlQVoFnCiBITsydPH9x99Y5pNSQnJAf0H1j0XK8BPdvve/afMFXy166mhoaaEAeP/Cd/Cgj58RMTPj+vkRKuoUM+y2X/so16/4S5aSATGRQD86hDIQMjOxcet9vepu00nReX46IS6Z8IE+Ml2n4jYfeJE3W1CPNznKo37WT1qnmg9Xa6vDycgUGSZ279LZGS4Ls68iXbfWhXgV4JABkI2d4b93Bn2wu4FQINt9fLc6uUp7F78X+APsSq3GESlp1O5eXTbtrSmJhGt70UVAL8KBDIAAGjyOBy6Rw9cgwbNGAb1AwAAAAgZAhkAAACAkCGQAQAAAAgZAhkAAACAkCGQAQAAAAgZAhkAAACAkCGQAQAAAAgZAhkAAACAkCGQAQAAAAgZAhkAAACAkCGQAQAAAAgZAhkAAACAkOHm4s3cAue5wu4CQJM22c19spuwOwEA//cQyJq52dPm6vcwFHYvoOlCZEeNQN1QI/BzIJA1c/o9DK2tbITdC4CmCzUCAE0BxpABAAAACBkCGQAAAICQIZABAAAACBkCGQAAAICQIZABAAAACBkCGQAAAICQIZABAAAACBkCGQAAAICQIZABAAAACBkCGQAAAICQIZABAAAACBkCGQAAAICQIZABAAAACBkCGQAAAICQIZABAAAACBkCGQAAAICQIZBBo9l/5E9lbYWUtH/qaGM3Y5yytsL7/Pc/sV/fo+RTyap1K/IL8uvZPmxvqKahelFx0Q/uF/zaUtL+UdZWWO3vU0ebX6VG+DQ/8kzE6b9P1bN92N5QZW2FmLNnfnC/AH5VCGQANQgODdzz1y6apoXdEYAm6tjJcIdlC+r/RwsA1A2BDKAGFRUVDWo/d4b9/ZuPpaWkf1iPAJqWsrKyBrWfO8M++27OUEvrH9YjgF8bAhkAAACAkCGQQSMrLy/ftC2g32AjNV3F4eOtDoT/xePxamv84NF9zV6d9fvr3H94r56vv9zH3XLkgMKPhX4bfu9r2Uule4fBo8x3/rGdy+UKNnuT+8Z7tWd/q97K2grm1ibb92wtKytlnnr3/l3vgfrqukrJt5Iq299/dE/DQK2fpdG79+/sZozbvS+MENLTRNvQVLe8vJwQ8vLVC/eVrn0teylrK/QaoDd/yezbd25Vri44hszjd1dlbYUa/1UOoKFp+lx83JjJlDYY5QAADKFJREFUNmq6ijp9NOYsnnHrnxsN3NPwy6LJ+fizg0eZ16dGCj8W2kwYqtK9w56/dtbzHDozWutR5sNjkeEWI8zqUyO9Bxm4ebs8f/mMeao+NeLl604I8fJ1V9ZWSLubWp8aqSyBq4mX61kjk2dP0DLq3LlHpxF2w2LPxzR8XwP8MjjC7gA0N8t93N68fT3SerSUpHTM2dOeq5bdSU9Zt2oji6qa/ouKixyWLZCRkv5r5+FuXTTqv4ni4qKpcye+fpPTv68pn88/dzHOb+Oqd+/fuTsvZxo8ynw4aZZtQUGBhfngsSNt0++lrg3wO3fx7L6wg5ISkvJy8utW+c9cMM3L1z3ycLSEuERpWenS5U4V3Ir1PgHycvIzpsyiKHItKcHDxUtOVo7NZr97n2c7bXTBh3xrKxslxU4vXj4/E3f63MW4/WGHexv1rdK9QWaWCu07fPVOi4p2/rldWkpGo6sm803jH7J+S1iwlob2gjmLCz98iDkXbTt99AbfwHEjx3/vjodfxvlLZ/fs3zl8yIiBphbfrJEZ9lPu3kvzWb5mqt10iqLqv5VNoYHnLsQOHjREt7veN2sk+3l25JmI6LgzB3Yf0dXWq0+NtJZvHRUTaTN0pJGBsUJ7hQbViGJHJZfFy756p7XUiGJHJbsxk8TFJRKSrs53mr3RLwg1As0VAhk0sg+FH04fjeuk2IkQ4mjvPGPB1CPHD1oPHm5mYi7YrORTyVyHmW/z3h7Ze7xBaYwQ8jLnpZqK+sHTV6QkpQgh2c+yrMdbhUccdlzgLCEuweVyly53KioqOrjnqJGBMfPhvu/QXu/Vy4O3BXq4eBFCzEzM7cZNOhD+14492xztnYO2+qffS7OfvahfbxNCiNWgoUk3r19LShg/eqJcKzlCSETU8Zc5L3Zt+dPSfDDTh/FjJtpOG/XHwT3Vv2wszAdbfG7GvNOJM23ZbHbIxm2qymqEkITrV7fuDBnQf2BY8B4xMTFCiPPiZZNnT1i+ys3IoDez66AZe5L1OHBNyGibsRRFfbNG/rlze9Xy1VMmTGtQGiOEJCRejjwcrdlNqz41Qgixn7Vw/PTRTm6LYiMuiIiIfLNG3ua+jYqJNDbsM9VuOiFk15876l8jKp1UHeYvEXyntdXI9qBdEhIShBA+n+/kvgg1As0YTllCI3OY71T5cSkhIbFi2UrmgizBNuXlZQud515PvubvG9TQNMZY6uDOpDFCiHInFX1d/Xfv8z58KCCE3En75056yrhR4yu/aSiKmjx+mqqy2vFTR0vLSpklHi4rVFXUQndtOXz84O59YT119ZcsWFrbdx5zLjI3703lOSN9PYMT+0+t9l5Xdz+53ApnD4eU1NueLivM+w9kFu4/8idFUd5uq5g0RgiRbSnraL+ktKw0IurYd+wN+LX0NerHpLH61IjvirXfkcYIIeNHT2TSWH1qhBDStXM3u7GTHz/NZMYPNJEaYdIYIYTFYk21+w01As0YjpBBI+tr3F/wYWe1rm1at0m/n8bn81msf/8AcHRbeP1GYof2HU36mH7HJkRERFWUVQWXtGjRkhDCDMRJvp1MCHmV8zJke5BgGzabnZv39vXrHGZdGWmZDT4Bk2aNd1+5VFpKOnBtSGU8qs5q0NBtu7Z4/L5s/+F9piYD+vcx7aVv3FPPoO5+0jS9YdPamLNnpkyY9tuUWcxCLpebdveOuJh45JkIDudLARZ8KCCEpKbf+Y4dAr+WPsYmgrGm7hoZNXzMd6QxJmAJPqxPjWQ/zyKEPM7K1O2u1wRrhMl8qBForhDIoJHJtpQVfMjhcCTEJT9+LORyuaKioszCG7eS9fUMbt+5dTwyfPKEaQ3dhLi4uODHdBX5+e8IIecvnTt/6Vz1Zz8Wfaz8fy994176xteSrpr0NWVOlNRGs5vW7i1/bAhel5qecvdBeuiuLdJS0sOsbJYuXtaubfva1joacSTsj+36PQy93XwqhweVlpUWfiws+VQSHBpYfZX3BU19OlD47xpUI8GhgZ4uK75jK9LStU7CUneNfCopqfw/agTgp0Egg0ZWXv7V7ER8Pr+CWyEpJcVmsysXrlq+euyIcSPshoXu3jpmpK2EuEQjdkBUVIwQEha8x8piaN0tz186m5icwGazY8/FnIuPszS3qqNx/75mJn1MX7x6fjnhUmJywuWE+PATh+6k/hN19G8x0RoOGyTdTPTy8+jQvmNoYJjgcQUOm8PhiCgrqVw8c1Vwn8D/jwbVyJ6/dg6xGKb/rUNNDYIaAWiCMIYMGlnavVTBhxmPH715+1pHS1fwg9XaykZSUipo7ebcd7neq5fz+fxG7ICOti7zRSI4RwBN849GHI48E1E5m+XDjPtLlzupq3Y+d+qSmoq6q9eSB4/uV7YX+foI3PUbiYePHeByuUodO00eP3WL//bkiykmvfs/zHyQkfmoeh+u37g2Z/GMdm3b/bXzUPt2CoJPiYmJdVHv+uLV84cZDwSXZz/P+uvwH3fSUxpvT0ATlXYvVfCXs+4aERUVc3RbmJuX24gdqLFGCCHJt5IOHTvwJvcN87DuGqk8mMdoaI3ce3C3oTXy5u1r1Ag0Ywhk0MhWb/TJe5fH/L/wY6HH764sijV7+rzqLXW0dSePnxp+4tCxk0casQMD+g/sot712MnwUzEnK79vIqJOuK5w3h++T0REhBmMYr9kbsmnT5s3hqqpqAdv2FpcUmzvPKfyZpSSklLM/BrMw6iYk24rl0acPl65FYqiPhYXiYqKtmndpkoHUtNTZthPFRcTP7DziLpq5yrPUhQ1a9ocHo/n7OlQ+LGQWVhcUuzi6ejl6/Eq52Uj7gpomqJiIi9eOc/8/5s14uHs9ex59rIVznXMVdZQNdbI8xfPFrnMW7nGi9CkPjXSQqbFd9dIyaeSxa729amR9/nvmIU0TQdu9UeNQDOGU5bQyOTk5IeOtRgxdCSLzT7zd9Sr1y9dHdx76PSssfHs6fMOhv+12t/HpK9Zh6/n7vpuYqJigWtDpsy2c1y28NjJcH09g8wnGWdio+Raya1esY7FYtE0vS7Q7/HTTKcFLloa2oQQHS3dWdPmhu7asi7Qz9drLUVRreXbEEKmzp3YXUt3o1/gwjkOsedjlq1wjok7raOtV1pWevHy+UeZDx3tl1QZH1NcUjxjwbSSTyVm/c33Hdpb/vUtmLQ0tO3GTrIcaDVzyuw9+3eNmDB02GDr8oqKmLNnXrx8Pn603eCBQxplJ0BTpttdb57jrDE241q0aPnNGpk4bvKp6IgLl8+diDpmO2pCo3Sgeo28efv6TOzpj0WFqzz92rVtV58a6aigSAjZHBacdOu6+5Ll9a8RQsgKP8/MJxlDB1t/s0YsRpgNG2wj10ou+VZSYnICagSaMQQyaGSbN4bu+WvnqTMR+R/ye+j0/N3T19LcqrbLxDq077BwroN/yPqVq5fvCN5deYnZf6SrrRdz/Oz2PVsvXY2/cu1Suzbtptr9tnCOQ/t27QkhlxPiD4bv1+iqaT9rUeUqDvOWnL0QezB8v6W5lZmJ+bDBw89ejL2aePlp9pOlDm4qnVQiD0VvDgu+dv3KxSsXpKSk9Lr3cFrgMmzw8CqbLisry3uXSwiJiTtTvWM2Q0fajZ3Eolje7j69DIx37wvbsTdURES0u6aO80LXUTZj2CyMmGn+xtjY/jZpZuAW/5c5L75ZIxwOZ9Xy1aMmWq/euGqQmYVcK/lG6UOVGmnZQtbIwGj29Pm9e/WpZ41oa3VfPM9p/5E/L1w6N3LY6FHDx9SzRpg5/etZIweP7o84fexTyScVZdUVy36fMXU2agSaK6qe9+KAXxFFUdsCw6ytbITdEWi6lLUVwsPDbW1thd0R4UCNwDf9n9cI/DQYQwYAAAAgZAhkAAAAAEKGMWTQJLx89aKvZa9vNos8HF3b2GeAZm+QjWnmk4y626BGAH5RCGTQJMi1ktsWGPbNZiqdVH5KdwCaIm+3VZWzTtQGNQLwi0IggyZBQkISA6sB6mZmYi7sLgDAj4IxZAAAAABChkAGAAAAIGQIZAAAAABChkAGAAAAIGQIZAAAAABChkAGAAAAIGQIZAAAAABChkAGAAAAIGQIZAAAAABChkAGAAAAIGQIZAAAAABChkAGAAAAIGS4uXgzt+vPHWdio4TdC4CmCzUCAE0BAllzZmtrK+wuQFNna2urpKQk7F4IDWoEvun/vEbgp6FomhZ2HwAAAAD+r2EMGQAAAICQIZABAAAACBkCGQAAAICQIZABAAAACBkCGQAAAICQIZABAAAACBkCGQAAAICQIZABAAAACNn/AHxzya3QhSvsAAAAAElFTkSuQmCC;" vertex="1" parent="1">
          <mxGeometry x="600" y="250" width="816" height="854" as="geometry" />
        </mxCell>
        <mxCell id="O9XKlactTY2eh3zWxzKE-4" value="" style="shape=flexArrow;endArrow=classic;html=1;rounded=0;fillColor=#f0a30a;strokeColor=#BD7000;" edge="1" parent="1" source="O9XKlactTY2eh3zWxzKE-1">
          <mxGeometry width="50" height="50" relative="1" as="geometry">
            <mxPoint x="1416" y="727" as="sourcePoint" />
            <mxPoint x="1486.7106781186549" y="677" as="targetPoint" />
          </mxGeometry>
        </mxCell>
      </root>
    </mxGraphModel>
  </diagram>
</mxfile>
